<?xml version="1.0" encoding="utf-8" standalone="no"?>
<!DOCTYPE svg PUBLIC "-//W3C//DTD SVG 1.1//EN"
  "http://www.w3.org/Graphics/SVG/1.1/DTD/svg11.dtd">
<!-- Created with matplotlib (https://matplotlib.org/) -->
<svg height="388.844525pt" version="1.1" viewBox="0 0 1000.358125 388.844525" width="1000.358125pt" xmlns="http://www.w3.org/2000/svg" xmlns:xlink="http://www.w3.org/1999/xlink">
 <defs>
  <style type="text/css">
*{stroke-linecap:butt;stroke-linejoin:round;}
  </style>
 </defs>
 <g id="figure_1">
  <g id="axes_1">
   <g id="patch_1">
    <path d="M 32.968125 353.2239 
L 993.158125 353.2239 
L 993.158125 35.2559 
L 32.968125 35.2559 
z
" style="fill:#ffffff;"/>
   </g>
   <g id="matplotlib.axis_1">
    <g id="xtick_1">
     <g id="text_1">
      <!-- 0 -->
      <defs>
       <path d="M 31.78125 66.40625 
Q 24.171875 66.40625 20.328125 58.90625 
Q 16.5 51.421875 16.5 36.375 
Q 16.5 21.390625 20.328125 13.890625 
Q 24.171875 6.390625 31.78125 6.390625 
Q 39.453125 6.390625 43.28125 13.890625 
Q 47.125 21.390625 47.125 36.375 
Q 47.125 51.421875 43.28125 58.90625 
Q 39.453125 66.40625 31.78125 66.40625 
z
M 31.78125 74.21875 
Q 44.046875 74.21875 50.515625 64.515625 
Q 56.984375 54.828125 56.984375 36.375 
Q 56.984375 17.96875 50.515625 8.265625 
Q 44.046875 -1.421875 31.78125 -1.421875 
Q 19.53125 -1.421875 13.0625 8.265625 
Q 6.59375 17.96875 6.59375 36.375 
Q 6.59375 54.828125 13.0625 64.515625 
Q 19.53125 74.21875 31.78125 74.21875 
z
" id="DejaVuSans-48"/>
      </defs>
      <g transform="translate(68.209736 366.30265)scale(0.08 -0.08)">
       <use xlink:href="#DejaVuSans-48"/>
      </g>
     </g>
    </g>
    <g id="xtick_2">
     <g id="text_2">
      <!-- 20 -->
      <defs>
       <path d="M 19.1875 8.296875 
L 53.609375 8.296875 
L 53.609375 0 
L 7.328125 0 
L 7.328125 8.296875 
Q 12.9375 14.109375 22.625 23.890625 
Q 32.328125 33.6875 34.8125 36.53125 
Q 39.546875 41.84375 41.421875 45.53125 
Q 43.3125 49.21875 43.3125 52.78125 
Q 43.3125 58.59375 39.234375 62.25 
Q 35.15625 65.921875 28.609375 65.921875 
Q 23.96875 65.921875 18.8125 64.3125 
Q 13.671875 62.703125 7.8125 59.421875 
L 7.8125 69.390625 
Q 13.765625 71.78125 18.9375 73 
Q 24.125 74.21875 28.421875 74.21875 
Q 39.75 74.21875 46.484375 68.546875 
Q 53.21875 62.890625 53.21875 53.421875 
Q 53.21875 48.921875 51.53125 44.890625 
Q 49.859375 40.875 45.40625 35.40625 
Q 44.1875 33.984375 37.640625 27.21875 
Q 31.109375 20.453125 19.1875 8.296875 
z
" id="DejaVuSans-50"/>
      </defs>
      <g transform="translate(182.832521 366.30265)scale(0.08 -0.08)">
       <use xlink:href="#DejaVuSans-50"/>
       <use x="63.623047" xlink:href="#DejaVuSans-48"/>
      </g>
     </g>
    </g>
    <g id="xtick_3">
     <g id="text_3">
      <!-- 40 -->
      <defs>
       <path d="M 37.796875 64.3125 
L 12.890625 25.390625 
L 37.796875 25.390625 
z
M 35.203125 72.90625 
L 47.609375 72.90625 
L 47.609375 25.390625 
L 58.015625 25.390625 
L 58.015625 17.1875 
L 47.609375 17.1875 
L 47.609375 0 
L 37.796875 0 
L 37.796875 17.1875 
L 4.890625 17.1875 
L 4.890625 26.703125 
z
" id="DejaVuSans-52"/>
      </defs>
      <g transform="translate(300.000306 366.30265)scale(0.08 -0.08)">
       <use xlink:href="#DejaVuSans-52"/>
       <use x="63.623047" xlink:href="#DejaVuSans-48"/>
      </g>
     </g>
    </g>
    <g id="xtick_4">
     <g id="text_4">
      <!-- 60 -->
      <defs>
       <path d="M 33.015625 40.375 
Q 26.375 40.375 22.484375 35.828125 
Q 18.609375 31.296875 18.609375 23.390625 
Q 18.609375 15.53125 22.484375 10.953125 
Q 26.375 6.390625 33.015625 6.390625 
Q 39.65625 6.390625 43.53125 10.953125 
Q 47.40625 15.53125 47.40625 23.390625 
Q 47.40625 31.296875 43.53125 35.828125 
Q 39.65625 40.375 33.015625 40.375 
z
M 52.59375 71.296875 
L 52.59375 62.3125 
Q 48.875 64.0625 45.09375 64.984375 
Q 41.3125 65.921875 37.59375 65.921875 
Q 27.828125 65.921875 22.671875 59.328125 
Q 17.53125 52.734375 16.796875 39.40625 
Q 19.671875 43.65625 24.015625 45.921875 
Q 28.375 48.1875 33.59375 48.1875 
Q 44.578125 48.1875 50.953125 41.515625 
Q 57.328125 34.859375 57.328125 23.390625 
Q 57.328125 12.15625 50.6875 5.359375 
Q 44.046875 -1.421875 33.015625 -1.421875 
Q 20.359375 -1.421875 13.671875 8.265625 
Q 6.984375 17.96875 6.984375 36.375 
Q 6.984375 53.65625 15.1875 63.9375 
Q 23.390625 74.21875 37.203125 74.21875 
Q 40.921875 74.21875 44.703125 73.484375 
Q 48.484375 72.75 52.59375 71.296875 
z
" id="DejaVuSans-54"/>
      </defs>
      <g transform="translate(417.168091 366.30265)scale(0.08 -0.08)">
       <use xlink:href="#DejaVuSans-54"/>
       <use x="63.623047" xlink:href="#DejaVuSans-48"/>
      </g>
     </g>
    </g>
    <g id="xtick_5">
     <g id="text_5">
      <!-- 80 -->
      <defs>
       <path d="M 31.78125 34.625 
Q 24.75 34.625 20.71875 30.859375 
Q 16.703125 27.09375 16.703125 20.515625 
Q 16.703125 13.921875 20.71875 10.15625 
Q 24.75 6.390625 31.78125 6.390625 
Q 38.8125 6.390625 42.859375 10.171875 
Q 46.921875 13.96875 46.921875 20.515625 
Q 46.921875 27.09375 42.890625 30.859375 
Q 38.875 34.625 31.78125 34.625 
z
M 21.921875 38.8125 
Q 15.578125 40.375 12.03125 44.71875 
Q 8.5 49.078125 8.5 55.328125 
Q 8.5 64.0625 14.71875 69.140625 
Q 20.953125 74.21875 31.78125 74.21875 
Q 42.671875 74.21875 48.875 69.140625 
Q 55.078125 64.0625 55.078125 55.328125 
Q 55.078125 49.078125 51.53125 44.71875 
Q 48 40.375 41.703125 38.8125 
Q 48.828125 37.15625 52.796875 32.3125 
Q 56.78125 27.484375 56.78125 20.515625 
Q 56.78125 9.90625 50.3125 4.234375 
Q 43.84375 -1.421875 31.78125 -1.421875 
Q 19.734375 -1.421875 13.25 4.234375 
Q 6.78125 9.90625 6.78125 20.515625 
Q 6.78125 27.484375 10.78125 32.3125 
Q 14.796875 37.15625 21.921875 38.8125 
z
M 18.3125 54.390625 
Q 18.3125 48.734375 21.84375 45.5625 
Q 25.390625 42.390625 31.78125 42.390625 
Q 38.140625 42.390625 41.71875 45.5625 
Q 45.3125 48.734375 45.3125 54.390625 
Q 45.3125 60.0625 41.71875 63.234375 
Q 38.140625 66.40625 31.78125 66.40625 
Q 25.390625 66.40625 21.84375 63.234375 
Q 18.3125 60.0625 18.3125 54.390625 
z
" id="DejaVuSans-56"/>
      </defs>
      <g transform="translate(534.335877 366.30265)scale(0.08 -0.08)">
       <use xlink:href="#DejaVuSans-56"/>
       <use x="63.623047" xlink:href="#DejaVuSans-48"/>
      </g>
     </g>
    </g>
    <g id="xtick_6">
     <g id="text_6">
      <!-- 100 -->
      <defs>
       <path d="M 12.40625 8.296875 
L 28.515625 8.296875 
L 28.515625 63.921875 
L 10.984375 60.40625 
L 10.984375 69.390625 
L 28.421875 72.90625 
L 38.28125 72.90625 
L 38.28125 8.296875 
L 54.390625 8.296875 
L 54.390625 0 
L 12.40625 0 
z
" id="DejaVuSans-49"/>
      </defs>
      <g transform="translate(648.958662 366.30265)scale(0.08 -0.08)">
       <use xlink:href="#DejaVuSans-49"/>
       <use x="63.623047" xlink:href="#DejaVuSans-48"/>
       <use x="127.246094" xlink:href="#DejaVuSans-48"/>
      </g>
     </g>
    </g>
    <g id="xtick_7">
     <g id="text_7">
      <!-- 120 -->
      <g transform="translate(766.126447 366.30265)scale(0.08 -0.08)">
       <use xlink:href="#DejaVuSans-49"/>
       <use x="63.623047" xlink:href="#DejaVuSans-50"/>
       <use x="127.246094" xlink:href="#DejaVuSans-48"/>
      </g>
     </g>
    </g>
    <g id="xtick_8">
     <g id="text_8">
      <!-- 140 -->
      <g transform="translate(883.294232 366.30265)scale(0.08 -0.08)">
       <use xlink:href="#DejaVuSans-49"/>
       <use x="63.623047" xlink:href="#DejaVuSans-52"/>
       <use x="127.246094" xlink:href="#DejaVuSans-48"/>
      </g>
     </g>
    </g>
    <g id="text_9">
     <!-- Read Position -->
     <defs>
      <path d="M 44.390625 34.1875 
Q 47.5625 33.109375 50.5625 29.59375 
Q 53.5625 26.078125 56.59375 19.921875 
L 66.609375 0 
L 56 0 
L 46.6875 18.703125 
Q 43.0625 26.03125 39.671875 28.421875 
Q 36.28125 30.8125 30.421875 30.8125 
L 19.671875 30.8125 
L 19.671875 0 
L 9.8125 0 
L 9.8125 72.90625 
L 32.078125 72.90625 
Q 44.578125 72.90625 50.734375 67.671875 
Q 56.890625 62.453125 56.890625 51.90625 
Q 56.890625 45.015625 53.6875 40.46875 
Q 50.484375 35.9375 44.390625 34.1875 
z
M 19.671875 64.796875 
L 19.671875 38.921875 
L 32.078125 38.921875 
Q 39.203125 38.921875 42.84375 42.21875 
Q 46.484375 45.515625 46.484375 51.90625 
Q 46.484375 58.296875 42.84375 61.546875 
Q 39.203125 64.796875 32.078125 64.796875 
z
" id="DejaVuSans-82"/>
      <path d="M 56.203125 29.59375 
L 56.203125 25.203125 
L 14.890625 25.203125 
Q 15.484375 15.921875 20.484375 11.0625 
Q 25.484375 6.203125 34.421875 6.203125 
Q 39.59375 6.203125 44.453125 7.46875 
Q 49.3125 8.734375 54.109375 11.28125 
L 54.109375 2.78125 
Q 49.265625 0.734375 44.1875 -0.34375 
Q 39.109375 -1.421875 33.890625 -1.421875 
Q 20.796875 -1.421875 13.15625 6.1875 
Q 5.515625 13.8125 5.515625 26.8125 
Q 5.515625 40.234375 12.765625 48.109375 
Q 20.015625 56 32.328125 56 
Q 43.359375 56 49.78125 48.890625 
Q 56.203125 41.796875 56.203125 29.59375 
z
M 47.21875 32.234375 
Q 47.125 39.59375 43.09375 43.984375 
Q 39.0625 48.390625 32.421875 48.390625 
Q 24.90625 48.390625 20.390625 44.140625 
Q 15.875 39.890625 15.1875 32.171875 
z
" id="DejaVuSans-101"/>
      <path d="M 34.28125 27.484375 
Q 23.390625 27.484375 19.1875 25 
Q 14.984375 22.515625 14.984375 16.5 
Q 14.984375 11.71875 18.140625 8.90625 
Q 21.296875 6.109375 26.703125 6.109375 
Q 34.1875 6.109375 38.703125 11.40625 
Q 43.21875 16.703125 43.21875 25.484375 
L 43.21875 27.484375 
z
M 52.203125 31.203125 
L 52.203125 0 
L 43.21875 0 
L 43.21875 8.296875 
Q 40.140625 3.328125 35.546875 0.953125 
Q 30.953125 -1.421875 24.3125 -1.421875 
Q 15.921875 -1.421875 10.953125 3.296875 
Q 6 8.015625 6 15.921875 
Q 6 25.140625 12.171875 29.828125 
Q 18.359375 34.515625 30.609375 34.515625 
L 43.21875 34.515625 
L 43.21875 35.40625 
Q 43.21875 41.609375 39.140625 45 
Q 35.0625 48.390625 27.6875 48.390625 
Q 23 48.390625 18.546875 47.265625 
Q 14.109375 46.140625 10.015625 43.890625 
L 10.015625 52.203125 
Q 14.9375 54.109375 19.578125 55.046875 
Q 24.21875 56 28.609375 56 
Q 40.484375 56 46.34375 49.84375 
Q 52.203125 43.703125 52.203125 31.203125 
z
" id="DejaVuSans-97"/>
      <path d="M 45.40625 46.390625 
L 45.40625 75.984375 
L 54.390625 75.984375 
L 54.390625 0 
L 45.40625 0 
L 45.40625 8.203125 
Q 42.578125 3.328125 38.25 0.953125 
Q 33.9375 -1.421875 27.875 -1.421875 
Q 17.96875 -1.421875 11.734375 6.484375 
Q 5.515625 14.40625 5.515625 27.296875 
Q 5.515625 40.1875 11.734375 48.09375 
Q 17.96875 56 27.875 56 
Q 33.9375 56 38.25 53.625 
Q 42.578125 51.265625 45.40625 46.390625 
z
M 14.796875 27.296875 
Q 14.796875 17.390625 18.875 11.75 
Q 22.953125 6.109375 30.078125 6.109375 
Q 37.203125 6.109375 41.296875 11.75 
Q 45.40625 17.390625 45.40625 27.296875 
Q 45.40625 37.203125 41.296875 42.84375 
Q 37.203125 48.484375 30.078125 48.484375 
Q 22.953125 48.484375 18.875 42.84375 
Q 14.796875 37.203125 14.796875 27.296875 
z
" id="DejaVuSans-100"/>
      <path id="DejaVuSans-32"/>
      <path d="M 19.671875 64.796875 
L 19.671875 37.40625 
L 32.078125 37.40625 
Q 38.96875 37.40625 42.71875 40.96875 
Q 46.484375 44.53125 46.484375 51.125 
Q 46.484375 57.671875 42.71875 61.234375 
Q 38.96875 64.796875 32.078125 64.796875 
z
M 9.8125 72.90625 
L 32.078125 72.90625 
Q 44.34375 72.90625 50.609375 67.359375 
Q 56.890625 61.8125 56.890625 51.125 
Q 56.890625 40.328125 50.609375 34.8125 
Q 44.34375 29.296875 32.078125 29.296875 
L 19.671875 29.296875 
L 19.671875 0 
L 9.8125 0 
z
" id="DejaVuSans-80"/>
      <path d="M 30.609375 48.390625 
Q 23.390625 48.390625 19.1875 42.75 
Q 14.984375 37.109375 14.984375 27.296875 
Q 14.984375 17.484375 19.15625 11.84375 
Q 23.34375 6.203125 30.609375 6.203125 
Q 37.796875 6.203125 41.984375 11.859375 
Q 46.1875 17.53125 46.1875 27.296875 
Q 46.1875 37.015625 41.984375 42.703125 
Q 37.796875 48.390625 30.609375 48.390625 
z
M 30.609375 56 
Q 42.328125 56 49.015625 48.375 
Q 55.71875 40.765625 55.71875 27.296875 
Q 55.71875 13.875 49.015625 6.21875 
Q 42.328125 -1.421875 30.609375 -1.421875 
Q 18.84375 -1.421875 12.171875 6.21875 
Q 5.515625 13.875 5.515625 27.296875 
Q 5.515625 40.765625 12.171875 48.375 
Q 18.84375 56 30.609375 56 
z
" id="DejaVuSans-111"/>
      <path d="M 44.28125 53.078125 
L 44.28125 44.578125 
Q 40.484375 46.53125 36.375 47.5 
Q 32.28125 48.484375 27.875 48.484375 
Q 21.1875 48.484375 17.84375 46.4375 
Q 14.5 44.390625 14.5 40.28125 
Q 14.5 37.15625 16.890625 35.375 
Q 19.28125 33.59375 26.515625 31.984375 
L 29.59375 31.296875 
Q 39.15625 29.25 43.1875 25.515625 
Q 47.21875 21.78125 47.21875 15.09375 
Q 47.21875 7.46875 41.1875 3.015625 
Q 35.15625 -1.421875 24.609375 -1.421875 
Q 20.21875 -1.421875 15.453125 -0.5625 
Q 10.6875 0.296875 5.421875 2 
L 5.421875 11.28125 
Q 10.40625 8.6875 15.234375 7.390625 
Q 20.0625 6.109375 24.8125 6.109375 
Q 31.15625 6.109375 34.5625 8.28125 
Q 37.984375 10.453125 37.984375 14.40625 
Q 37.984375 18.0625 35.515625 20.015625 
Q 33.0625 21.96875 24.703125 23.78125 
L 21.578125 24.515625 
Q 13.234375 26.265625 9.515625 29.90625 
Q 5.8125 33.546875 5.8125 39.890625 
Q 5.8125 47.609375 11.28125 51.796875 
Q 16.75 56 26.8125 56 
Q 31.78125 56 36.171875 55.265625 
Q 40.578125 54.546875 44.28125 53.078125 
z
" id="DejaVuSans-115"/>
      <path d="M 9.421875 54.6875 
L 18.40625 54.6875 
L 18.40625 0 
L 9.421875 0 
z
M 9.421875 75.984375 
L 18.40625 75.984375 
L 18.40625 64.59375 
L 9.421875 64.59375 
z
" id="DejaVuSans-105"/>
      <path d="M 18.3125 70.21875 
L 18.3125 54.6875 
L 36.8125 54.6875 
L 36.8125 47.703125 
L 18.3125 47.703125 
L 18.3125 18.015625 
Q 18.3125 11.328125 20.140625 9.421875 
Q 21.96875 7.515625 27.59375 7.515625 
L 36.8125 7.515625 
L 36.8125 0 
L 27.59375 0 
Q 17.1875 0 13.234375 3.875 
Q 9.28125 7.765625 9.28125 18.015625 
L 9.28125 47.703125 
L 2.6875 47.703125 
L 2.6875 54.6875 
L 9.28125 54.6875 
L 9.28125 70.21875 
z
" id="DejaVuSans-116"/>
      <path d="M 54.890625 33.015625 
L 54.890625 0 
L 45.90625 0 
L 45.90625 32.71875 
Q 45.90625 40.484375 42.875 44.328125 
Q 39.84375 48.1875 33.796875 48.1875 
Q 26.515625 48.1875 22.3125 43.546875 
Q 18.109375 38.921875 18.109375 30.90625 
L 18.109375 0 
L 9.078125 0 
L 9.078125 54.6875 
L 18.109375 54.6875 
L 18.109375 46.1875 
Q 21.34375 51.125 25.703125 53.5625 
Q 30.078125 56 35.796875 56 
Q 45.21875 56 50.046875 50.171875 
Q 54.890625 44.34375 54.890625 33.015625 
z
" id="DejaVuSans-110"/>
     </defs>
     <g transform="translate(479.045156 379.564837)scale(0.1 -0.1)">
      <use xlink:href="#DejaVuSans-82"/>
      <use x="69.419922" xlink:href="#DejaVuSans-101"/>
      <use x="130.943359" xlink:href="#DejaVuSans-97"/>
      <use x="192.222656" xlink:href="#DejaVuSans-100"/>
      <use x="255.699219" xlink:href="#DejaVuSans-32"/>
      <use x="287.486328" xlink:href="#DejaVuSans-80"/>
      <use x="347.742188" xlink:href="#DejaVuSans-111"/>
      <use x="408.923828" xlink:href="#DejaVuSans-115"/>
      <use x="461.023438" xlink:href="#DejaVuSans-105"/>
      <use x="488.806641" xlink:href="#DejaVuSans-116"/>
      <use x="528.015625" xlink:href="#DejaVuSans-105"/>
      <use x="555.798828" xlink:href="#DejaVuSans-111"/>
      <use x="616.980469" xlink:href="#DejaVuSans-110"/>
     </g>
    </g>
   </g>
   <g id="matplotlib.axis_2">
    <g id="ytick_1">
     <g id="line2d_1">
      <path clip-path="url(#pae4944b854)" d="M 32.968125 353.2239 
L 993.158125 353.2239 
" style="fill:none;stroke:#dedede;stroke-linecap:square;"/>
     </g>
     <g id="text_10">
      <!-- 0 -->
      <g transform="translate(20.878125 356.263275)scale(0.08 -0.08)">
       <use xlink:href="#DejaVuSans-48"/>
      </g>
     </g>
    </g>
    <g id="ytick_2">
     <g id="line2d_2">
      <path clip-path="url(#pae4944b854)" d="M 32.968125 289.6303 
L 993.158125 289.6303 
" style="fill:none;stroke:#dedede;stroke-linecap:square;"/>
     </g>
     <g id="text_11">
      <!-- 1 -->
      <g transform="translate(20.878125 292.669675)scale(0.08 -0.08)">
       <use xlink:href="#DejaVuSans-49"/>
      </g>
     </g>
    </g>
    <g id="ytick_3">
     <g id="line2d_3">
      <path clip-path="url(#pae4944b854)" d="M 32.968125 226.0367 
L 993.158125 226.0367 
" style="fill:none;stroke:#dedede;stroke-linecap:square;"/>
     </g>
     <g id="text_12">
      <!-- 2 -->
      <g transform="translate(20.878125 229.076075)scale(0.08 -0.08)">
       <use xlink:href="#DejaVuSans-50"/>
      </g>
     </g>
    </g>
    <g id="ytick_4">
     <g id="line2d_4">
      <path clip-path="url(#pae4944b854)" d="M 32.968125 162.4431 
L 993.158125 162.4431 
" style="fill:none;stroke:#dedede;stroke-linecap:square;"/>
     </g>
     <g id="text_13">
      <!-- 3 -->
      <defs>
       <path d="M 40.578125 39.3125 
Q 47.65625 37.796875 51.625 33 
Q 55.609375 28.21875 55.609375 21.1875 
Q 55.609375 10.40625 48.1875 4.484375 
Q 40.765625 -1.421875 27.09375 -1.421875 
Q 22.515625 -1.421875 17.65625 -0.515625 
Q 12.796875 0.390625 7.625 2.203125 
L 7.625 11.71875 
Q 11.71875 9.328125 16.59375 8.109375 
Q 21.484375 6.890625 26.8125 6.890625 
Q 36.078125 6.890625 40.9375 10.546875 
Q 45.796875 14.203125 45.796875 21.1875 
Q 45.796875 27.640625 41.28125 31.265625 
Q 36.765625 34.90625 28.71875 34.90625 
L 20.21875 34.90625 
L 20.21875 43.015625 
L 29.109375 43.015625 
Q 36.375 43.015625 40.234375 45.921875 
Q 44.09375 48.828125 44.09375 54.296875 
Q 44.09375 59.90625 40.109375 62.90625 
Q 36.140625 65.921875 28.71875 65.921875 
Q 24.65625 65.921875 20.015625 65.03125 
Q 15.375 64.15625 9.8125 62.3125 
L 9.8125 71.09375 
Q 15.4375 72.65625 20.34375 73.4375 
Q 25.25 74.21875 29.59375 74.21875 
Q 40.828125 74.21875 47.359375 69.109375 
Q 53.90625 64.015625 53.90625 55.328125 
Q 53.90625 49.265625 50.4375 45.09375 
Q 46.96875 40.921875 40.578125 39.3125 
z
" id="DejaVuSans-51"/>
      </defs>
      <g transform="translate(20.878125 165.482475)scale(0.08 -0.08)">
       <use xlink:href="#DejaVuSans-51"/>
      </g>
     </g>
    </g>
    <g id="ytick_5">
     <g id="line2d_5">
      <path clip-path="url(#pae4944b854)" d="M 32.968125 98.8495 
L 993.158125 98.8495 
" style="fill:none;stroke:#dedede;stroke-linecap:square;"/>
     </g>
     <g id="text_14">
      <!-- 4 -->
      <g transform="translate(20.878125 101.888875)scale(0.08 -0.08)">
       <use xlink:href="#DejaVuSans-52"/>
      </g>
     </g>
    </g>
    <g id="ytick_6">
     <g id="line2d_6">
      <path clip-path="url(#pae4944b854)" d="M 32.968125 35.2559 
L 993.158125 35.2559 
" style="fill:none;stroke:#dedede;stroke-linecap:square;"/>
     </g>
     <g id="text_15">
      <!-- 5 -->
      <defs>
       <path d="M 10.796875 72.90625 
L 49.515625 72.90625 
L 49.515625 64.59375 
L 19.828125 64.59375 
L 19.828125 46.734375 
Q 21.96875 47.46875 24.109375 47.828125 
Q 26.265625 48.1875 28.421875 48.1875 
Q 40.625 48.1875 47.75 41.5 
Q 54.890625 34.8125 54.890625 23.390625 
Q 54.890625 11.625 47.5625 5.09375 
Q 40.234375 -1.421875 26.90625 -1.421875 
Q 22.3125 -1.421875 17.546875 -0.640625 
Q 12.796875 0.140625 7.71875 1.703125 
L 7.71875 11.625 
Q 12.109375 9.234375 16.796875 8.0625 
Q 21.484375 6.890625 26.703125 6.890625 
Q 35.15625 6.890625 40.078125 11.328125 
Q 45.015625 15.765625 45.015625 23.390625 
Q 45.015625 31 40.078125 35.4375 
Q 35.15625 39.890625 26.703125 39.890625 
Q 22.75 39.890625 18.8125 39.015625 
Q 14.890625 38.140625 10.796875 36.28125 
z
" id="DejaVuSans-53"/>
      </defs>
      <g transform="translate(20.878125 38.295275)scale(0.08 -0.08)">
       <use xlink:href="#DejaVuSans-53"/>
      </g>
     </g>
    </g>
    <g id="text_16">
     <!-- R2 After filtering: Base Content Percent -->
     <defs>
      <path d="M 34.1875 63.1875 
L 20.796875 26.90625 
L 47.609375 26.90625 
z
M 28.609375 72.90625 
L 39.796875 72.90625 
L 67.578125 0 
L 57.328125 0 
L 50.6875 18.703125 
L 17.828125 18.703125 
L 11.1875 0 
L 0.78125 0 
z
" id="DejaVuSans-65"/>
      <path d="M 37.109375 75.984375 
L 37.109375 68.5 
L 28.515625 68.5 
Q 23.6875 68.5 21.796875 66.546875 
Q 19.921875 64.59375 19.921875 59.515625 
L 19.921875 54.6875 
L 34.71875 54.6875 
L 34.71875 47.703125 
L 19.921875 47.703125 
L 19.921875 0 
L 10.890625 0 
L 10.890625 47.703125 
L 2.296875 47.703125 
L 2.296875 54.6875 
L 10.890625 54.6875 
L 10.890625 58.5 
Q 10.890625 67.625 15.140625 71.796875 
Q 19.390625 75.984375 28.609375 75.984375 
z
" id="DejaVuSans-102"/>
      <path d="M 41.109375 46.296875 
Q 39.59375 47.171875 37.8125 47.578125 
Q 36.03125 48 33.890625 48 
Q 26.265625 48 22.1875 43.046875 
Q 18.109375 38.09375 18.109375 28.8125 
L 18.109375 0 
L 9.078125 0 
L 9.078125 54.6875 
L 18.109375 54.6875 
L 18.109375 46.1875 
Q 20.953125 51.171875 25.484375 53.578125 
Q 30.03125 56 36.53125 56 
Q 37.453125 56 38.578125 55.875 
Q 39.703125 55.765625 41.0625 55.515625 
z
" id="DejaVuSans-114"/>
      <path d="M 9.421875 75.984375 
L 18.40625 75.984375 
L 18.40625 0 
L 9.421875 0 
z
" id="DejaVuSans-108"/>
      <path d="M 45.40625 27.984375 
Q 45.40625 37.75 41.375 43.109375 
Q 37.359375 48.484375 30.078125 48.484375 
Q 22.859375 48.484375 18.828125 43.109375 
Q 14.796875 37.75 14.796875 27.984375 
Q 14.796875 18.265625 18.828125 12.890625 
Q 22.859375 7.515625 30.078125 7.515625 
Q 37.359375 7.515625 41.375 12.890625 
Q 45.40625 18.265625 45.40625 27.984375 
z
M 54.390625 6.78125 
Q 54.390625 -7.171875 48.1875 -13.984375 
Q 42 -20.796875 29.203125 -20.796875 
Q 24.46875 -20.796875 20.265625 -20.09375 
Q 16.0625 -19.390625 12.109375 -17.921875 
L 12.109375 -9.1875 
Q 16.0625 -11.328125 19.921875 -12.34375 
Q 23.78125 -13.375 27.78125 -13.375 
Q 36.625 -13.375 41.015625 -8.765625 
Q 45.40625 -4.15625 45.40625 5.171875 
L 45.40625 9.625 
Q 42.625 4.78125 38.28125 2.390625 
Q 33.9375 0 27.875 0 
Q 17.828125 0 11.671875 7.65625 
Q 5.515625 15.328125 5.515625 27.984375 
Q 5.515625 40.671875 11.671875 48.328125 
Q 17.828125 56 27.875 56 
Q 33.9375 56 38.28125 53.609375 
Q 42.625 51.21875 45.40625 46.390625 
L 45.40625 54.6875 
L 54.390625 54.6875 
z
" id="DejaVuSans-103"/>
      <path d="M 11.71875 12.40625 
L 22.015625 12.40625 
L 22.015625 0 
L 11.71875 0 
z
M 11.71875 51.703125 
L 22.015625 51.703125 
L 22.015625 39.3125 
L 11.71875 39.3125 
z
" id="DejaVuSans-58"/>
      <path d="M 19.671875 34.8125 
L 19.671875 8.109375 
L 35.5 8.109375 
Q 43.453125 8.109375 47.28125 11.40625 
Q 51.125 14.703125 51.125 21.484375 
Q 51.125 28.328125 47.28125 31.5625 
Q 43.453125 34.8125 35.5 34.8125 
z
M 19.671875 64.796875 
L 19.671875 42.828125 
L 34.28125 42.828125 
Q 41.5 42.828125 45.03125 45.53125 
Q 48.578125 48.25 48.578125 53.8125 
Q 48.578125 59.328125 45.03125 62.0625 
Q 41.5 64.796875 34.28125 64.796875 
z
M 9.8125 72.90625 
L 35.015625 72.90625 
Q 46.296875 72.90625 52.390625 68.21875 
Q 58.5 63.53125 58.5 54.890625 
Q 58.5 48.1875 55.375 44.234375 
Q 52.25 40.28125 46.1875 39.3125 
Q 53.46875 37.75 57.5 32.78125 
Q 61.53125 27.828125 61.53125 20.40625 
Q 61.53125 10.640625 54.890625 5.3125 
Q 48.25 0 35.984375 0 
L 9.8125 0 
z
" id="DejaVuSans-66"/>
      <path d="M 64.40625 67.28125 
L 64.40625 56.890625 
Q 59.421875 61.53125 53.78125 63.8125 
Q 48.140625 66.109375 41.796875 66.109375 
Q 29.296875 66.109375 22.65625 58.46875 
Q 16.015625 50.828125 16.015625 36.375 
Q 16.015625 21.96875 22.65625 14.328125 
Q 29.296875 6.6875 41.796875 6.6875 
Q 48.140625 6.6875 53.78125 8.984375 
Q 59.421875 11.28125 64.40625 15.921875 
L 64.40625 5.609375 
Q 59.234375 2.09375 53.4375 0.328125 
Q 47.65625 -1.421875 41.21875 -1.421875 
Q 24.65625 -1.421875 15.125 8.703125 
Q 5.609375 18.84375 5.609375 36.375 
Q 5.609375 53.953125 15.125 64.078125 
Q 24.65625 74.21875 41.21875 74.21875 
Q 47.75 74.21875 53.53125 72.484375 
Q 59.328125 70.75 64.40625 67.28125 
z
" id="DejaVuSans-67"/>
      <path d="M 48.78125 52.59375 
L 48.78125 44.1875 
Q 44.96875 46.296875 41.140625 47.34375 
Q 37.3125 48.390625 33.40625 48.390625 
Q 24.65625 48.390625 19.8125 42.84375 
Q 14.984375 37.3125 14.984375 27.296875 
Q 14.984375 17.28125 19.8125 11.734375 
Q 24.65625 6.203125 33.40625 6.203125 
Q 37.3125 6.203125 41.140625 7.25 
Q 44.96875 8.296875 48.78125 10.40625 
L 48.78125 2.09375 
Q 45.015625 0.34375 40.984375 -0.53125 
Q 36.96875 -1.421875 32.421875 -1.421875 
Q 20.0625 -1.421875 12.78125 6.34375 
Q 5.515625 14.109375 5.515625 27.296875 
Q 5.515625 40.671875 12.859375 48.328125 
Q 20.21875 56 33.015625 56 
Q 37.15625 56 41.109375 55.140625 
Q 45.0625 54.296875 48.78125 52.59375 
z
" id="DejaVuSans-99"/>
     </defs>
     <g transform="translate(14.798438 293.315681)rotate(-90)scale(0.1 -0.1)">
      <use xlink:href="#DejaVuSans-82"/>
      <use x="69.482422" xlink:href="#DejaVuSans-50"/>
      <use x="133.105469" xlink:href="#DejaVuSans-32"/>
      <use x="164.892578" xlink:href="#DejaVuSans-65"/>
      <use x="233.253906" xlink:href="#DejaVuSans-102"/>
      <use x="268.443359" xlink:href="#DejaVuSans-116"/>
      <use x="307.652344" xlink:href="#DejaVuSans-101"/>
      <use x="369.175781" xlink:href="#DejaVuSans-114"/>
      <use x="410.289062" xlink:href="#DejaVuSans-32"/>
      <use x="442.076172" xlink:href="#DejaVuSans-102"/>
      <use x="477.28125" xlink:href="#DejaVuSans-105"/>
      <use x="505.064453" xlink:href="#DejaVuSans-108"/>
      <use x="532.847656" xlink:href="#DejaVuSans-116"/>
      <use x="572.056641" xlink:href="#DejaVuSans-101"/>
      <use x="633.580078" xlink:href="#DejaVuSans-114"/>
      <use x="674.693359" xlink:href="#DejaVuSans-105"/>
      <use x="702.476562" xlink:href="#DejaVuSans-110"/>
      <use x="765.855469" xlink:href="#DejaVuSans-103"/>
      <use x="829.332031" xlink:href="#DejaVuSans-58"/>
      <use x="863.023438" xlink:href="#DejaVuSans-32"/>
      <use x="894.810547" xlink:href="#DejaVuSans-66"/>
      <use x="963.414062" xlink:href="#DejaVuSans-97"/>
      <use x="1024.693359" xlink:href="#DejaVuSans-115"/>
      <use x="1076.792969" xlink:href="#DejaVuSans-101"/>
      <use x="1138.316406" xlink:href="#DejaVuSans-32"/>
      <use x="1170.103516" xlink:href="#DejaVuSans-67"/>
      <use x="1239.927734" xlink:href="#DejaVuSans-111"/>
      <use x="1301.109375" xlink:href="#DejaVuSans-110"/>
      <use x="1364.488281" xlink:href="#DejaVuSans-116"/>
      <use x="1403.697266" xlink:href="#DejaVuSans-101"/>
      <use x="1465.220703" xlink:href="#DejaVuSans-110"/>
      <use x="1528.599609" xlink:href="#DejaVuSans-116"/>
      <use x="1567.808594" xlink:href="#DejaVuSans-32"/>
      <use x="1599.595703" xlink:href="#DejaVuSans-80"/>
      <use x="1659.851562" xlink:href="#DejaVuSans-101"/>
      <use x="1721.375" xlink:href="#DejaVuSans-114"/>
      <use x="1762.457031" xlink:href="#DejaVuSans-99"/>
      <use x="1817.4375" xlink:href="#DejaVuSans-101"/>
      <use x="1878.960938" xlink:href="#DejaVuSans-110"/>
      <use x="1942.339844" xlink:href="#DejaVuSans-116"/>
     </g>
    </g>
   </g>
   <g id="line2d_7">
    <path clip-path="url(#pae4944b854)" d="M 76.613125 353.2239 
L 82.471514 353.161633 
L 88.329904 352.931646 
L 94.188293 353.217874 
L 117.62185 353.221891 
L 281.656749 353.207724 
L 310.948695 353.173557 
L 316.807085 352.925755 
L 322.665474 353.220791 
L 422.258091 353.186729 
L 428.116481 353.094949 
L 439.833259 353.222644 
L 463.266816 353.115588 
L 469.125206 352.263999 
L 474.983595 353.213998 
L 527.709098 353.187868 
L 533.567487 352.91551 
L 539.425877 353.2239 
L 750.32789 353.156824 
L 756.186279 352.617289 
L 762.044669 353.2239 
L 867.495675 353.201075 
L 873.354065 352.74269 
L 879.212454 352.665425 
L 885.070843 353.170396 
L 896.787622 352.718786 
L 902.646011 353.2239 
L 920.221179 353.2239 
L 949.513125 353.2239 
L 949.513125 353.2239 
" style="fill:none;stroke:#7cb5ec;stroke-linecap:square;"/>
   </g>
   <g id="line2d_8">
    <path clip-path="url(#pae4944b854)" d="M 76.613125 353.2239 
L 94.188293 353.218035 
L 176.205742 353.223727 
L 310.948695 353.188005 
L 316.807085 352.957032 
L 322.665474 353.217613 
L 416.399702 353.222244 
L 439.833259 353.219728 
L 463.266816 353.131894 
L 469.125206 352.446169 
L 474.983595 353.212289 
L 527.709098 353.190185 
L 533.567487 352.968687 
L 539.425877 353.223564 
L 750.32789 353.167057 
L 756.186279 352.761272 
L 762.044669 353.2239 
L 867.495675 353.164441 
L 873.354065 352.797932 
L 879.212454 352.79796 
L 885.070843 353.188921 
L 896.787622 352.795076 
L 902.646011 353.200374 
L 908.5044 353.025783 
L 914.362789 353.2239 
L 949.513125 353.2239 
L 949.513125 353.2239 
" style="fill:none;stroke:#434348;stroke-linecap:square;"/>
   </g>
   <g id="line2d_9">
    <path clip-path="url(#pae4944b854)" d="M 76.613125 353.2239 
L 105.905071 353.2239 
L 310.948695 353.181199 
L 316.807085 352.934811 
L 322.665474 353.218529 
L 422.258091 353.208875 
L 428.116481 353.153974 
L 439.833259 353.2239 
L 463.266816 353.14389 
L 469.125206 352.374423 
L 474.983595 353.2239 
L 527.709098 353.206502 
L 533.567487 352.977516 
L 539.425877 353.2239 
L 744.469501 353.2239 
L 750.32789 353.103444 
L 756.186279 352.802713 
L 762.044669 353.2239 
L 867.495675 353.2239 
L 873.354065 352.707075 
L 879.212454 352.860557 
L 885.070843 353.2239 
L 896.787622 352.654893 
L 902.646011 353.2239 
L 949.513125 353.2239 
L 949.513125 353.2239 
" style="fill:none;stroke:#90ed7d;stroke-linecap:square;"/>
   </g>
   <g id="line2d_10">
    <path clip-path="url(#pae4944b854)" d="M 76.613125 353.2239 
L 82.471514 353.153739 
L 88.329904 352.877801 
L 94.188293 353.207438 
L 117.62185 353.222332 
L 287.515138 353.219526 
L 310.948695 353.168294 
L 316.807085 352.813496 
L 322.665474 353.216913 
L 387.107756 353.204844 
L 404.682924 353.219196 
L 422.258091 353.161116 
L 428.116481 353.08844 
L 439.833259 353.220299 
L 457.408427 353.21031 
L 463.266816 353.086349 
L 469.125206 352.155165 
L 474.983595 353.211746 
L 527.709098 353.185405 
L 533.567487 352.910743 
L 539.425877 353.223131 
L 750.32789 353.166031 
L 756.186279 352.695764 
L 762.044669 353.2239 
L 867.495675 353.148335 
L 873.354065 352.454786 
L 879.212454 352.667228 
L 885.070843 353.20816 
L 896.787622 352.655915 
L 902.646011 353.214899 
L 908.5044 352.942278 
L 914.362789 353.2239 
L 949.513125 353.2239 
L 949.513125 353.2239 
" style="fill:none;stroke:#f7a35c;stroke-linecap:square;"/>
   </g>
   <g id="line2d_11">
    <path clip-path="url(#pae4944b854)" d="M 76.613125 353.2239 
L 82.471514 353.169206 
L 88.329904 352.96747 
L 94.188293 353.209608 
L 123.480239 353.218953 
L 240.648024 353.21538 
L 252.364803 353.204661 
L 287.515138 353.215511 
L 310.948695 353.181163 
L 316.807085 352.909751 
L 322.665474 353.216908 
L 387.107756 353.215007 
L 404.682924 353.220802 
L 422.258091 353.163091 
L 428.116481 353.089742 
L 439.833259 353.22007 
L 457.408427 353.211647 
L 463.266816 353.102679 
L 469.125206 352.2986 
L 474.983595 353.213364 
L 527.709098 353.189764 
L 533.567487 352.921865 
L 539.425877 353.2239 
L 750.32789 353.145668 
L 756.186279 352.726188 
L 762.044669 353.2239 
L 867.495675 353.181135 
L 873.354065 352.62446 
L 879.212454 352.569687 
L 885.070843 353.207329 
L 896.787622 352.711434 
L 902.646011 353.195051 
L 908.5044 353.022289 
L 914.362789 353.2239 
L 949.513125 353.2239 
L 949.513125 353.2239 
" style="fill:none;stroke:#8085e9;stroke-linecap:square;"/>
   </g>
   <g id="line2d_12">
    <path clip-path="url(#pae4944b854)" d="M 76.613125 353.2239 
L 82.471514 353.155558 
L 88.329904 352.916166 
L 94.188293 353.20867 
L 117.62185 353.223314 
L 293.373528 353.222912 
L 310.948695 353.172026 
L 316.807085 352.849985 
L 322.665474 353.218068 
L 416.399702 353.217996 
L 428.116481 353.066883 
L 433.97487 353.198083 
L 457.408427 353.202547 
L 463.266816 353.084314 
L 469.125206 352.149645 
L 474.983595 353.213324 
L 527.709098 353.176771 
L 533.567487 352.882488 
L 539.425877 353.2239 
L 750.32789 353.137148 
L 756.186279 352.591916 
L 762.044669 353.2239 
L 867.495675 353.184561 
L 873.354065 352.588158 
L 879.212454 352.5956 
L 885.070843 353.201165 
L 890.929232 352.899456 
L 896.787622 352.713641 
L 902.646011 353.218651 
L 908.5044 353.015216 
L 914.362789 353.2239 
L 949.513125 353.2239 
L 949.513125 353.2239 
" style="fill:none;stroke:#f15c80;stroke-linecap:square;"/>
   </g>
   <g id="line2d_13">
    <path clip-path="url(#pae4944b854)" d="M 76.613125 353.2239 
L 82.471514 353.158711 
L 88.329904 352.914324 
L 94.188293 353.208097 
L 111.763461 353.223053 
L 310.948695 353.177358 
L 316.807085 352.885138 
L 322.665474 353.216836 
L 387.107756 353.207625 
L 404.682924 353.220177 
L 463.266816 353.114194 
L 469.125206 352.26157 
L 474.983595 353.213303 
L 527.709098 353.183903 
L 533.567487 352.945403 
L 539.425877 353.2239 
L 750.32789 353.16216 
L 756.186279 352.726643 
L 762.044669 353.2239 
L 867.495675 353.183258 
L 873.354065 352.601675 
L 879.212454 352.602193 
L 885.070843 353.203698 
L 896.787622 352.725764 
L 902.646011 353.216078 
L 908.5044 352.953373 
L 914.362789 353.2239 
L 949.513125 353.2239 
L 949.513125 353.2239 
" style="fill:none;stroke:#e4d354;stroke-linecap:square;"/>
   </g>
   <g id="line2d_14">
    <path clip-path="url(#pae4944b854)" d="M 76.613125 353.2239 
L 82.471514 353.139887 
L 88.329904 352.879959 
L 94.188293 353.205334 
L 123.480239 353.220187 
L 305.090306 353.215363 
L 310.948695 353.171979 
L 316.807085 352.838623 
L 322.665474 353.21909 
L 416.399702 353.215517 
L 428.116481 353.082165 
L 439.833259 353.221516 
L 457.408427 353.203708 
L 463.266816 353.105335 
L 469.125206 352.208329 
L 474.983595 353.218511 
L 527.709098 353.179532 
L 533.567487 352.926897 
L 539.425877 353.2239 
L 750.32789 353.165105 
L 756.186279 352.679209 
L 762.044669 353.2239 
L 867.495675 353.17444 
L 873.354065 352.603431 
L 879.212454 352.682806 
L 885.070843 353.214465 
L 890.929232 352.937736 
L 896.787622 352.831833 
L 902.646011 353.180726 
L 908.5044 353.021239 
L 914.362789 353.2239 
L 949.513125 353.2239 
L 949.513125 353.2239 
" style="fill:none;stroke:#2b908f;stroke-linecap:square;"/>
   </g>
   <g id="line2d_15">
    <path clip-path="url(#pae4944b854)" d="M 76.613125 353.2239 
L 82.471514 353.15661 
L 88.329904 352.972771 
L 94.188293 353.210266 
L 123.480239 353.220821 
L 305.090306 353.216689 
L 310.948695 353.1845 
L 316.807085 352.913427 
L 322.665474 353.217034 
L 416.399702 353.21855 
L 428.116481 353.104092 
L 439.833259 353.222185 
L 463.266816 353.119617 
L 469.125206 352.291357 
L 474.983595 353.211536 
L 521.850709 353.218202 
L 527.709098 353.187775 
L 533.567487 352.945394 
L 539.425877 353.223003 
L 750.32789 353.155652 
L 756.186279 352.773286 
L 762.044669 353.2239 
L 867.495675 353.158643 
L 873.354065 352.59365 
L 879.212454 352.607854 
L 885.070843 353.198429 
L 890.929232 352.955558 
L 896.787622 352.828291 
L 902.646011 353.2239 
L 908.5044 353.082948 
L 914.362789 353.2239 
L 949.513125 353.2239 
L 949.513125 353.2239 
" style="fill:none;stroke:#f45b5b;stroke-linecap:square;"/>
   </g>
   <g id="line2d_16">
    <path clip-path="url(#pae4944b854)" d="M 76.613125 353.2239 
L 82.471514 353.151017 
L 88.329904 352.892703 
L 94.188293 353.207453 
L 117.62185 353.223578 
L 310.948695 353.177398 
L 316.807085 352.86865 
L 322.665474 353.218528 
L 416.399702 353.220789 
L 428.116481 353.09705 
L 439.833259 353.221009 
L 457.408427 353.206023 
L 463.266816 353.111822 
L 469.125206 352.305736 
L 474.983595 353.211836 
L 527.709098 353.176003 
L 533.567487 352.950261 
L 539.425877 353.2239 
L 750.32789 353.162943 
L 756.186279 352.714492 
L 762.044669 353.2239 
L 867.495675 353.181318 
L 873.354065 352.681373 
L 879.212454 352.654319 
L 885.070843 353.2239 
L 896.787622 352.77455 
L 902.646011 353.20762 
L 908.5044 353.061938 
L 914.362789 353.2239 
L 949.513125 353.2239 
L 949.513125 353.2239 
" style="fill:none;stroke:#91e8e1;stroke-linecap:square;"/>
   </g>
   <g id="line2d_17">
    <path clip-path="url(#pae4944b854)" d="M 76.613125 353.2239 
L 105.905071 353.2239 
L 310.948695 353.177048 
L 316.807085 352.867805 
L 322.665474 353.216831 
L 416.399702 353.219063 
L 433.97487 353.203504 
L 457.408427 353.210057 
L 463.266816 353.120502 
L 469.125206 352.257786 
L 474.983595 353.222413 
L 527.709098 353.177694 
L 533.567487 352.903824 
L 539.425877 353.2239 
L 750.32789 353.154538 
L 756.186279 352.634966 
L 762.044669 353.2239 
L 867.495675 353.159677 
L 873.354065 352.629751 
L 879.212454 352.718691 
L 885.070843 353.211587 
L 890.929232 352.991921 
L 896.787622 352.63045 
L 902.646011 353.209777 
L 908.5044 353.032181 
L 914.362789 353.208522 
L 949.513125 353.2239 
L 949.513125 353.2239 
" style="fill:none;stroke:#7cb5ec;stroke-linecap:square;"/>
   </g>
   <g id="line2d_18">
    <path clip-path="url(#pae4944b854)" d="M 76.613125 353.2239 
L 82.471514 353.156889 
L 88.329904 352.901731 
L 94.188293 353.205859 
L 117.62185 353.2239 
L 199.639299 353.205859 
L 234.789635 353.221323 
L 310.948695 353.17617 
L 316.807085 352.864103 
L 322.665474 353.2239 
L 457.408427 353.206274 
L 463.266816 353.072733 
L 469.125206 352.304298 
L 474.983595 353.212614 
L 527.709098 353.209589 
L 533.567487 352.934042 
L 539.425877 353.218835 
L 668.31044 353.2239 
L 750.32789 353.122302 
L 756.186279 352.798806 
L 762.044669 353.2239 
L 867.495675 353.2239 
L 873.354065 352.560422 
L 879.212454 352.991008 
L 885.070843 353.2239 
L 890.929232 353.159497 
L 896.787622 352.952686 
L 902.646011 353.2239 
L 908.5044 353.074026 
L 914.362789 353.2239 
L 949.513125 353.2239 
L 949.513125 353.2239 
" style="fill:none;stroke:#434348;stroke-linecap:square;"/>
   </g>
   <g id="line2d_19">
    <path clip-path="url(#pae4944b854)" d="M 76.613125 353.2239 
L 82.471514 353.164496 
L 88.329904 352.926567 
L 94.188293 353.208971 
L 117.62185 353.223278 
L 287.515138 353.216332 
L 310.948695 353.178808 
L 316.807085 352.910053 
L 322.665474 353.217369 
L 387.107756 353.208836 
L 398.824534 353.202327 
L 422.258091 353.163486 
L 428.116481 353.082517 
L 439.833259 353.220453 
L 457.408427 353.210044 
L 463.266816 353.114978 
L 469.125206 352.261557 
L 474.983595 353.213416 
L 527.709098 353.179204 
L 533.567487 352.903003 
L 539.425877 353.2239 
L 750.32789 353.161394 
L 756.186279 352.657395 
L 762.044669 353.2239 
L 867.495675 353.15809 
L 873.354065 352.566075 
L 879.212454 352.741113 
L 885.070843 353.195139 
L 890.929232 352.890983 
L 896.787622 352.947892 
L 902.646011 353.2239 
L 908.5044 353.012775 
L 914.362789 353.2239 
L 949.513125 353.2239 
L 949.513125 353.2239 
" style="fill:none;stroke:#90ed7d;stroke-linecap:square;"/>
   </g>
   <g id="line2d_20">
    <path clip-path="url(#pae4944b854)" d="M 76.613125 353.2239 
L 82.471514 353.165114 
L 88.329904 352.960959 
L 94.188293 353.206583 
L 129.338628 353.222533 
L 287.515138 353.220203 
L 310.948695 353.187059 
L 316.807085 352.913383 
L 322.665474 353.218152 
L 416.399702 353.219195 
L 428.116481 353.103959 
L 439.833259 353.219426 
L 457.408427 353.207405 
L 463.266816 353.093357 
L 469.125206 352.210129 
L 474.983595 353.210475 
L 527.709098 353.183003 
L 533.567487 352.932325 
L 539.425877 353.2239 
L 750.32789 353.159621 
L 756.186279 352.688453 
L 762.044669 353.2239 
L 867.495675 353.162842 
L 873.354065 352.627107 
L 879.212454 352.780716 
L 885.070843 353.133893 
L 890.929232 353.109847 
L 896.787622 352.782608 
L 902.646011 353.181571 
L 908.5044 353.067846 
L 914.362789 353.2239 
L 949.513125 353.2239 
L 949.513125 353.2239 
" style="fill:none;stroke:#f7a35c;stroke-linecap:square;"/>
   </g>
   <g id="line2d_21">
    <path clip-path="url(#pae4944b854)" d="M 76.613125 353.2239 
L 82.471514 353.173443 
L 88.329904 352.964794 
L 94.188293 353.210945 
L 123.480239 353.221854 
L 310.948695 353.186744 
L 316.807085 352.931424 
L 322.665474 353.216812 
L 387.107756 353.211356 
L 398.824534 353.202159 
L 422.258091 353.173274 
L 428.116481 353.095464 
L 439.833259 353.219358 
L 457.408427 353.212252 
L 463.266816 353.114523 
L 469.125206 352.324426 
L 474.983595 353.210289 
L 521.850709 353.211901 
L 527.709098 353.185277 
L 533.567487 352.981178 
L 539.425877 353.2239 
L 750.32789 353.15112 
L 756.186279 352.81818 
L 762.044669 353.2239 
L 838.203729 353.2239 
L 867.495675 353.160804 
L 873.354065 352.511633 
L 879.212454 352.635484 
L 885.070843 353.149229 
L 896.787622 352.833564 
L 902.646011 353.164888 
L 908.5044 353.005897 
L 914.362789 353.2239 
L 949.513125 353.2239 
L 949.513125 353.2239 
" style="fill:none;stroke:#8085e9;stroke-linecap:square;"/>
   </g>
   <g id="line2d_22">
    <path clip-path="url(#pae4944b854)" d="M 76.613125 353.2239 
L 82.471514 353.159943 
L 88.329904 352.978088 
L 94.188293 353.206947 
L 111.763461 353.222359 
L 310.948695 353.178006 
L 316.807085 352.881281 
L 322.665474 353.219804 
L 416.399702 353.21972 
L 428.116481 353.104738 
L 439.833259 353.221605 
L 457.408427 353.211466 
L 463.266816 353.112564 
L 469.125206 352.28522 
L 474.983595 353.210307 
L 521.850709 353.22033 
L 527.709098 353.181283 
L 533.567487 352.892977 
L 539.425877 353.2239 
L 750.32789 353.140954 
L 756.186279 352.809295 
L 762.044669 353.2239 
L 867.495675 353.134977 
L 873.354065 352.754463 
L 879.212454 352.727827 
L 885.070843 353.188997 
L 890.929232 353.039638 
L 896.787622 353.029212 
L 902.646011 353.18276 
L 908.5044 352.963662 
L 914.362789 353.2239 
L 949.513125 353.2239 
L 949.513125 353.2239 
" style="fill:none;stroke:#f15c80;stroke-linecap:square;"/>
   </g>
   <g id="line2d_23">
    <path clip-path="url(#pae4944b854)" d="M 76.613125 353.2239 
L 88.329904 352.980134 
L 94.188293 353.210323 
L 117.62185 353.223283 
L 293.373528 353.222643 
L 310.948695 353.181726 
L 316.807085 352.908722 
L 322.665474 353.216126 
L 387.107756 353.207851 
L 404.682924 353.217787 
L 463.266816 353.10772 
L 469.125206 352.253888 
L 474.983595 353.211937 
L 521.850709 353.221345 
L 527.709098 353.185559 
L 533.567487 352.900824 
L 539.425877 353.2239 
L 750.32789 353.190576 
L 756.186279 352.71328 
L 762.044669 353.2239 
L 867.495675 353.205772 
L 873.354065 352.76543 
L 879.212454 352.760804 
L 885.070843 353.160296 
L 896.787622 352.8238 
L 902.646011 353.2239 
L 908.5044 353.093567 
L 914.362789 353.2239 
L 949.513125 353.2239 
L 949.513125 353.2239 
" style="fill:none;stroke:#e4d354;stroke-linecap:square;"/>
   </g>
   <g id="line2d_24">
    <path clip-path="url(#pae4944b854)" d="M 76.613125 353.2239 
L 82.471514 353.163357 
L 88.329904 352.954554 
L 94.188293 353.210484 
L 129.338628 353.222524 
L 228.931246 353.214268 
L 305.090306 353.217904 
L 310.948695 353.182062 
L 316.807085 352.906187 
L 322.665474 353.218877 
L 416.399702 353.219621 
L 428.116481 353.102878 
L 439.833259 353.216522 
L 457.408427 353.212559 
L 463.266816 353.106163 
L 469.125206 352.342652 
L 474.983595 353.210591 
L 521.850709 353.221859 
L 527.709098 353.187282 
L 533.567487 352.939495 
L 539.425877 353.223144 
L 750.32789 353.160308 
L 756.186279 352.712647 
L 762.044669 353.2239 
L 867.495675 353.181069 
L 873.354065 352.726023 
L 879.212454 352.697714 
L 885.070843 353.211265 
L 890.929232 352.863256 
L 896.787622 352.743703 
L 902.646011 353.208938 
L 908.5044 353.034548 
L 914.362789 353.2239 
L 949.513125 353.2239 
L 949.513125 353.2239 
" style="fill:none;stroke:#2b908f;stroke-linecap:square;"/>
   </g>
   <g id="line2d_25">
    <path clip-path="url(#pae4944b854)" d="M 76.613125 353.2239 
L 105.905071 353.2239 
L 310.948695 353.179481 
L 316.807085 352.896085 
L 322.665474 353.215776 
L 404.682924 353.21951 
L 422.258091 353.183066 
L 428.116481 353.093983 
L 439.833259 353.218432 
L 457.408427 353.210302 
L 463.266816 353.096642 
L 469.125206 352.268451 
L 474.983595 353.222507 
L 527.709098 353.178511 
L 533.567487 352.941441 
L 539.425877 353.2239 
L 750.32789 353.16506 
L 756.186279 352.729383 
L 762.044669 353.2239 
L 867.495675 353.211329 
L 873.354065 352.73317 
L 879.212454 352.691783 
L 885.070843 353.209132 
L 890.929232 353.036754 
L 896.787622 352.746739 
L 902.646011 353.189147 
L 908.5044 352.986096 
L 914.362789 353.2239 
L 949.513125 353.2239 
L 949.513125 353.2239 
" style="fill:none;stroke:#f45b5b;stroke-linecap:square;"/>
   </g>
   <g id="line2d_26">
    <path clip-path="url(#pae4944b854)" d="M 76.613125 353.2239 
L 82.471514 353.157168 
L 88.329904 352.929291 
L 94.188293 353.210059 
L 117.62185 353.222911 
L 310.948695 353.176998 
L 316.807085 352.840929 
L 322.665474 353.213583 
L 381.249367 353.215419 
L 463.266816 353.086151 
L 469.125206 352.218434 
L 474.983595 353.210086 
L 527.709098 353.194674 
L 533.567487 352.967491 
L 539.425877 353.2239 
L 750.32789 353.139135 
L 756.186279 352.826105 
L 762.044669 353.2239 
L 867.495675 353.155845 
L 873.354065 352.692606 
L 879.212454 352.693341 
L 885.070843 353.160001 
L 896.787622 352.815437 
L 902.646011 353.2239 
L 908.5044 352.948148 
L 914.362789 353.2239 
L 949.513125 353.2239 
L 949.513125 353.2239 
" style="fill:none;stroke:#91e8e1;stroke-linecap:square;"/>
   </g>
   <g id="line2d_27">
    <path clip-path="url(#pae4944b854)" d="M 76.613125 353.2239 
L 82.471514 353.150967 
L 88.329904 352.873145 
L 94.188293 353.204727 
L 117.62185 353.22202 
L 281.656749 353.206076 
L 310.948695 353.169704 
L 316.807085 352.845721 
L 322.665474 353.219988 
L 416.399702 353.218501 
L 428.116481 353.089431 
L 439.833259 353.220093 
L 457.408427 353.207388 
L 463.266816 353.095473 
L 469.125206 352.165124 
L 474.983595 353.211711 
L 521.850709 353.219437 
L 527.709098 353.178083 
L 533.567487 352.958339 
L 539.425877 353.223209 
L 750.32789 353.161669 
L 756.186279 352.689201 
L 762.044669 353.2239 
L 867.495675 353.18773 
L 873.354065 352.73718 
L 879.212454 352.67327 
L 885.070843 353.209988 
L 896.787622 352.834044 
L 902.646011 353.199864 
L 908.5044 353.039504 
L 914.362789 353.2239 
L 949.513125 353.2239 
L 949.513125 353.2239 
" style="fill:none;stroke:#7cb5ec;stroke-linecap:square;"/>
   </g>
   <g id="line2d_28">
    <path clip-path="url(#pae4944b854)" d="M 76.613125 353.2239 
L 82.471514 353.148166 
L 88.329904 352.905817 
L 94.188293 353.210196 
L 117.62185 353.223179 
L 310.948695 353.169189 
L 316.807085 352.845154 
L 322.665474 353.21196 
L 375.390977 353.217543 
L 463.266816 353.088938 
L 469.125206 352.271904 
L 474.983595 353.211671 
L 521.850709 353.221423 
L 527.709098 353.179347 
L 533.567487 352.909694 
L 539.425877 353.2239 
L 750.32789 353.150413 
L 756.186279 352.647755 
L 762.044669 353.2239 
L 867.495675 353.131104 
L 873.354065 352.736395 
L 879.212454 352.784914 
L 885.070843 353.208534 
L 896.787622 352.715742 
L 902.646011 353.2239 
L 908.5044 353.130745 
L 920.221179 353.2239 
L 949.513125 353.2239 
L 949.513125 353.2239 
" style="fill:none;stroke:#434348;stroke-linecap:square;"/>
   </g>
   <g id="line2d_29">
    <path clip-path="url(#pae4944b854)" d="M 76.613125 353.2239 
L 82.471514 353.14527 
L 88.329904 352.88874 
L 94.188293 353.204734 
L 129.338628 353.2239 
L 310.948695 353.169192 
L 316.807085 352.842041 
L 322.665474 353.219348 
L 416.399702 353.221041 
L 428.116481 353.075424 
L 433.97487 353.204254 
L 457.408427 353.213088 
L 463.266816 353.090393 
L 469.125206 352.161639 
L 474.983595 353.217152 
L 527.709098 353.176765 
L 533.567487 352.907057 
L 539.425877 353.2239 
L 750.32789 353.15666 
L 756.186279 352.588665 
L 762.044669 353.2239 
L 867.495675 353.140833 
L 873.354065 352.596483 
L 879.212454 352.821479 
L 885.070843 353.195096 
L 896.787622 352.864474 
L 902.646011 353.190621 
L 908.5044 353.014984 
L 914.362789 353.2239 
L 949.513125 353.2239 
L 949.513125 353.2239 
" style="fill:none;stroke:#90ed7d;stroke-linecap:square;"/>
   </g>
   <g id="line2d_30">
    <path clip-path="url(#pae4944b854)" d="M 76.613125 353.2239 
L 82.471514 353.182916 
L 88.329904 352.990293 
L 94.188293 353.217752 
L 135.197018 353.219802 
L 269.939971 353.21774 
L 310.948695 353.186144 
L 316.807085 352.905791 
L 322.665474 353.215434 
L 387.107756 353.212372 
L 428.116481 353.063776 
L 433.97487 353.213551 
L 457.408427 353.20145 
L 463.266816 353.111879 
L 469.125206 352.255815 
L 474.983595 353.2239 
L 527.709098 353.180503 
L 533.567487 352.934105 
L 539.425877 353.2239 
L 750.32789 353.123584 
L 756.186279 352.802582 
L 762.044669 353.2239 
L 867.495675 353.167546 
L 873.354065 352.44987 
L 885.070843 353.091123 
L 890.929232 352.803359 
L 896.787622 352.927841 
L 902.646011 353.2239 
L 908.5044 353.05921 
L 914.362789 353.2239 
L 949.513125 353.2239 
L 949.513125 353.2239 
" style="fill:none;stroke:#f7a35c;stroke-linecap:square;"/>
   </g>
   <g id="line2d_31">
    <path clip-path="url(#pae4944b854)" d="M 76.613125 353.2239 
L 82.471514 353.16708 
L 88.329904 352.968382 
L 94.188293 353.212332 
L 117.62185 353.222879 
L 310.948695 353.182747 
L 316.807085 352.933128 
L 322.665474 353.219676 
L 422.258091 353.175938 
L 428.116481 353.100403 
L 439.833259 353.218682 
L 457.408427 353.209593 
L 463.266816 353.094156 
L 469.125206 352.283828 
L 474.983595 353.209556 
L 527.709098 353.184807 
L 533.567487 352.944421 
L 539.425877 353.223215 
L 750.32789 353.144196 
L 756.186279 352.771706 
L 762.044669 353.2239 
L 867.495675 353.187903 
L 873.354065 352.548809 
L 879.212454 352.791748 
L 885.070843 353.2239 
L 896.787622 352.713857 
L 902.646011 353.2239 
L 908.5044 353.03888 
L 914.362789 353.2239 
L 949.513125 353.2239 
L 949.513125 353.2239 
" style="fill:none;stroke:#8085e9;stroke-linecap:square;"/>
   </g>
   <g id="line2d_32">
    <path clip-path="url(#pae4944b854)" d="M 76.613125 353.2239 
L 949.513125 353.2239 
L 949.513125 353.2239 
" style="fill:none;stroke:#f15c80;stroke-linecap:square;"/>
   </g>
   <g id="line2d_33">
    <path clip-path="url(#pae4944b854)" d="M 76.613125 353.2239 
L 310.948695 353.2239 
L 316.807085 349.545843 
L 322.665474 353.2239 
L 949.513125 353.2239 
L 949.513125 353.2239 
" style="fill:none;stroke:#e4d354;stroke-linecap:square;"/>
   </g>
   <g id="line2d_34">
    <path clip-path="url(#pae4944b854)" d="M 76.613125 353.2239 
L 949.513125 353.2239 
L 949.513125 353.2239 
" style="fill:none;stroke:#2b908f;stroke-linecap:square;"/>
   </g>
   <g id="line2d_35">
    <path clip-path="url(#pae4944b854)" d="M 76.613125 353.2239 
L 82.471514 353.2239 
L 88.329904 352.982448 
L 94.188293 353.2239 
L 275.79836 353.2239 
L 281.656749 352.979788 
L 287.515138 353.2239 
L 310.948695 353.2239 
L 316.807085 352.718988 
L 322.665474 353.2239 
L 422.258091 353.2239 
L 428.116481 351.987094 
L 433.97487 353.2239 
L 457.408427 353.2239 
L 463.266816 352.888455 
L 469.125206 350.498654 
L 474.983595 353.2239 
L 867.495675 353.2239 
L 873.354065 352.088303 
L 879.212454 352.061097 
L 885.070843 353.2239 
L 890.929232 352.005631 
L 896.787622 353.2239 
L 949.513125 353.2239 
L 949.513125 353.2239 
" style="fill:none;stroke:#f45b5b;stroke-linecap:square;"/>
   </g>
   <g id="line2d_36">
    <path clip-path="url(#pae4944b854)" d="M 76.613125 353.2239 
L 949.513125 353.2239 
L 949.513125 353.2239 
" style="fill:none;stroke:#91e8e1;stroke-linecap:square;"/>
   </g>
   <g id="line2d_37">
    <path clip-path="url(#pae4944b854)" d="M 76.613125 353.2239 
L 240.648024 353.2239 
L 246.506414 352.975458 
L 252.364803 353.2239 
L 310.948695 353.2239 
L 316.807085 352.70311 
L 322.665474 353.2239 
L 416.399702 353.2239 
L 422.258091 352.904815 
L 428.116481 353.2239 
L 463.266816 353.2239 
L 469.125206 351.428691 
L 474.983595 353.2239 
L 521.850709 353.2239 
L 527.709098 352.80378 
L 533.567487 352.796897 
L 539.425877 353.2239 
L 750.32789 353.2239 
L 756.186279 350.672334 
L 762.044669 353.2239 
L 873.354065 353.2239 
L 879.212454 351.865642 
L 885.070843 353.2239 
L 949.513125 353.2239 
L 949.513125 353.2239 
" style="fill:none;stroke:#7cb5ec;stroke-linecap:square;"/>
   </g>
   <g id="line2d_38">
    <path clip-path="url(#pae4944b854)" d="M 76.613125 353.2239 
L 949.513125 353.2239 
L 949.513125 353.2239 
" style="fill:none;stroke:#434348;stroke-linecap:square;"/>
   </g>
   <g id="line2d_39">
    <path clip-path="url(#pae4944b854)" d="M 76.613125 353.2239 
L 463.266816 353.2239 
L 469.125206 344.152082 
L 474.983595 353.2239 
L 949.513125 353.2239 
L 949.513125 353.2239 
" style="fill:none;stroke:#90ed7d;stroke-linecap:square;"/>
   </g>
   <g id="line2d_40">
    <path clip-path="url(#pae4944b854)" d="M 76.613125 353.2239 
L 82.471514 353.2239 
L 88.329904 352.276673 
L 94.188293 353.2239 
L 269.939971 353.2239 
L 275.79836 352.906915 
L 281.656749 353.2239 
L 310.948695 353.2239 
L 316.807085 352.897812 
L 322.665474 353.2239 
L 463.266816 353.2239 
L 469.125206 352.332362 
L 474.983595 353.2239 
L 615.584937 353.2239 
L 621.443326 352.476446 
L 627.301716 353.2239 
L 867.495675 353.2239 
L 873.354065 349.029069 
L 879.212454 353.2239 
L 890.929232 353.2239 
L 896.787622 350.890193 
L 902.646011 353.2239 
L 949.513125 353.2239 
L 949.513125 353.2239 
" style="fill:none;stroke:#f7a35c;stroke-linecap:square;"/>
   </g>
   <g id="line2d_41">
    <path clip-path="url(#pae4944b854)" d="M 76.613125 353.2239 
L 240.648024 353.2239 
L 246.506414 353.031373 
L 252.364803 353.2239 
L 269.939971 353.2239 
L 275.79836 353.030453 
L 281.656749 353.2239 
L 310.948695 353.2239 
L 316.807085 352.624752 
L 322.665474 353.2239 
L 404.682924 353.2239 
L 410.541313 352.986202 
L 416.399702 353.2239 
L 422.258091 353.2239 
L 428.116481 352.974591 
L 433.97487 353.2239 
L 451.550038 353.2239 
L 457.408427 352.951854 
L 463.266816 353.2239 
L 469.125206 352.096106 
L 474.983595 353.2239 
L 515.99232 353.2239 
L 521.850709 352.888614 
L 527.709098 353.2239 
L 533.567487 352.873965 
L 539.425877 353.2239 
L 867.495675 353.2239 
L 873.354065 350.854542 
L 879.212454 353.2239 
L 949.513125 353.2239 
L 949.513125 353.2239 
" style="fill:none;stroke:#8085e9;stroke-linecap:square;"/>
   </g>
   <g id="line2d_42">
    <path clip-path="url(#pae4944b854)" d="M 76.613125 353.2239 
L 463.266816 353.2239 
L 469.125206 351.97206 
L 474.983595 353.2239 
L 879.212454 353.2239 
L 885.070843 349.134278 
L 890.929232 353.2239 
L 896.787622 348.947262 
L 902.646011 353.2239 
L 908.5044 348.764322 
L 914.362789 353.2239 
L 949.513125 353.2239 
L 949.513125 353.2239 
" style="fill:none;stroke:#f15c80;stroke-linecap:square;"/>
   </g>
   <g id="line2d_43">
    <path clip-path="url(#pae4944b854)" d="M 76.613125 353.2239 
L 82.471514 353.17782 
L 88.329904 352.928988 
L 94.188293 353.214684 
L 117.62185 353.2239 
L 187.922521 353.2239 
L 310.948695 353.180571 
L 316.807085 352.685089 
L 322.665474 353.214105 
L 381.249367 353.201809 
L 422.258091 353.156285 
L 428.116481 353.073932 
L 433.97487 353.211192 
L 457.408427 353.2239 
L 463.266816 353.092282 
L 469.125206 351.926502 
L 474.983595 353.216721 
L 527.709098 353.138941 
L 533.567487 352.80817 
L 539.425877 353.2239 
L 744.469501 353.205446 
L 750.32789 353.091707 
L 756.186279 352.663486 
L 762.044669 353.2239 
L 867.495675 353.161278 
L 873.354065 352.677094 
L 879.212454 352.893446 
L 885.070843 353.2239 
L 890.929232 352.874971 
L 896.787622 352.148386 
L 902.646011 353.187068 
L 908.5044 353.035087 
L 914.362789 353.2239 
L 949.513125 353.2239 
L 949.513125 353.2239 
" style="fill:none;stroke:#e4d354;stroke-linecap:square;"/>
   </g>
   <g id="line2d_44">
    <path clip-path="url(#pae4944b854)" d="M 76.613125 353.2239 
L 82.471514 353.2239 
L 88.329904 351.67799 
L 94.188293 352.966248 
L 100.046682 353.2239 
L 223.072857 353.2239 
L 228.931246 352.966248 
L 234.789635 353.2239 
L 240.648024 353.2239 
L 246.506414 352.966248 
L 252.364803 353.2239 
L 269.939971 353.2239 
L 275.79836 352.965211 
L 281.656749 353.2239 
L 310.948695 353.2239 
L 316.807085 352.693113 
L 328.523863 353.2239 
L 387.107756 353.2239 
L 392.966145 352.643348 
L 398.824534 353.2239 
L 404.682924 353.2239 
L 410.541313 352.925381 
L 416.399702 353.2239 
L 422.258091 353.2239 
L 428.116481 352.608815 
L 433.97487 353.2239 
L 463.266816 353.2239 
L 469.125206 352.229576 
L 474.983595 352.889038 
L 480.841984 353.2239 
L 486.700373 352.881925 
L 492.558763 353.2239 
L 750.32789 353.2239 
L 756.186279 351.923684 
L 762.044669 353.2239 
L 867.495675 353.2239 
L 879.212454 351.236912 
L 885.070843 353.2239 
L 896.787622 353.2239 
L 902.646011 352.14127 
L 908.5044 352.118885 
L 914.362789 353.2239 
L 949.513125 353.2239 
L 949.513125 353.2239 
" style="fill:none;stroke:#2b908f;stroke-linecap:square;"/>
   </g>
   <g id="line2d_45">
    <path clip-path="url(#pae4944b854)" d="M 76.613125 353.2239 
L 305.090306 353.2239 
L 310.948695 352.519493 
L 316.807085 353.2239 
L 463.266816 353.2239 
L 469.125206 351.184663 
L 474.983595 353.2239 
L 902.646011 353.2239 
L 908.5044 346.444186 
L 914.362789 353.2239 
L 949.513125 353.2239 
L 949.513125 353.2239 
" style="fill:none;stroke:#f45b5b;stroke-linecap:square;"/>
   </g>
   <g id="line2d_46">
    <path clip-path="url(#pae4944b854)" d="M 76.613125 353.2239 
L 82.471514 353.2239 
L 88.329904 352.928425 
L 94.188293 353.2239 
L 152.772185 353.2239 
L 158.630575 353.076163 
L 164.488964 353.2239 
L 305.090306 353.2239 
L 310.948695 353.07029 
L 328.523863 353.2239 
L 463.266816 353.112967 
L 469.125206 352.884631 
L 474.983595 353.2239 
L 521.850709 353.2239 
L 533.567487 352.652259 
L 539.425877 353.2239 
L 615.584937 353.2239 
L 621.443326 353.017555 
L 627.301716 353.2239 
L 750.32789 353.2239 
L 756.186279 352.445285 
L 762.044669 353.2239 
L 873.354065 353.2239 
L 879.212454 352.467104 
L 885.070843 353.2239 
L 890.929232 352.414309 
L 896.787622 352.384935 
L 902.646011 353.2239 
L 949.513125 353.2239 
L 949.513125 353.2239 
" style="fill:none;stroke:#91e8e1;stroke-linecap:square;"/>
   </g>
   <g id="line2d_47">
    <path clip-path="url(#pae4944b854)" d="M 76.613125 353.2239 
L 463.266816 353.2239 
L 469.125206 352.021072 
L 474.983595 353.2239 
L 867.495675 353.2239 
L 873.354065 346.613345 
L 879.212454 353.2239 
L 949.513125 353.2239 
L 949.513125 353.2239 
" style="fill:none;stroke:#7cb5ec;stroke-linecap:square;"/>
   </g>
   <g id="line2d_48">
    <path clip-path="url(#pae4944b854)" d="M 76.613125 353.2239 
L 949.513125 353.2239 
L 949.513125 353.2239 
" style="fill:none;stroke:#434348;stroke-linecap:square;"/>
   </g>
   <g id="line2d_49">
    <path clip-path="url(#pae4944b854)" d="M 76.613125 353.2239 
L 949.513125 353.2239 
L 949.513125 353.2239 
" style="fill:none;stroke:#90ed7d;stroke-linecap:square;"/>
   </g>
   <g id="line2d_50">
    <path clip-path="url(#pae4944b854)" d="M 76.613125 353.2239 
L 310.948695 353.2239 
L 316.807085 350.642992 
L 322.665474 353.2239 
L 463.266816 353.2239 
L 469.125206 349.320054 
L 474.983595 353.2239 
L 527.709098 353.2239 
L 533.567487 348.074618 
L 539.425877 353.2239 
L 949.513125 353.2239 
L 949.513125 353.2239 
" style="fill:none;stroke:#f7a35c;stroke-linecap:square;"/>
   </g>
   <g id="line2d_51">
    <path clip-path="url(#pae4944b854)" d="M 76.613125 353.2239 
L 82.471514 353.2239 
L 88.329904 353.021534 
L 94.188293 353.2239 
L 305.090306 353.2239 
L 310.948695 352.804237 
L 316.807085 352.167636 
L 322.665474 353.2239 
L 457.408427 353.2239 
L 463.266816 352.668473 
L 469.125206 352.378315 
L 474.983595 353.2239 
L 527.709098 353.2239 
L 533.567487 352.890408 
L 539.425877 353.2239 
L 750.32789 353.2239 
L 756.186279 352.578997 
L 762.044669 353.2239 
L 879.212454 353.2239 
L 885.070843 352.162593 
L 890.929232 353.2239 
L 902.646011 353.2239 
L 908.5044 352.072888 
L 914.362789 353.2239 
L 949.513125 353.2239 
L 949.513125 353.2239 
" style="fill:none;stroke:#8085e9;stroke-linecap:square;"/>
   </g>
   <g id="line2d_52">
    <path clip-path="url(#pae4944b854)" d="M 76.613125 353.2239 
L 949.513125 353.2239 
L 949.513125 353.2239 
" style="fill:none;stroke:#f15c80;stroke-linecap:square;"/>
   </g>
   <g id="line2d_53">
    <path clip-path="url(#pae4944b854)" d="M 76.613125 353.2239 
L 82.471514 353.2239 
L 88.329904 352.558488 
L 94.188293 353.2239 
L 310.948695 353.2239 
L 316.807085 352.986628 
L 322.665474 353.2239 
L 392.966145 353.2239 
L 398.824534 352.938573 
L 404.682924 353.2239 
L 422.258091 353.2239 
L 428.116481 352.914938 
L 433.97487 353.2239 
L 463.266816 353.2239 
L 469.125206 351.155028 
L 474.983595 353.2239 
L 527.709098 353.2239 
L 533.567487 351.983532 
L 539.425877 353.2239 
L 750.32789 353.2239 
L 756.186279 349.203061 
L 762.044669 353.2239 
L 861.637286 353.2239 
L 873.354065 350.784093 
L 879.212454 353.2239 
L 885.070843 351.954565 
L 890.929232 353.2239 
L 949.513125 353.2239 
L 949.513125 353.2239 
" style="fill:none;stroke:#e4d354;stroke-linecap:square;"/>
   </g>
   <g id="line2d_54">
    <path clip-path="url(#pae4944b854)" d="M 76.613125 353.2239 
L 310.948695 353.2239 
L 316.807085 352.316973 
L 322.665474 353.2239 
L 463.266816 353.2239 
L 469.125206 352.010744 
L 474.983595 353.2239 
L 867.495675 353.2239 
L 873.354065 349.415903 
L 879.212454 349.291087 
L 885.070843 353.2239 
L 949.513125 353.2239 
L 949.513125 353.2239 
" style="fill:none;stroke:#2b908f;stroke-linecap:square;"/>
   </g>
   <g id="line2d_55">
    <path clip-path="url(#pae4944b854)" d="M 76.613125 353.2239 
L 82.471514 353.07084 
L 88.329904 352.203503 
L 94.188293 353.19839 
L 105.905071 353.2239 
L 240.648024 353.2239 
L 246.506414 353.09635 
L 299.231917 353.2239 
L 310.948695 353.093866 
L 316.807085 351.840936 
L 322.665474 353.2239 
L 416.399702 353.2239 
L 428.116481 352.891196 
L 433.97487 353.2239 
L 457.408427 353.149071 
L 463.266816 352.997841 
L 469.125206 350.005937 
L 474.983595 353.193333 
L 498.417152 353.2239 
L 521.850709 353.207679 
L 527.709098 353.093122 
L 533.567487 352.103552 
L 539.425877 353.2239 
L 580.434602 353.188765 
L 603.868159 353.2239 
L 744.469501 353.200784 
L 750.32789 352.943167 
L 756.186279 351.518937 
L 762.044669 353.2239 
L 867.495675 353.192298 
L 873.354065 350.620066 
L 879.212454 351.163092 
L 885.070843 353.090704 
L 896.787622 351.674569 
L 902.646011 353.2239 
L 908.5044 352.514081 
L 914.362789 353.2239 
L 949.513125 353.2239 
L 949.513125 353.2239 
" style="fill:none;stroke:#f45b5b;stroke-linecap:square;"/>
   </g>
   <g id="line2d_56">
    <path clip-path="url(#pae4944b854)" d="M 76.613125 353.2239 
L 82.471514 353.2239 
L 88.329904 352.680551 
L 94.188293 353.2239 
L 275.79836 353.2239 
L 281.656749 352.676387 
L 287.515138 353.2239 
L 310.948695 353.2239 
L 316.807085 351.533328 
L 322.665474 353.2239 
L 422.258091 353.2239 
L 428.116481 352.534615 
L 433.97487 353.2239 
L 527.709098 353.2239 
L 533.567487 352.3102 
L 539.425877 353.2239 
L 949.513125 353.2239 
L 949.513125 353.2239 
" style="fill:none;stroke:#91e8e1;stroke-linecap:square;"/>
   </g>
   <g id="line2d_57">
    <path clip-path="url(#pae4944b854)" d="M 76.613125 353.2239 
L 240.648024 353.2239 
L 246.506414 352.10822 
L 252.364803 353.2239 
L 416.399702 353.2239 
L 422.258091 351.875722 
L 428.116481 353.2239 
L 463.266816 353.2239 
L 469.125206 350.203541 
L 474.983595 353.2239 
L 949.513125 353.2239 
L 949.513125 353.2239 
" style="fill:none;stroke:#7cb5ec;stroke-linecap:square;"/>
   </g>
   <g id="line2d_58">
    <path clip-path="url(#pae4944b854)" d="M 76.613125 353.2239 
L 949.513125 353.2239 
L 949.513125 353.2239 
" style="fill:none;stroke:#434348;stroke-linecap:square;"/>
   </g>
   <g id="line2d_59">
    <path clip-path="url(#pae4944b854)" d="M 76.613125 353.2239 
L 82.471514 353.2239 
L 88.329904 352.388458 
L 94.188293 353.2239 
L 422.258091 353.2239 
L 428.116481 352.175019 
L 433.97487 353.2239 
L 949.513125 353.2239 
L 949.513125 353.2239 
" style="fill:none;stroke:#90ed7d;stroke-linecap:square;"/>
   </g>
   <g id="line2d_60">
    <path clip-path="url(#pae4944b854)" d="M 76.613125 353.2239 
L 310.948695 353.2239 
L 316.807085 351.460348 
L 322.665474 353.2239 
L 949.513125 353.2239 
L 949.513125 353.2239 
" style="fill:none;stroke:#f7a35c;stroke-linecap:square;"/>
   </g>
   <g id="line2d_61">
    <path clip-path="url(#pae4944b854)" d="M 76.613125 353.2239 
L 310.948695 353.2239 
L 316.807085 351.151435 
L 322.665474 353.2239 
L 463.266816 353.2239 
L 469.125206 350.667374 
L 474.983595 353.2239 
L 949.513125 353.2239 
L 949.513125 353.2239 
" style="fill:none;stroke:#8085e9;stroke-linecap:square;"/>
   </g>
   <g id="line2d_62">
    <path clip-path="url(#pae4944b854)" d="M 76.613125 353.2239 
L 949.513125 353.2239 
L 949.513125 353.2239 
" style="fill:none;stroke:#f15c80;stroke-linecap:square;"/>
   </g>
   <g id="line2d_63">
    <path clip-path="url(#pae4944b854)" d="M 76.613125 353.2239 
L 82.471514 353.093791 
L 88.329904 352.703462 
L 94.188293 353.2239 
L 100.046682 353.093791 
L 105.905071 353.2239 
L 129.338628 353.2239 
L 135.197018 353.093791 
L 141.055407 353.2239 
L 193.78091 353.2239 
L 199.639299 353.093791 
L 205.497689 353.2239 
L 305.090306 353.2239 
L 310.948695 352.954156 
L 316.807085 352.816649 
L 322.665474 353.2239 
L 422.258091 353.2239 
L 428.116481 353.057315 
L 433.97487 353.2239 
L 457.408427 353.2239 
L 463.266816 353.042162 
L 469.125206 352.117346 
L 474.983595 353.2239 
L 527.709098 353.2239 
L 533.567487 352.338995 
L 539.425877 353.2239 
L 750.32789 353.2239 
L 756.186279 351.764325 
L 762.044669 353.2239 
L 867.495675 353.2239 
L 873.354065 352.394671 
L 879.212454 352.371784 
L 885.070843 353.2239 
L 890.929232 352.32199 
L 896.787622 353.2239 
L 949.513125 353.2239 
L 949.513125 353.2239 
" style="fill:none;stroke:#e4d354;stroke-linecap:square;"/>
   </g>
   <g id="line2d_64">
    <path clip-path="url(#pae4944b854)" d="M 76.613125 353.2239 
L 310.948695 353.2239 
L 316.807085 352.286772 
L 322.665474 353.2239 
L 387.107756 353.2239 
L 392.966145 352.18665 
L 398.824534 353.2239 
L 416.399702 353.2239 
L 422.258091 352.125378 
L 428.116481 353.2239 
L 890.929232 353.2239 
L 896.787622 348.527182 
L 902.646011 353.2239 
L 908.5044 348.324547 
L 914.362789 353.2239 
L 949.513125 353.2239 
L 949.513125 353.2239 
" style="fill:none;stroke:#2b908f;stroke-linecap:square;"/>
   </g>
   <g id="line2d_65">
    <path clip-path="url(#pae4944b854)" d="M 76.613125 353.2239 
L 82.471514 353.20261 
L 88.329904 353.039383 
L 94.188293 353.2239 
L 182.064132 353.2239 
L 310.948695 353.194103 
L 316.807085 352.960694 
L 322.665474 353.2239 
L 463.266816 353.165687 
L 469.125206 352.175769 
L 474.983595 353.211717 
L 527.709098 353.163389 
L 533.567487 352.960351 
L 539.425877 353.2239 
L 750.32789 353.183386 
L 756.186279 352.682827 
L 762.044669 353.2239 
L 867.495675 353.150613 
L 873.354065 352.769763 
L 885.070843 353.2239 
L 890.929232 353.140472 
L 896.787622 352.534863 
L 902.646011 353.2239 
L 908.5044 353.040625 
L 914.362789 353.2239 
L 949.513125 353.2239 
L 949.513125 353.2239 
" style="fill:none;stroke:#f45b5b;stroke-linecap:square;"/>
   </g>
   <g id="line2d_66">
    <path clip-path="url(#pae4944b854)" d="M 76.613125 353.2239 
L 422.258091 353.2239 
L 428.116481 348.518489 
L 433.97487 353.2239 
L 949.513125 353.2239 
L 949.513125 353.2239 
" style="fill:none;stroke:#91e8e1;stroke-linecap:square;"/>
   </g>
   <g id="line2d_67">
    <path clip-path="url(#pae4944b854)" d="M 76.613125 353.2239 
L 310.948695 353.2239 
L 316.807085 352.446945 
L 322.665474 353.2239 
L 463.266816 353.2239 
L 469.125206 351.10905 
L 474.983595 353.2239 
L 902.646011 353.2239 
L 908.5044 348.062084 
L 914.362789 353.2239 
L 949.513125 353.2239 
L 949.513125 353.2239 
" style="fill:none;stroke:#7cb5ec;stroke-linecap:square;"/>
   </g>
   <g id="line2d_68">
    <path clip-path="url(#pae4944b854)" d="M 76.613125 353.2239 
L 240.648024 353.2239 
L 246.506414 353.109776 
L 252.364803 353.2239 
L 310.948695 353.2239 
L 316.807085 352.505706 
L 322.665474 353.2239 
L 387.107756 353.2239 
L 392.966145 353.084584 
L 398.824534 353.2239 
L 416.399702 353.2239 
L 422.258091 353.072302 
L 428.116481 353.2239 
L 463.266816 353.2239 
L 469.125206 352.688841 
L 474.983595 353.2239 
L 527.709098 353.2239 
L 533.567487 352.750134 
L 539.425877 353.2239 
L 738.611112 353.2239 
L 744.469501 352.458449 
L 750.32789 353.2239 
L 756.186279 351.584253 
L 762.044669 353.2239 
L 867.495675 353.2239 
L 873.354065 351.505156 
L 879.212454 353.2239 
L 949.513125 353.2239 
L 949.513125 353.2239 
" style="fill:none;stroke:#434348;stroke-linecap:square;"/>
   </g>
   <g id="line2d_69">
    <path clip-path="url(#pae4944b854)" d="M 76.613125 353.2239 
L 310.948695 353.2239 
L 316.807085 352.128023 
L 322.665474 353.2239 
L 463.266816 353.2239 
L 469.125206 351.750118 
L 474.983595 353.2239 
L 949.513125 353.2239 
L 949.513125 353.2239 
" style="fill:none;stroke:#90ed7d;stroke-linecap:square;"/>
   </g>
   <g id="line2d_70">
    <path clip-path="url(#pae4944b854)" d="M 76.613125 353.2239 
L 82.471514 353.2239 
L 88.329904 352.561388 
L 94.188293 353.129256 
L 310.948695 353.2239 
L 316.807085 352.730398 
L 322.665474 353.2239 
L 387.107756 353.2239 
L 392.966145 353.110358 
L 398.824534 353.2239 
L 451.550038 353.2239 
L 457.408427 353.086093 
L 463.266816 353.2239 
L 469.125206 353.079876 
L 474.983595 353.2239 
L 527.709098 353.2239 
L 533.567487 352.653724 
L 539.425877 353.2239 
L 885.070843 353.2239 
L 890.929232 351.595382 
L 896.787622 351.528972 
L 902.646011 353.2239 
L 949.513125 353.2239 
L 949.513125 353.2239 
" style="fill:none;stroke:#f7a35c;stroke-linecap:square;"/>
   </g>
   <g id="line2d_71">
    <path clip-path="url(#pae4944b854)" d="M 76.613125 353.2239 
L 82.471514 353.125011 
L 88.329904 352.725652 
L 94.188293 353.193473 
L 223.072857 353.216293 
L 305.090306 353.212274 
L 310.948695 353.177211 
L 316.807085 352.860425 
L 322.665474 353.2239 
L 422.258091 353.164402 
L 428.116481 353.038509 
L 433.97487 353.209814 
L 457.408427 353.209024 
L 463.266816 353.067951 
L 469.125206 352.355981 
L 474.983595 353.218717 
L 527.709098 353.187814 
L 533.567487 352.942301 
L 539.425877 353.2239 
L 750.32789 353.20923 
L 756.186279 352.891547 
L 762.044669 353.2239 
L 867.495675 353.195576 
L 873.354065 352.842223 
L 879.212454 352.919483 
L 885.070843 353.192314 
L 896.787622 352.85059 
L 902.646011 353.188728 
L 908.5044 353.005324 
L 914.362789 353.2239 
L 949.513125 353.2239 
L 949.513125 353.2239 
" style="fill:none;stroke:#8085e9;stroke-linecap:square;"/>
   </g>
   <g id="line2d_72">
    <path clip-path="url(#pae4944b854)" d="M 76.613125 353.2239 
L 949.513125 353.2239 
L 949.513125 353.2239 
" style="fill:none;stroke:#f15c80;stroke-linecap:square;"/>
   </g>
   <g id="line2d_73">
    <path clip-path="url(#pae4944b854)" d="M 76.613125 353.2239 
L 88.329904 352.832048 
L 94.188293 353.2239 
L 100.046682 353.027974 
L 105.905071 353.2239 
L 240.648024 353.2239 
L 246.506414 353.027974 
L 252.364803 353.2239 
L 310.948695 353.2239 
L 316.807085 353.019924 
L 322.665474 353.2239 
L 369.532588 353.2239 
L 375.390977 352.998343 
L 381.249367 353.2239 
L 387.107756 353.2239 
L 392.966145 352.989479 
L 398.824534 353.2239 
L 422.258091 353.2239 
L 428.116481 352.451161 
L 433.97487 353.2239 
L 451.550038 353.2239 
L 457.408427 352.940771 
L 463.266816 353.2239 
L 469.125206 352.928733 
L 474.983595 353.2239 
L 521.850709 353.2239 
L 527.709098 352.853502 
L 533.567487 352.0845 
L 539.425877 353.2239 
L 744.469501 353.2239 
L 750.32789 351.08306 
L 756.186279 353.2239 
L 873.354065 353.2239 
L 879.212454 351.11396 
L 885.070843 353.2239 
L 890.929232 350.997234 
L 896.787622 350.926441 
L 902.646011 353.2239 
L 949.513125 353.2239 
L 949.513125 353.2239 
" style="fill:none;stroke:#e4d354;stroke-linecap:square;"/>
   </g>
   <g id="line2d_74">
    <path clip-path="url(#pae4944b854)" d="M 76.613125 353.2239 
L 82.471514 353.025952 
L 88.329904 351.706296 
L 94.188293 353.2239 
L 240.648024 353.2239 
L 246.506414 353.025952 
L 258.223192 353.2239 
L 305.090306 353.2239 
L 310.948695 353.089674 
L 316.807085 352.079571 
L 322.665474 353.2239 
L 422.258091 353.150271 
L 428.116481 352.8532 
L 433.97487 353.2239 
L 463.266816 353.146507 
L 469.125206 350.103966 
L 474.983595 353.145253 
L 486.700373 353.2239 
L 521.850709 353.2239 
L 527.709098 353.054624 
L 533.567487 352.711682 
L 539.425877 353.2239 
L 744.469501 353.2239 
L 750.32789 352.971123 
L 756.186279 352.455397 
L 762.044669 353.2239 
L 867.495675 353.2239 
L 873.354065 352.004531 
L 879.212454 351.451451 
L 885.070843 353.2239 
L 890.929232 351.755689 
L 896.787622 350.799585 
L 902.646011 353.2239 
L 908.5044 352.455327 
L 914.362789 353.2239 
L 949.513125 353.2239 
L 949.513125 353.2239 
" style="fill:none;stroke:#2b908f;stroke-linecap:square;"/>
   </g>
   <g id="line2d_75">
    <path clip-path="url(#pae4944b854)" d="M 76.613125 353.2239 
L 88.329904 353.014961 
L 94.188293 353.2239 
L 100.046682 353.014961 
L 105.905071 353.2239 
L 305.090306 353.2239 
L 316.807085 352.787827 
L 322.665474 353.2239 
L 346.099031 353.2239 
L 351.95742 353.109056 
L 357.81581 353.2239 
L 451.550038 353.2239 
L 457.408427 353.073663 
L 463.266816 353.070688 
L 469.125206 352.44292 
L 474.983595 353.2239 
L 510.13393 353.2239 
L 515.99232 353.037518 
L 521.850709 353.2239 
L 527.709098 353.2239 
L 533.567487 352.824881 
L 539.425877 353.2239 
L 732.752722 353.2239 
L 738.611112 352.721819 
L 744.469501 353.2239 
L 750.32789 353.2239 
L 756.186279 352.680922 
L 762.044669 353.2239 
L 867.495675 353.2239 
L 873.354065 352.261379 
L 879.212454 352.23025 
L 885.070843 353.2239 
L 890.929232 353.2239 
L 896.787622 352.132729 
L 902.646011 353.2239 
L 949.513125 353.2239 
L 949.513125 353.2239 
" style="fill:none;stroke:#f45b5b;stroke-linecap:square;"/>
   </g>
   <g id="line2d_76">
    <path clip-path="url(#pae4944b854)" d="M 76.613125 353.2239 
L 82.471514 353.2239 
L 88.329904 352.711131 
L 94.188293 353.2239 
L 240.648024 353.2239 
L 246.506414 352.711131 
L 252.364803 353.2239 
L 281.656749 353.2239 
L 287.515138 352.963846 
L 293.373528 353.2239 
L 310.948695 353.2239 
L 316.807085 352.956577 
L 322.665474 353.2239 
L 375.390977 353.2239 
L 381.249367 352.927219 
L 387.107756 353.2239 
L 457.408427 353.2239 
L 463.266816 352.863617 
L 469.125206 351.759619 
L 474.983595 353.2239 
L 527.709098 353.2239 
L 533.567487 352.784808 
L 539.425877 353.2239 
L 873.354065 353.2239 
L 879.212454 351.625672 
L 885.070843 353.2239 
L 902.646011 353.2239 
L 908.5044 351.418287 
L 914.362789 353.2239 
L 949.513125 353.2239 
L 949.513125 353.2239 
" style="fill:none;stroke:#91e8e1;stroke-linecap:square;"/>
   </g>
   <g id="line2d_77">
    <path clip-path="url(#pae4944b854)" d="M 76.613125 353.2239 
L 82.471514 353.158425 
L 88.329904 352.438201 
L 94.188293 353.158425 
L 105.905071 353.2239 
L 146.913796 353.2239 
L 152.772185 353.092951 
L 158.630575 353.2239 
L 310.948695 353.2239 
L 316.807085 352.886035 
L 322.665474 353.2239 
L 416.399702 353.2239 
L 428.116481 352.900926 
L 433.97487 353.2239 
L 457.408427 353.2239 
L 463.266816 352.871434 
L 469.125206 351.52382 
L 474.983595 353.2239 
L 521.850709 353.2239 
L 527.709098 353.011482 
L 533.567487 352.574953 
L 539.425877 353.2239 
L 656.593662 353.2239 
L 662.452051 353.055885 
L 668.31044 353.2239 
L 744.469501 353.2239 
L 750.32789 352.762408 
L 756.186279 352.045587 
L 762.044669 353.2239 
L 767.903058 353.2239 
L 773.761447 352.972084 
L 779.619836 353.2239 
L 867.495675 353.2239 
L 873.354065 351.371266 
L 879.212454 350.562603 
L 885.070843 353.2239 
L 890.929232 352.424433 
L 896.787622 351.997014 
L 902.646011 353.2239 
L 908.5044 351.94675 
L 914.362789 353.2239 
L 949.513125 353.2239 
L 949.513125 353.2239 
" style="fill:none;stroke:#7cb5ec;stroke-linecap:square;"/>
   </g>
   <g id="line2d_78">
    <path clip-path="url(#pae4944b854)" d="M 76.613125 353.2239 
L 82.471514 353.2239 
L 88.329904 351.064522 
L 94.188293 353.2239 
L 463.266816 353.2239 
L 469.125206 350.337221 
L 474.983595 353.2239 
L 949.513125 353.2239 
L 949.513125 353.2239 
" style="fill:none;stroke:#434348;stroke-linecap:square;"/>
   </g>
   <g id="line2d_79">
    <path clip-path="url(#pae4944b854)" d="M 76.613125 353.2239 
L 750.32789 353.2239 
L 756.186279 338.189928 
L 762.044669 353.2239 
L 885.070843 353.2239 
L 890.929232 326.391153 
L 896.787622 353.2239 
L 949.513125 353.2239 
L 949.513125 353.2239 
" style="fill:none;stroke:#90ed7d;stroke-linecap:square;"/>
   </g>
   <g id="line2d_80">
    <path clip-path="url(#pae4944b854)" d="M 76.613125 353.2239 
L 949.513125 353.2239 
L 949.513125 353.2239 
" style="fill:none;stroke:#f7a35c;stroke-linecap:square;"/>
   </g>
   <g id="line2d_81">
    <path clip-path="url(#pae4944b854)" d="M 76.613125 353.2239 
L 463.266816 353.2239 
L 469.125206 352.578934 
L 474.983595 353.2239 
L 744.469501 353.2239 
L 750.32789 351.024954 
L 756.186279 353.2239 
L 949.513125 353.2239 
L 949.513125 353.2239 
" style="fill:none;stroke:#8085e9;stroke-linecap:square;"/>
   </g>
   <g id="line2d_82">
    <path clip-path="url(#pae4944b854)" d="M 76.613125 353.2239 
L 310.948695 353.150334 
L 316.807085 352.753637 
L 322.665474 353.2239 
L 422.258091 353.192356 
L 428.116481 353.095639 
L 433.97487 353.2239 
L 457.408427 353.2239 
L 463.266816 353.081345 
L 469.125206 352.316133 
L 474.983595 353.2239 
L 527.709098 353.2239 
L 533.567487 352.953214 
L 539.425877 353.2239 
L 750.32789 353.116654 
L 756.186279 352.78392 
L 762.044669 353.2239 
L 867.495675 353.2239 
L 879.212454 352.430742 
L 885.070843 353.2239 
L 896.787622 352.354035 
L 902.646011 352.999924 
L 908.5044 353.2239 
L 949.513125 353.2239 
L 949.513125 353.2239 
" style="fill:none;stroke:#f15c80;stroke-linecap:square;"/>
   </g>
   <g id="line2d_83">
    <path clip-path="url(#pae4944b854)" d="M 76.613125 353.2239 
L 82.471514 353.2239 
L 88.329904 352.951574 
L 94.188293 353.2239 
L 240.648024 353.2239 
L 246.506414 352.951574 
L 252.364803 353.2239 
L 310.948695 353.2239 
L 316.807085 352.382417 
L 322.665474 353.2239 
L 416.399702 353.2239 
L 422.258091 352.902882 
L 428.116481 352.89926 
L 433.97487 353.2239 
L 463.266816 353.2239 
L 469.125206 350.432567 
L 474.983595 353.2239 
L 527.709098 353.2239 
L 533.567487 352.828663 
L 539.425877 353.2239 
L 750.32789 353.2239 
L 756.186279 352.56708 
L 762.044669 353.2239 
L 767.903058 353.2239 
L 773.761447 352.535735 
L 779.619836 353.2239 
L 861.637286 353.2239 
L 873.354065 351.324168 
L 879.212454 351.283297 
L 885.070843 353.2239 
L 890.929232 352.20803 
L 896.787622 352.183769 
L 902.646011 353.2239 
L 949.513125 353.2239 
L 949.513125 353.2239 
" style="fill:none;stroke:#e4d354;stroke-linecap:square;"/>
   </g>
   <g id="line2d_84">
    <path clip-path="url(#pae4944b854)" d="M 76.613125 353.2239 
L 463.266816 353.2239 
L 469.125206 350.911408 
L 474.983595 353.2239 
L 949.513125 353.2239 
L 949.513125 353.2239 
" style="fill:none;stroke:#2b908f;stroke-linecap:square;"/>
   </g>
   <g id="line2d_85">
    <path clip-path="url(#pae4944b854)" d="M 76.613125 353.2239 
L 463.266816 353.2239 
L 469.125206 344.313101 
L 474.983595 353.2239 
L 949.513125 353.2239 
L 949.513125 353.2239 
" style="fill:none;stroke:#f45b5b;stroke-linecap:square;"/>
   </g>
   <g id="line2d_86">
    <path clip-path="url(#pae4944b854)" d="M 76.613125 353.2239 
L 310.948695 353.2239 
L 316.807085 344.391448 
L 322.665474 353.2239 
L 949.513125 353.2239 
L 949.513125 353.2239 
" style="fill:none;stroke:#91e8e1;stroke-linecap:square;"/>
   </g>
   <g id="line2d_87">
    <path clip-path="url(#pae4944b854)" d="M 76.613125 353.2239 
L 82.471514 353.2239 
L 88.329904 339.399224 
L 94.188293 353.2239 
L 949.513125 353.2239 
L 949.513125 353.2239 
" style="fill:none;stroke:#7cb5ec;stroke-linecap:square;"/>
   </g>
   <g id="line2d_88">
    <path clip-path="url(#pae4944b854)" d="M 76.613125 353.2239 
L 82.471514 353.165349 
L 88.329904 352.991752 
L 94.188293 353.215682 
L 287.515138 353.22078 
L 310.948695 353.185685 
L 316.807085 352.732369 
L 322.665474 353.222824 
L 422.258091 353.182951 
L 428.116481 353.124609 
L 439.833259 353.222514 
L 457.408427 353.212246 
L 463.266816 353.09348 
L 469.125206 352.053581 
L 474.983595 353.207016 
L 521.850709 353.222121 
L 527.709098 353.180371 
L 533.567487 352.811583 
L 539.425877 353.2239 
L 750.32789 353.167972 
L 756.186279 352.680312 
L 762.044669 353.2239 
L 867.495675 353.131484 
L 873.354065 352.531493 
L 879.212454 352.644332 
L 885.070843 353.195175 
L 890.929232 353.024443 
L 896.787622 352.43436 
L 902.646011 353.216096 
L 908.5044 352.991809 
L 914.362789 353.2239 
L 949.513125 353.2239 
L 949.513125 353.2239 
" style="fill:none;stroke:#434348;stroke-linecap:square;"/>
   </g>
   <g id="line2d_89">
    <path clip-path="url(#pae4944b854)" d="M 76.613125 353.2239 
L 82.471514 353.2239 
L 88.329904 352.724186 
L 100.046682 353.2239 
L 152.772185 353.2239 
L 158.630575 352.974043 
L 164.488964 353.2239 
L 223.072857 353.2239 
L 228.931246 352.974043 
L 234.789635 353.2239 
L 240.648024 353.2239 
L 246.506414 352.974043 
L 252.364803 353.2239 
L 275.79836 353.2239 
L 281.656749 352.971465 
L 287.515138 353.2239 
L 310.948695 353.2239 
L 316.807085 352.962359 
L 322.665474 353.2239 
L 351.95742 353.2239 
L 357.81581 352.943715 
L 363.674199 353.2239 
L 375.390977 353.2239 
L 381.249367 352.928926 
L 387.107756 353.2239 
L 392.966145 353.2239 
L 398.824534 352.915956 
L 404.682924 353.2239 
L 416.399702 353.2239 
L 422.258091 352.894348 
L 428.116481 352.888296 
L 433.97487 353.2239 
L 463.266816 353.2239 
L 469.125206 352.447988 
L 474.983595 353.2239 
L 873.354065 353.2239 
L 879.212454 349.515821 
L 885.070843 353.2239 
L 890.929232 349.26661 
L 896.787622 353.2239 
L 949.513125 353.2239 
L 949.513125 353.2239 
" style="fill:none;stroke:#90ed7d;stroke-linecap:square;"/>
   </g>
   <g id="line2d_90">
    <path clip-path="url(#pae4944b854)" d="M 76.613125 353.2239 
L 310.948695 353.2239 
L 316.807085 351.694105 
L 322.665474 353.2239 
L 463.266816 353.2239 
L 469.125206 349.134278 
L 474.983595 353.2239 
L 527.709098 353.2239 
L 533.567487 348.190772 
L 539.425877 353.2239 
L 750.32789 353.2239 
L 756.186279 347.779245 
L 762.044669 353.2239 
L 890.929232 353.2239 
L 896.787622 344.641753 
L 902.646011 353.2239 
L 949.513125 353.2239 
L 949.513125 353.2239 
" style="fill:none;stroke:#f7a35c;stroke-linecap:square;"/>
   </g>
   <g id="line2d_91">
    <path clip-path="url(#pae4944b854)" d="M 76.613125 353.2239 
L 82.471514 353.2239 
L 88.329904 345.06039 
L 94.188293 353.2239 
L 422.258091 353.2239 
L 428.116481 344.606904 
L 433.97487 353.2239 
L 463.266816 353.2239 
L 469.125206 344.452371 
L 474.983595 353.2239 
L 949.513125 353.2239 
L 949.513125 353.2239 
" style="fill:none;stroke:#8085e9;stroke-linecap:square;"/>
   </g>
   <g id="line2d_92">
    <path clip-path="url(#pae4944b854)" d="M 76.613125 353.2239 
L 82.471514 352.798496 
L 88.329904 352.798496 
L 94.188293 353.2239 
L 310.948695 353.2239 
L 316.807085 352.782094 
L 322.665474 353.2239 
L 457.408427 353.2239 
L 463.266816 352.652375 
L 469.125206 350.324585 
L 474.983595 353.2239 
L 867.495675 353.2239 
L 873.354065 351.264161 
L 879.212454 353.2239 
L 949.513125 353.2239 
L 949.513125 353.2239 
" style="fill:none;stroke:#f15c80;stroke-linecap:square;"/>
   </g>
   <g id="line2d_93">
    <path clip-path="url(#pae4944b854)" d="M 76.613125 353.2239 
L 82.471514 353.2239 
L 88.329904 352.3658 
L 94.188293 353.2239 
L 463.266816 353.2239 
L 469.125206 350.570298 
L 474.983595 353.2239 
L 949.513125 353.2239 
L 949.513125 353.2239 
" style="fill:none;stroke:#e4d354;stroke-linecap:square;"/>
   </g>
   <g id="line2d_94">
    <path clip-path="url(#pae4944b854)" d="M 76.613125 353.2239 
L 463.266816 353.2239 
L 469.125206 350.611182 
L 474.983595 353.2239 
L 949.513125 353.2239 
L 949.513125 353.2239 
" style="fill:none;stroke:#2b908f;stroke-linecap:square;"/>
   </g>
   <g id="line2d_95">
    <path clip-path="url(#pae4944b854)" d="M 76.613125 353.2239 
L 949.513125 353.2239 
L 949.513125 353.2239 
" style="fill:none;stroke:#f45b5b;stroke-linecap:square;"/>
   </g>
   <g id="line2d_96">
    <path clip-path="url(#pae4944b854)" d="M 76.613125 353.2239 
L 82.471514 352.977072 
L 88.329904 352.292686 
L 94.188293 353.170698 
L 100.046682 353.120309 
L 111.763461 353.222962 
L 310.948695 353.134718 
L 316.807085 352.728331 
L 322.665474 353.202361 
L 357.81581 353.217595 
L 387.107756 353.180312 
L 392.966145 353.084986 
L 410.541313 353.211078 
L 416.399702 353.209253 
L 428.116481 352.9841 
L 433.97487 353.193327 
L 457.408427 353.194073 
L 463.266816 352.996761 
L 469.125206 351.910457 
L 474.983595 353.189653 
L 504.275541 353.223303 
L 527.709098 353.149169 
L 533.567487 352.824327 
L 539.425877 353.223546 
L 750.32789 353.101231 
L 756.186279 352.338957 
L 762.044669 353.2239 
L 867.495675 353.126847 
L 873.354065 352.071679 
L 879.212454 352.004092 
L 885.070843 353.174559 
L 896.787622 352.139324 
L 902.646011 353.185348 
L 908.5044 352.69706 
L 914.362789 353.221594 
L 949.513125 353.2239 
L 949.513125 353.2239 
" style="fill:none;stroke:#91e8e1;stroke-linecap:square;"/>
   </g>
   <g id="line2d_97">
    <path clip-path="url(#pae4944b854)" d="M 32.968125 353.2239 
L 993.158125 353.2239 
" style="fill:none;stroke:#dedede;stroke-linecap:square;stroke-width:2;"/>
   </g>
   <g id="text_17">
    <!-- Fastp: Read N Content -->
    <defs>
     <path d="M 9.8125 72.90625 
L 51.703125 72.90625 
L 51.703125 64.59375 
L 19.671875 64.59375 
L 19.671875 43.109375 
L 48.578125 43.109375 
L 48.578125 34.8125 
L 19.671875 34.8125 
L 19.671875 0 
L 9.8125 0 
z
" id="DejaVuSans-70"/>
     <path d="M 18.109375 8.203125 
L 18.109375 -20.796875 
L 9.078125 -20.796875 
L 9.078125 54.6875 
L 18.109375 54.6875 
L 18.109375 46.390625 
Q 20.953125 51.265625 25.265625 53.625 
Q 29.59375 56 35.59375 56 
Q 45.5625 56 51.78125 48.09375 
Q 58.015625 40.1875 58.015625 27.296875 
Q 58.015625 14.40625 51.78125 6.484375 
Q 45.5625 -1.421875 35.59375 -1.421875 
Q 29.59375 -1.421875 25.265625 0.953125 
Q 20.953125 3.328125 18.109375 8.203125 
z
M 48.6875 27.296875 
Q 48.6875 37.203125 44.609375 42.84375 
Q 40.53125 48.484375 33.40625 48.484375 
Q 26.265625 48.484375 22.1875 42.84375 
Q 18.109375 37.203125 18.109375 27.296875 
Q 18.109375 17.390625 22.1875 11.75 
Q 26.265625 6.109375 33.40625 6.109375 
Q 40.53125 6.109375 44.609375 11.75 
Q 48.6875 17.390625 48.6875 27.296875 
z
" id="DejaVuSans-112"/>
     <path d="M 9.8125 72.90625 
L 23.09375 72.90625 
L 55.421875 11.921875 
L 55.421875 72.90625 
L 64.984375 72.90625 
L 64.984375 0 
L 51.703125 0 
L 19.390625 60.984375 
L 19.390625 0 
L 9.8125 0 
z
" id="DejaVuSans-78"/>
    </defs>
    <g transform="translate(422.606875 19.3575)scale(0.16 -0.16)">
     <use xlink:href="#DejaVuSans-70"/>
     <use x="57.378906" xlink:href="#DejaVuSans-97"/>
     <use x="118.658203" xlink:href="#DejaVuSans-115"/>
     <use x="170.757812" xlink:href="#DejaVuSans-116"/>
     <use x="209.966797" xlink:href="#DejaVuSans-112"/>
     <use x="273.443359" xlink:href="#DejaVuSans-58"/>
     <use x="307.134766" xlink:href="#DejaVuSans-32"/>
     <use x="338.921875" xlink:href="#DejaVuSans-82"/>
     <use x="408.341797" xlink:href="#DejaVuSans-101"/>
     <use x="469.865234" xlink:href="#DejaVuSans-97"/>
     <use x="531.144531" xlink:href="#DejaVuSans-100"/>
     <use x="594.621094" xlink:href="#DejaVuSans-32"/>
     <use x="626.408203" xlink:href="#DejaVuSans-78"/>
     <use x="701.212891" xlink:href="#DejaVuSans-32"/>
     <use x="733" xlink:href="#DejaVuSans-67"/>
     <use x="802.824219" xlink:href="#DejaVuSans-111"/>
     <use x="864.005859" xlink:href="#DejaVuSans-110"/>
     <use x="927.384766" xlink:href="#DejaVuSans-116"/>
     <use x="966.59375" xlink:href="#DejaVuSans-101"/>
     <use x="1028.117188" xlink:href="#DejaVuSans-110"/>
     <use x="1091.496094" xlink:href="#DejaVuSans-116"/>
    </g>
   </g>
  </g>
 </g>
 <defs>
  <clipPath id="pae4944b854">
   <rect height="317.968" width="960.19" x="32.968125" y="35.2559"/>
  </clipPath>
 </defs>
</svg>
