<?xml version="1.0" encoding="utf-8" standalone="no"?>
<!DOCTYPE svg PUBLIC "-//W3C//DTD SVG 1.1//EN"
  "http://www.w3.org/Graphics/SVG/1.1/DTD/svg11.dtd">
<!-- Created with matplotlib (https://matplotlib.org/) -->
<svg height="388.844525pt" version="1.1" viewBox="0 0 1000.358125 388.844525" width="1000.358125pt" xmlns="http://www.w3.org/2000/svg" xmlns:xlink="http://www.w3.org/1999/xlink">
 <defs>
  <style type="text/css">
*{stroke-linecap:butt;stroke-linejoin:round;}
  </style>
 </defs>
 <g id="figure_1">
  <g id="axes_1">
   <g id="patch_1">
    <path d="M 32.968125 353.2239 
L 993.158125 353.2239 
L 993.158125 35.2559 
L 32.968125 35.2559 
z
" style="fill:#ffffff;"/>
   </g>
   <g id="matplotlib.axis_1">
    <g id="xtick_1">
     <g id="text_1">
      <!-- 0 -->
      <defs>
       <path d="M 31.78125 66.40625 
Q 24.171875 66.40625 20.328125 58.90625 
Q 16.5 51.421875 16.5 36.375 
Q 16.5 21.390625 20.328125 13.890625 
Q 24.171875 6.390625 31.78125 6.390625 
Q 39.453125 6.390625 43.28125 13.890625 
Q 47.125 21.390625 47.125 36.375 
Q 47.125 51.421875 43.28125 58.90625 
Q 39.453125 66.40625 31.78125 66.40625 
z
M 31.78125 74.21875 
Q 44.046875 74.21875 50.515625 64.515625 
Q 56.984375 54.828125 56.984375 36.375 
Q 56.984375 17.96875 50.515625 8.265625 
Q 44.046875 -1.421875 31.78125 -1.421875 
Q 19.53125 -1.421875 13.0625 8.265625 
Q 6.59375 17.96875 6.59375 36.375 
Q 6.59375 54.828125 13.0625 64.515625 
Q 19.53125 74.21875 31.78125 74.21875 
z
" id="DejaVuSans-48"/>
      </defs>
      <g transform="translate(68.209736 366.30265)scale(0.08 -0.08)">
       <use xlink:href="#DejaVuSans-48"/>
      </g>
     </g>
    </g>
    <g id="xtick_2">
     <g id="text_2">
      <!-- 20 -->
      <defs>
       <path d="M 19.1875 8.296875 
L 53.609375 8.296875 
L 53.609375 0 
L 7.328125 0 
L 7.328125 8.296875 
Q 12.9375 14.109375 22.625 23.890625 
Q 32.328125 33.6875 34.8125 36.53125 
Q 39.546875 41.84375 41.421875 45.53125 
Q 43.3125 49.21875 43.3125 52.78125 
Q 43.3125 58.59375 39.234375 62.25 
Q 35.15625 65.921875 28.609375 65.921875 
Q 23.96875 65.921875 18.8125 64.3125 
Q 13.671875 62.703125 7.8125 59.421875 
L 7.8125 69.390625 
Q 13.765625 71.78125 18.9375 73 
Q 24.125 74.21875 28.421875 74.21875 
Q 39.75 74.21875 46.484375 68.546875 
Q 53.21875 62.890625 53.21875 53.421875 
Q 53.21875 48.921875 51.53125 44.890625 
Q 49.859375 40.875 45.40625 35.40625 
Q 44.1875 33.984375 37.640625 27.21875 
Q 31.109375 20.453125 19.1875 8.296875 
z
" id="DejaVuSans-50"/>
      </defs>
      <g transform="translate(182.832521 366.30265)scale(0.08 -0.08)">
       <use xlink:href="#DejaVuSans-50"/>
       <use x="63.623047" xlink:href="#DejaVuSans-48"/>
      </g>
     </g>
    </g>
    <g id="xtick_3">
     <g id="text_3">
      <!-- 40 -->
      <defs>
       <path d="M 37.796875 64.3125 
L 12.890625 25.390625 
L 37.796875 25.390625 
z
M 35.203125 72.90625 
L 47.609375 72.90625 
L 47.609375 25.390625 
L 58.015625 25.390625 
L 58.015625 17.1875 
L 47.609375 17.1875 
L 47.609375 0 
L 37.796875 0 
L 37.796875 17.1875 
L 4.890625 17.1875 
L 4.890625 26.703125 
z
" id="DejaVuSans-52"/>
      </defs>
      <g transform="translate(300.000306 366.30265)scale(0.08 -0.08)">
       <use xlink:href="#DejaVuSans-52"/>
       <use x="63.623047" xlink:href="#DejaVuSans-48"/>
      </g>
     </g>
    </g>
    <g id="xtick_4">
     <g id="text_4">
      <!-- 60 -->
      <defs>
       <path d="M 33.015625 40.375 
Q 26.375 40.375 22.484375 35.828125 
Q 18.609375 31.296875 18.609375 23.390625 
Q 18.609375 15.53125 22.484375 10.953125 
Q 26.375 6.390625 33.015625 6.390625 
Q 39.65625 6.390625 43.53125 10.953125 
Q 47.40625 15.53125 47.40625 23.390625 
Q 47.40625 31.296875 43.53125 35.828125 
Q 39.65625 40.375 33.015625 40.375 
z
M 52.59375 71.296875 
L 52.59375 62.3125 
Q 48.875 64.0625 45.09375 64.984375 
Q 41.3125 65.921875 37.59375 65.921875 
Q 27.828125 65.921875 22.671875 59.328125 
Q 17.53125 52.734375 16.796875 39.40625 
Q 19.671875 43.65625 24.015625 45.921875 
Q 28.375 48.1875 33.59375 48.1875 
Q 44.578125 48.1875 50.953125 41.515625 
Q 57.328125 34.859375 57.328125 23.390625 
Q 57.328125 12.15625 50.6875 5.359375 
Q 44.046875 -1.421875 33.015625 -1.421875 
Q 20.359375 -1.421875 13.671875 8.265625 
Q 6.984375 17.96875 6.984375 36.375 
Q 6.984375 53.65625 15.1875 63.9375 
Q 23.390625 74.21875 37.203125 74.21875 
Q 40.921875 74.21875 44.703125 73.484375 
Q 48.484375 72.75 52.59375 71.296875 
z
" id="DejaVuSans-54"/>
      </defs>
      <g transform="translate(417.168091 366.30265)scale(0.08 -0.08)">
       <use xlink:href="#DejaVuSans-54"/>
       <use x="63.623047" xlink:href="#DejaVuSans-48"/>
      </g>
     </g>
    </g>
    <g id="xtick_5">
     <g id="text_5">
      <!-- 80 -->
      <defs>
       <path d="M 31.78125 34.625 
Q 24.75 34.625 20.71875 30.859375 
Q 16.703125 27.09375 16.703125 20.515625 
Q 16.703125 13.921875 20.71875 10.15625 
Q 24.75 6.390625 31.78125 6.390625 
Q 38.8125 6.390625 42.859375 10.171875 
Q 46.921875 13.96875 46.921875 20.515625 
Q 46.921875 27.09375 42.890625 30.859375 
Q 38.875 34.625 31.78125 34.625 
z
M 21.921875 38.8125 
Q 15.578125 40.375 12.03125 44.71875 
Q 8.5 49.078125 8.5 55.328125 
Q 8.5 64.0625 14.71875 69.140625 
Q 20.953125 74.21875 31.78125 74.21875 
Q 42.671875 74.21875 48.875 69.140625 
Q 55.078125 64.0625 55.078125 55.328125 
Q 55.078125 49.078125 51.53125 44.71875 
Q 48 40.375 41.703125 38.8125 
Q 48.828125 37.15625 52.796875 32.3125 
Q 56.78125 27.484375 56.78125 20.515625 
Q 56.78125 9.90625 50.3125 4.234375 
Q 43.84375 -1.421875 31.78125 -1.421875 
Q 19.734375 -1.421875 13.25 4.234375 
Q 6.78125 9.90625 6.78125 20.515625 
Q 6.78125 27.484375 10.78125 32.3125 
Q 14.796875 37.15625 21.921875 38.8125 
z
M 18.3125 54.390625 
Q 18.3125 48.734375 21.84375 45.5625 
Q 25.390625 42.390625 31.78125 42.390625 
Q 38.140625 42.390625 41.71875 45.5625 
Q 45.3125 48.734375 45.3125 54.390625 
Q 45.3125 60.0625 41.71875 63.234375 
Q 38.140625 66.40625 31.78125 66.40625 
Q 25.390625 66.40625 21.84375 63.234375 
Q 18.3125 60.0625 18.3125 54.390625 
z
" id="DejaVuSans-56"/>
      </defs>
      <g transform="translate(534.335877 366.30265)scale(0.08 -0.08)">
       <use xlink:href="#DejaVuSans-56"/>
       <use x="63.623047" xlink:href="#DejaVuSans-48"/>
      </g>
     </g>
    </g>
    <g id="xtick_6">
     <g id="text_6">
      <!-- 100 -->
      <defs>
       <path d="M 12.40625 8.296875 
L 28.515625 8.296875 
L 28.515625 63.921875 
L 10.984375 60.40625 
L 10.984375 69.390625 
L 28.421875 72.90625 
L 38.28125 72.90625 
L 38.28125 8.296875 
L 54.390625 8.296875 
L 54.390625 0 
L 12.40625 0 
z
" id="DejaVuSans-49"/>
      </defs>
      <g transform="translate(648.958662 366.30265)scale(0.08 -0.08)">
       <use xlink:href="#DejaVuSans-49"/>
       <use x="63.623047" xlink:href="#DejaVuSans-48"/>
       <use x="127.246094" xlink:href="#DejaVuSans-48"/>
      </g>
     </g>
    </g>
    <g id="xtick_7">
     <g id="text_7">
      <!-- 120 -->
      <g transform="translate(766.126447 366.30265)scale(0.08 -0.08)">
       <use xlink:href="#DejaVuSans-49"/>
       <use x="63.623047" xlink:href="#DejaVuSans-50"/>
       <use x="127.246094" xlink:href="#DejaVuSans-48"/>
      </g>
     </g>
    </g>
    <g id="xtick_8">
     <g id="text_8">
      <!-- 140 -->
      <g transform="translate(883.294232 366.30265)scale(0.08 -0.08)">
       <use xlink:href="#DejaVuSans-49"/>
       <use x="63.623047" xlink:href="#DejaVuSans-52"/>
       <use x="127.246094" xlink:href="#DejaVuSans-48"/>
      </g>
     </g>
    </g>
    <g id="text_9">
     <!-- Read Position -->
     <defs>
      <path d="M 44.390625 34.1875 
Q 47.5625 33.109375 50.5625 29.59375 
Q 53.5625 26.078125 56.59375 19.921875 
L 66.609375 0 
L 56 0 
L 46.6875 18.703125 
Q 43.0625 26.03125 39.671875 28.421875 
Q 36.28125 30.8125 30.421875 30.8125 
L 19.671875 30.8125 
L 19.671875 0 
L 9.8125 0 
L 9.8125 72.90625 
L 32.078125 72.90625 
Q 44.578125 72.90625 50.734375 67.671875 
Q 56.890625 62.453125 56.890625 51.90625 
Q 56.890625 45.015625 53.6875 40.46875 
Q 50.484375 35.9375 44.390625 34.1875 
z
M 19.671875 64.796875 
L 19.671875 38.921875 
L 32.078125 38.921875 
Q 39.203125 38.921875 42.84375 42.21875 
Q 46.484375 45.515625 46.484375 51.90625 
Q 46.484375 58.296875 42.84375 61.546875 
Q 39.203125 64.796875 32.078125 64.796875 
z
" id="DejaVuSans-82"/>
      <path d="M 56.203125 29.59375 
L 56.203125 25.203125 
L 14.890625 25.203125 
Q 15.484375 15.921875 20.484375 11.0625 
Q 25.484375 6.203125 34.421875 6.203125 
Q 39.59375 6.203125 44.453125 7.46875 
Q 49.3125 8.734375 54.109375 11.28125 
L 54.109375 2.78125 
Q 49.265625 0.734375 44.1875 -0.34375 
Q 39.109375 -1.421875 33.890625 -1.421875 
Q 20.796875 -1.421875 13.15625 6.1875 
Q 5.515625 13.8125 5.515625 26.8125 
Q 5.515625 40.234375 12.765625 48.109375 
Q 20.015625 56 32.328125 56 
Q 43.359375 56 49.78125 48.890625 
Q 56.203125 41.796875 56.203125 29.59375 
z
M 47.21875 32.234375 
Q 47.125 39.59375 43.09375 43.984375 
Q 39.0625 48.390625 32.421875 48.390625 
Q 24.90625 48.390625 20.390625 44.140625 
Q 15.875 39.890625 15.1875 32.171875 
z
" id="DejaVuSans-101"/>
      <path d="M 34.28125 27.484375 
Q 23.390625 27.484375 19.1875 25 
Q 14.984375 22.515625 14.984375 16.5 
Q 14.984375 11.71875 18.140625 8.90625 
Q 21.296875 6.109375 26.703125 6.109375 
Q 34.1875 6.109375 38.703125 11.40625 
Q 43.21875 16.703125 43.21875 25.484375 
L 43.21875 27.484375 
z
M 52.203125 31.203125 
L 52.203125 0 
L 43.21875 0 
L 43.21875 8.296875 
Q 40.140625 3.328125 35.546875 0.953125 
Q 30.953125 -1.421875 24.3125 -1.421875 
Q 15.921875 -1.421875 10.953125 3.296875 
Q 6 8.015625 6 15.921875 
Q 6 25.140625 12.171875 29.828125 
Q 18.359375 34.515625 30.609375 34.515625 
L 43.21875 34.515625 
L 43.21875 35.40625 
Q 43.21875 41.609375 39.140625 45 
Q 35.0625 48.390625 27.6875 48.390625 
Q 23 48.390625 18.546875 47.265625 
Q 14.109375 46.140625 10.015625 43.890625 
L 10.015625 52.203125 
Q 14.9375 54.109375 19.578125 55.046875 
Q 24.21875 56 28.609375 56 
Q 40.484375 56 46.34375 49.84375 
Q 52.203125 43.703125 52.203125 31.203125 
z
" id="DejaVuSans-97"/>
      <path d="M 45.40625 46.390625 
L 45.40625 75.984375 
L 54.390625 75.984375 
L 54.390625 0 
L 45.40625 0 
L 45.40625 8.203125 
Q 42.578125 3.328125 38.25 0.953125 
Q 33.9375 -1.421875 27.875 -1.421875 
Q 17.96875 -1.421875 11.734375 6.484375 
Q 5.515625 14.40625 5.515625 27.296875 
Q 5.515625 40.1875 11.734375 48.09375 
Q 17.96875 56 27.875 56 
Q 33.9375 56 38.25 53.625 
Q 42.578125 51.265625 45.40625 46.390625 
z
M 14.796875 27.296875 
Q 14.796875 17.390625 18.875 11.75 
Q 22.953125 6.109375 30.078125 6.109375 
Q 37.203125 6.109375 41.296875 11.75 
Q 45.40625 17.390625 45.40625 27.296875 
Q 45.40625 37.203125 41.296875 42.84375 
Q 37.203125 48.484375 30.078125 48.484375 
Q 22.953125 48.484375 18.875 42.84375 
Q 14.796875 37.203125 14.796875 27.296875 
z
" id="DejaVuSans-100"/>
      <path id="DejaVuSans-32"/>
      <path d="M 19.671875 64.796875 
L 19.671875 37.40625 
L 32.078125 37.40625 
Q 38.96875 37.40625 42.71875 40.96875 
Q 46.484375 44.53125 46.484375 51.125 
Q 46.484375 57.671875 42.71875 61.234375 
Q 38.96875 64.796875 32.078125 64.796875 
z
M 9.8125 72.90625 
L 32.078125 72.90625 
Q 44.34375 72.90625 50.609375 67.359375 
Q 56.890625 61.8125 56.890625 51.125 
Q 56.890625 40.328125 50.609375 34.8125 
Q 44.34375 29.296875 32.078125 29.296875 
L 19.671875 29.296875 
L 19.671875 0 
L 9.8125 0 
z
" id="DejaVuSans-80"/>
      <path d="M 30.609375 48.390625 
Q 23.390625 48.390625 19.1875 42.75 
Q 14.984375 37.109375 14.984375 27.296875 
Q 14.984375 17.484375 19.15625 11.84375 
Q 23.34375 6.203125 30.609375 6.203125 
Q 37.796875 6.203125 41.984375 11.859375 
Q 46.1875 17.53125 46.1875 27.296875 
Q 46.1875 37.015625 41.984375 42.703125 
Q 37.796875 48.390625 30.609375 48.390625 
z
M 30.609375 56 
Q 42.328125 56 49.015625 48.375 
Q 55.71875 40.765625 55.71875 27.296875 
Q 55.71875 13.875 49.015625 6.21875 
Q 42.328125 -1.421875 30.609375 -1.421875 
Q 18.84375 -1.421875 12.171875 6.21875 
Q 5.515625 13.875 5.515625 27.296875 
Q 5.515625 40.765625 12.171875 48.375 
Q 18.84375 56 30.609375 56 
z
" id="DejaVuSans-111"/>
      <path d="M 44.28125 53.078125 
L 44.28125 44.578125 
Q 40.484375 46.53125 36.375 47.5 
Q 32.28125 48.484375 27.875 48.484375 
Q 21.1875 48.484375 17.84375 46.4375 
Q 14.5 44.390625 14.5 40.28125 
Q 14.5 37.15625 16.890625 35.375 
Q 19.28125 33.59375 26.515625 31.984375 
L 29.59375 31.296875 
Q 39.15625 29.25 43.1875 25.515625 
Q 47.21875 21.78125 47.21875 15.09375 
Q 47.21875 7.46875 41.1875 3.015625 
Q 35.15625 -1.421875 24.609375 -1.421875 
Q 20.21875 -1.421875 15.453125 -0.5625 
Q 10.6875 0.296875 5.421875 2 
L 5.421875 11.28125 
Q 10.40625 8.6875 15.234375 7.390625 
Q 20.0625 6.109375 24.8125 6.109375 
Q 31.15625 6.109375 34.5625 8.28125 
Q 37.984375 10.453125 37.984375 14.40625 
Q 37.984375 18.0625 35.515625 20.015625 
Q 33.0625 21.96875 24.703125 23.78125 
L 21.578125 24.515625 
Q 13.234375 26.265625 9.515625 29.90625 
Q 5.8125 33.546875 5.8125 39.890625 
Q 5.8125 47.609375 11.28125 51.796875 
Q 16.75 56 26.8125 56 
Q 31.78125 56 36.171875 55.265625 
Q 40.578125 54.546875 44.28125 53.078125 
z
" id="DejaVuSans-115"/>
      <path d="M 9.421875 54.6875 
L 18.40625 54.6875 
L 18.40625 0 
L 9.421875 0 
z
M 9.421875 75.984375 
L 18.40625 75.984375 
L 18.40625 64.59375 
L 9.421875 64.59375 
z
" id="DejaVuSans-105"/>
      <path d="M 18.3125 70.21875 
L 18.3125 54.6875 
L 36.8125 54.6875 
L 36.8125 47.703125 
L 18.3125 47.703125 
L 18.3125 18.015625 
Q 18.3125 11.328125 20.140625 9.421875 
Q 21.96875 7.515625 27.59375 7.515625 
L 36.8125 7.515625 
L 36.8125 0 
L 27.59375 0 
Q 17.1875 0 13.234375 3.875 
Q 9.28125 7.765625 9.28125 18.015625 
L 9.28125 47.703125 
L 2.6875 47.703125 
L 2.6875 54.6875 
L 9.28125 54.6875 
L 9.28125 70.21875 
z
" id="DejaVuSans-116"/>
      <path d="M 54.890625 33.015625 
L 54.890625 0 
L 45.90625 0 
L 45.90625 32.71875 
Q 45.90625 40.484375 42.875 44.328125 
Q 39.84375 48.1875 33.796875 48.1875 
Q 26.515625 48.1875 22.3125 43.546875 
Q 18.109375 38.921875 18.109375 30.90625 
L 18.109375 0 
L 9.078125 0 
L 9.078125 54.6875 
L 18.109375 54.6875 
L 18.109375 46.1875 
Q 21.34375 51.125 25.703125 53.5625 
Q 30.078125 56 35.796875 56 
Q 45.21875 56 50.046875 50.171875 
Q 54.890625 44.34375 54.890625 33.015625 
z
" id="DejaVuSans-110"/>
     </defs>
     <g transform="translate(479.045156 379.564837)scale(0.1 -0.1)">
      <use xlink:href="#DejaVuSans-82"/>
      <use x="69.419922" xlink:href="#DejaVuSans-101"/>
      <use x="130.943359" xlink:href="#DejaVuSans-97"/>
      <use x="192.222656" xlink:href="#DejaVuSans-100"/>
      <use x="255.699219" xlink:href="#DejaVuSans-32"/>
      <use x="287.486328" xlink:href="#DejaVuSans-80"/>
      <use x="347.742188" xlink:href="#DejaVuSans-111"/>
      <use x="408.923828" xlink:href="#DejaVuSans-115"/>
      <use x="461.023438" xlink:href="#DejaVuSans-105"/>
      <use x="488.806641" xlink:href="#DejaVuSans-116"/>
      <use x="528.015625" xlink:href="#DejaVuSans-105"/>
      <use x="555.798828" xlink:href="#DejaVuSans-111"/>
      <use x="616.980469" xlink:href="#DejaVuSans-110"/>
     </g>
    </g>
   </g>
   <g id="matplotlib.axis_2">
    <g id="ytick_1">
     <g id="line2d_1">
      <path clip-path="url(#p1d9f6410a2)" d="M 32.968125 353.2239 
L 993.158125 353.2239 
" style="fill:none;stroke:#dedede;stroke-linecap:square;"/>
     </g>
     <g id="text_10">
      <!-- 0 -->
      <g transform="translate(20.878125 356.263275)scale(0.08 -0.08)">
       <use xlink:href="#DejaVuSans-48"/>
      </g>
     </g>
    </g>
    <g id="ytick_2">
     <g id="line2d_2">
      <path clip-path="url(#p1d9f6410a2)" d="M 32.968125 289.6303 
L 993.158125 289.6303 
" style="fill:none;stroke:#dedede;stroke-linecap:square;"/>
     </g>
     <g id="text_11">
      <!-- 1 -->
      <g transform="translate(20.878125 292.669675)scale(0.08 -0.08)">
       <use xlink:href="#DejaVuSans-49"/>
      </g>
     </g>
    </g>
    <g id="ytick_3">
     <g id="line2d_3">
      <path clip-path="url(#p1d9f6410a2)" d="M 32.968125 226.0367 
L 993.158125 226.0367 
" style="fill:none;stroke:#dedede;stroke-linecap:square;"/>
     </g>
     <g id="text_12">
      <!-- 2 -->
      <g transform="translate(20.878125 229.076075)scale(0.08 -0.08)">
       <use xlink:href="#DejaVuSans-50"/>
      </g>
     </g>
    </g>
    <g id="ytick_4">
     <g id="line2d_4">
      <path clip-path="url(#p1d9f6410a2)" d="M 32.968125 162.4431 
L 993.158125 162.4431 
" style="fill:none;stroke:#dedede;stroke-linecap:square;"/>
     </g>
     <g id="text_13">
      <!-- 3 -->
      <defs>
       <path d="M 40.578125 39.3125 
Q 47.65625 37.796875 51.625 33 
Q 55.609375 28.21875 55.609375 21.1875 
Q 55.609375 10.40625 48.1875 4.484375 
Q 40.765625 -1.421875 27.09375 -1.421875 
Q 22.515625 -1.421875 17.65625 -0.515625 
Q 12.796875 0.390625 7.625 2.203125 
L 7.625 11.71875 
Q 11.71875 9.328125 16.59375 8.109375 
Q 21.484375 6.890625 26.8125 6.890625 
Q 36.078125 6.890625 40.9375 10.546875 
Q 45.796875 14.203125 45.796875 21.1875 
Q 45.796875 27.640625 41.28125 31.265625 
Q 36.765625 34.90625 28.71875 34.90625 
L 20.21875 34.90625 
L 20.21875 43.015625 
L 29.109375 43.015625 
Q 36.375 43.015625 40.234375 45.921875 
Q 44.09375 48.828125 44.09375 54.296875 
Q 44.09375 59.90625 40.109375 62.90625 
Q 36.140625 65.921875 28.71875 65.921875 
Q 24.65625 65.921875 20.015625 65.03125 
Q 15.375 64.15625 9.8125 62.3125 
L 9.8125 71.09375 
Q 15.4375 72.65625 20.34375 73.4375 
Q 25.25 74.21875 29.59375 74.21875 
Q 40.828125 74.21875 47.359375 69.109375 
Q 53.90625 64.015625 53.90625 55.328125 
Q 53.90625 49.265625 50.4375 45.09375 
Q 46.96875 40.921875 40.578125 39.3125 
z
" id="DejaVuSans-51"/>
      </defs>
      <g transform="translate(20.878125 165.482475)scale(0.08 -0.08)">
       <use xlink:href="#DejaVuSans-51"/>
      </g>
     </g>
    </g>
    <g id="ytick_5">
     <g id="line2d_5">
      <path clip-path="url(#p1d9f6410a2)" d="M 32.968125 98.8495 
L 993.158125 98.8495 
" style="fill:none;stroke:#dedede;stroke-linecap:square;"/>
     </g>
     <g id="text_14">
      <!-- 4 -->
      <g transform="translate(20.878125 101.888875)scale(0.08 -0.08)">
       <use xlink:href="#DejaVuSans-52"/>
      </g>
     </g>
    </g>
    <g id="ytick_6">
     <g id="line2d_6">
      <path clip-path="url(#p1d9f6410a2)" d="M 32.968125 35.2559 
L 993.158125 35.2559 
" style="fill:none;stroke:#dedede;stroke-linecap:square;"/>
     </g>
     <g id="text_15">
      <!-- 5 -->
      <defs>
       <path d="M 10.796875 72.90625 
L 49.515625 72.90625 
L 49.515625 64.59375 
L 19.828125 64.59375 
L 19.828125 46.734375 
Q 21.96875 47.46875 24.109375 47.828125 
Q 26.265625 48.1875 28.421875 48.1875 
Q 40.625 48.1875 47.75 41.5 
Q 54.890625 34.8125 54.890625 23.390625 
Q 54.890625 11.625 47.5625 5.09375 
Q 40.234375 -1.421875 26.90625 -1.421875 
Q 22.3125 -1.421875 17.546875 -0.640625 
Q 12.796875 0.140625 7.71875 1.703125 
L 7.71875 11.625 
Q 12.109375 9.234375 16.796875 8.0625 
Q 21.484375 6.890625 26.703125 6.890625 
Q 35.15625 6.890625 40.078125 11.328125 
Q 45.015625 15.765625 45.015625 23.390625 
Q 45.015625 31 40.078125 35.4375 
Q 35.15625 39.890625 26.703125 39.890625 
Q 22.75 39.890625 18.8125 39.015625 
Q 14.890625 38.140625 10.796875 36.28125 
z
" id="DejaVuSans-53"/>
      </defs>
      <g transform="translate(20.878125 38.295275)scale(0.08 -0.08)">
       <use xlink:href="#DejaVuSans-53"/>
      </g>
     </g>
    </g>
    <g id="text_16">
     <!-- R1 Before filtering: Base Content Percent -->
     <defs>
      <path d="M 19.671875 34.8125 
L 19.671875 8.109375 
L 35.5 8.109375 
Q 43.453125 8.109375 47.28125 11.40625 
Q 51.125 14.703125 51.125 21.484375 
Q 51.125 28.328125 47.28125 31.5625 
Q 43.453125 34.8125 35.5 34.8125 
z
M 19.671875 64.796875 
L 19.671875 42.828125 
L 34.28125 42.828125 
Q 41.5 42.828125 45.03125 45.53125 
Q 48.578125 48.25 48.578125 53.8125 
Q 48.578125 59.328125 45.03125 62.0625 
Q 41.5 64.796875 34.28125 64.796875 
z
M 9.8125 72.90625 
L 35.015625 72.90625 
Q 46.296875 72.90625 52.390625 68.21875 
Q 58.5 63.53125 58.5 54.890625 
Q 58.5 48.1875 55.375 44.234375 
Q 52.25 40.28125 46.1875 39.3125 
Q 53.46875 37.75 57.5 32.78125 
Q 61.53125 27.828125 61.53125 20.40625 
Q 61.53125 10.640625 54.890625 5.3125 
Q 48.25 0 35.984375 0 
L 9.8125 0 
z
" id="DejaVuSans-66"/>
      <path d="M 37.109375 75.984375 
L 37.109375 68.5 
L 28.515625 68.5 
Q 23.6875 68.5 21.796875 66.546875 
Q 19.921875 64.59375 19.921875 59.515625 
L 19.921875 54.6875 
L 34.71875 54.6875 
L 34.71875 47.703125 
L 19.921875 47.703125 
L 19.921875 0 
L 10.890625 0 
L 10.890625 47.703125 
L 2.296875 47.703125 
L 2.296875 54.6875 
L 10.890625 54.6875 
L 10.890625 58.5 
Q 10.890625 67.625 15.140625 71.796875 
Q 19.390625 75.984375 28.609375 75.984375 
z
" id="DejaVuSans-102"/>
      <path d="M 41.109375 46.296875 
Q 39.59375 47.171875 37.8125 47.578125 
Q 36.03125 48 33.890625 48 
Q 26.265625 48 22.1875 43.046875 
Q 18.109375 38.09375 18.109375 28.8125 
L 18.109375 0 
L 9.078125 0 
L 9.078125 54.6875 
L 18.109375 54.6875 
L 18.109375 46.1875 
Q 20.953125 51.171875 25.484375 53.578125 
Q 30.03125 56 36.53125 56 
Q 37.453125 56 38.578125 55.875 
Q 39.703125 55.765625 41.0625 55.515625 
z
" id="DejaVuSans-114"/>
      <path d="M 9.421875 75.984375 
L 18.40625 75.984375 
L 18.40625 0 
L 9.421875 0 
z
" id="DejaVuSans-108"/>
      <path d="M 45.40625 27.984375 
Q 45.40625 37.75 41.375 43.109375 
Q 37.359375 48.484375 30.078125 48.484375 
Q 22.859375 48.484375 18.828125 43.109375 
Q 14.796875 37.75 14.796875 27.984375 
Q 14.796875 18.265625 18.828125 12.890625 
Q 22.859375 7.515625 30.078125 7.515625 
Q 37.359375 7.515625 41.375 12.890625 
Q 45.40625 18.265625 45.40625 27.984375 
z
M 54.390625 6.78125 
Q 54.390625 -7.171875 48.1875 -13.984375 
Q 42 -20.796875 29.203125 -20.796875 
Q 24.46875 -20.796875 20.265625 -20.09375 
Q 16.0625 -19.390625 12.109375 -17.921875 
L 12.109375 -9.1875 
Q 16.0625 -11.328125 19.921875 -12.34375 
Q 23.78125 -13.375 27.78125 -13.375 
Q 36.625 -13.375 41.015625 -8.765625 
Q 45.40625 -4.15625 45.40625 5.171875 
L 45.40625 9.625 
Q 42.625 4.78125 38.28125 2.390625 
Q 33.9375 0 27.875 0 
Q 17.828125 0 11.671875 7.65625 
Q 5.515625 15.328125 5.515625 27.984375 
Q 5.515625 40.671875 11.671875 48.328125 
Q 17.828125 56 27.875 56 
Q 33.9375 56 38.28125 53.609375 
Q 42.625 51.21875 45.40625 46.390625 
L 45.40625 54.6875 
L 54.390625 54.6875 
z
" id="DejaVuSans-103"/>
      <path d="M 11.71875 12.40625 
L 22.015625 12.40625 
L 22.015625 0 
L 11.71875 0 
z
M 11.71875 51.703125 
L 22.015625 51.703125 
L 22.015625 39.3125 
L 11.71875 39.3125 
z
" id="DejaVuSans-58"/>
      <path d="M 64.40625 67.28125 
L 64.40625 56.890625 
Q 59.421875 61.53125 53.78125 63.8125 
Q 48.140625 66.109375 41.796875 66.109375 
Q 29.296875 66.109375 22.65625 58.46875 
Q 16.015625 50.828125 16.015625 36.375 
Q 16.015625 21.96875 22.65625 14.328125 
Q 29.296875 6.6875 41.796875 6.6875 
Q 48.140625 6.6875 53.78125 8.984375 
Q 59.421875 11.28125 64.40625 15.921875 
L 64.40625 5.609375 
Q 59.234375 2.09375 53.4375 0.328125 
Q 47.65625 -1.421875 41.21875 -1.421875 
Q 24.65625 -1.421875 15.125 8.703125 
Q 5.609375 18.84375 5.609375 36.375 
Q 5.609375 53.953125 15.125 64.078125 
Q 24.65625 74.21875 41.21875 74.21875 
Q 47.75 74.21875 53.53125 72.484375 
Q 59.328125 70.75 64.40625 67.28125 
z
" id="DejaVuSans-67"/>
      <path d="M 48.78125 52.59375 
L 48.78125 44.1875 
Q 44.96875 46.296875 41.140625 47.34375 
Q 37.3125 48.390625 33.40625 48.390625 
Q 24.65625 48.390625 19.8125 42.84375 
Q 14.984375 37.3125 14.984375 27.296875 
Q 14.984375 17.28125 19.8125 11.734375 
Q 24.65625 6.203125 33.40625 6.203125 
Q 37.3125 6.203125 41.140625 7.25 
Q 44.96875 8.296875 48.78125 10.40625 
L 48.78125 2.09375 
Q 45.015625 0.34375 40.984375 -0.53125 
Q 36.96875 -1.421875 32.421875 -1.421875 
Q 20.0625 -1.421875 12.78125 6.34375 
Q 5.515625 14.109375 5.515625 27.296875 
Q 5.515625 40.671875 12.859375 48.328125 
Q 20.21875 56 33.015625 56 
Q 37.15625 56 41.109375 55.140625 
Q 45.0625 54.296875 48.78125 52.59375 
z
" id="DejaVuSans-99"/>
     </defs>
     <g transform="translate(14.798438 297.503181)rotate(-90)scale(0.1 -0.1)">
      <use xlink:href="#DejaVuSans-82"/>
      <use x="69.482422" xlink:href="#DejaVuSans-49"/>
      <use x="133.105469" xlink:href="#DejaVuSans-32"/>
      <use x="164.892578" xlink:href="#DejaVuSans-66"/>
      <use x="233.496094" xlink:href="#DejaVuSans-101"/>
      <use x="295.019531" xlink:href="#DejaVuSans-102"/>
      <use x="330.224609" xlink:href="#DejaVuSans-111"/>
      <use x="391.40625" xlink:href="#DejaVuSans-114"/>
      <use x="432.488281" xlink:href="#DejaVuSans-101"/>
      <use x="494.011719" xlink:href="#DejaVuSans-32"/>
      <use x="525.798828" xlink:href="#DejaVuSans-102"/>
      <use x="561.003906" xlink:href="#DejaVuSans-105"/>
      <use x="588.787109" xlink:href="#DejaVuSans-108"/>
      <use x="616.570312" xlink:href="#DejaVuSans-116"/>
      <use x="655.779297" xlink:href="#DejaVuSans-101"/>
      <use x="717.302734" xlink:href="#DejaVuSans-114"/>
      <use x="758.416016" xlink:href="#DejaVuSans-105"/>
      <use x="786.199219" xlink:href="#DejaVuSans-110"/>
      <use x="849.578125" xlink:href="#DejaVuSans-103"/>
      <use x="913.054688" xlink:href="#DejaVuSans-58"/>
      <use x="946.746094" xlink:href="#DejaVuSans-32"/>
      <use x="978.533203" xlink:href="#DejaVuSans-66"/>
      <use x="1047.136719" xlink:href="#DejaVuSans-97"/>
      <use x="1108.416016" xlink:href="#DejaVuSans-115"/>
      <use x="1160.515625" xlink:href="#DejaVuSans-101"/>
      <use x="1222.039062" xlink:href="#DejaVuSans-32"/>
      <use x="1253.826172" xlink:href="#DejaVuSans-67"/>
      <use x="1323.650391" xlink:href="#DejaVuSans-111"/>
      <use x="1384.832031" xlink:href="#DejaVuSans-110"/>
      <use x="1448.210938" xlink:href="#DejaVuSans-116"/>
      <use x="1487.419922" xlink:href="#DejaVuSans-101"/>
      <use x="1548.943359" xlink:href="#DejaVuSans-110"/>
      <use x="1612.322266" xlink:href="#DejaVuSans-116"/>
      <use x="1651.53125" xlink:href="#DejaVuSans-32"/>
      <use x="1683.318359" xlink:href="#DejaVuSans-80"/>
      <use x="1743.574219" xlink:href="#DejaVuSans-101"/>
      <use x="1805.097656" xlink:href="#DejaVuSans-114"/>
      <use x="1846.179688" xlink:href="#DejaVuSans-99"/>
      <use x="1901.160156" xlink:href="#DejaVuSans-101"/>
      <use x="1962.683594" xlink:href="#DejaVuSans-110"/>
      <use x="2026.0625" xlink:href="#DejaVuSans-116"/>
     </g>
    </g>
   </g>
   <g id="line2d_7">
    <path clip-path="url(#p1d9f6410a2)" d="M 76.613125 353.2239 
L 129.338628 353.2239 
L 135.197018 353.11198 
L 141.055407 353.2239 
L 152.772185 353.2239 
L 176.205742 353.215141 
L 182.064132 340.154588 
L 187.922521 353.2239 
L 492.558763 353.2239 
L 498.417152 353.05445 
L 504.275541 353.2239 
L 674.16883 353.2239 
L 680.027219 348.982398 
L 685.885608 353.2239 
L 703.460776 353.2239 
L 709.319165 343.000784 
L 715.177555 353.2239 
L 797.195004 353.212794 
L 803.053393 353.049521 
L 808.911783 353.2239 
L 949.513125 353.2239 
L 949.513125 353.2239 
" style="fill:none;stroke:#7cb5ec;stroke-linecap:square;"/>
   </g>
   <g id="line2d_8">
    <path clip-path="url(#p1d9f6410a2)" d="M 76.613125 353.2239 
L 176.205742 353.207756 
L 182.064132 340.832051 
L 187.922521 353.2239 
L 674.16883 353.2239 
L 680.027219 349.469976 
L 685.885608 353.2239 
L 703.460776 353.2239 
L 709.319165 343.356463 
L 715.177555 353.2239 
L 949.513125 353.2239 
L 949.513125 353.2239 
" style="fill:none;stroke:#434348;stroke-linecap:square;"/>
   </g>
   <g id="line2d_9">
    <path clip-path="url(#p1d9f6410a2)" d="M 76.613125 353.2239 
L 176.205742 353.211076 
L 182.064132 341.895527 
L 187.922521 353.2239 
L 674.16883 353.2239 
L 680.027219 349.584623 
L 685.885608 353.2239 
L 703.460776 353.2239 
L 709.319165 343.584891 
L 715.177555 353.2239 
L 949.513125 353.2239 
L 949.513125 353.2239 
" style="fill:none;stroke:#90ed7d;stroke-linecap:square;"/>
   </g>
   <g id="line2d_10">
    <path clip-path="url(#p1d9f6410a2)" d="M 76.613125 353.2239 
L 129.338628 353.2239 
L 135.197018 353.086372 
L 141.055407 353.2239 
L 146.913796 353.157025 
L 158.630575 353.2239 
L 176.205742 353.207654 
L 182.064132 338.208815 
L 187.922521 353.2239 
L 398.824534 353.170576 
L 416.399702 353.2239 
L 422.258091 353.098492 
L 428.116481 353.222957 
L 492.558763 353.2239 
L 498.417152 353.026887 
L 504.275541 353.2239 
L 674.16883 353.2239 
L 680.027219 349.103187 
L 685.885608 353.2239 
L 703.460776 353.2239 
L 709.319165 342.822658 
L 715.177555 353.2239 
L 797.195004 353.209532 
L 803.053393 353.085646 
L 808.911783 353.2239 
L 949.513125 353.2239 
L 949.513125 353.2239 
" style="fill:none;stroke:#f7a35c;stroke-linecap:square;"/>
   </g>
   <g id="line2d_11">
    <path clip-path="url(#p1d9f6410a2)" d="M 76.613125 353.2239 
L 129.338628 353.2239 
L 135.197018 353.095576 
L 141.055407 353.2239 
L 146.913796 353.165862 
L 158.630575 353.2239 
L 176.205742 353.212452 
L 182.064132 339.593375 
L 187.922521 353.2239 
L 492.558763 353.2239 
L 498.417152 353.056248 
L 504.275541 353.2239 
L 674.16883 353.2239 
L 680.027219 349.093419 
L 685.885608 353.2239 
L 703.460776 353.2239 
L 709.319165 343.033344 
L 715.177555 353.2239 
L 797.195004 353.220377 
L 803.053393 353.080218 
L 808.911783 353.2239 
L 949.513125 353.2239 
L 949.513125 353.2239 
" style="fill:none;stroke:#8085e9;stroke-linecap:square;"/>
   </g>
   <g id="line2d_12">
    <path clip-path="url(#p1d9f6410a2)" d="M 76.613125 353.2239 
L 129.338628 353.2239 
L 135.197018 353.083698 
L 141.055407 353.223523 
L 146.913796 353.164163 
L 158.630575 353.2239 
L 176.205742 353.207694 
L 182.064132 338.536259 
L 187.922521 353.2239 
L 492.558763 353.2239 
L 498.417152 353.018849 
L 504.275541 353.2239 
L 674.16883 353.2239 
L 680.027219 348.715394 
L 685.885608 353.2239 
L 703.460776 353.2239 
L 709.319165 342.455405 
L 715.177555 353.2239 
L 797.195004 353.218011 
L 803.053393 353.035446 
L 808.911783 353.2239 
L 949.513125 353.2239 
L 949.513125 353.2239 
" style="fill:none;stroke:#f15c80;stroke-linecap:square;"/>
   </g>
   <g id="line2d_13">
    <path clip-path="url(#p1d9f6410a2)" d="M 76.613125 353.2239 
L 129.338628 353.2239 
L 135.197018 353.098158 
L 141.055407 353.2239 
L 152.772185 353.2239 
L 176.205742 353.209655 
L 182.064132 339.787526 
L 187.922521 353.2239 
L 674.16883 353.2239 
L 680.027219 348.98159 
L 685.885608 353.2239 
L 703.460776 353.2239 
L 709.319165 343.108829 
L 715.177555 353.2239 
L 797.195004 353.220963 
L 803.053393 353.070692 
L 808.911783 353.2239 
L 838.203729 353.2239 
L 844.062118 353.111929 
L 849.920508 353.2239 
L 949.513125 353.2239 
L 949.513125 353.2239 
" style="fill:none;stroke:#e4d354;stroke-linecap:square;"/>
   </g>
   <g id="line2d_14">
    <path clip-path="url(#p1d9f6410a2)" d="M 76.613125 353.2239 
L 129.338628 353.2239 
L 135.197018 353.097825 
L 141.055407 353.2239 
L 152.772185 353.2239 
L 176.205742 353.209991 
L 182.064132 339.155978 
L 187.922521 353.2239 
L 545.284266 353.2239 
L 674.16883 353.2239 
L 680.027219 349.102939 
L 685.885608 353.2239 
L 703.460776 353.2239 
L 709.319165 342.795058 
L 715.177555 353.2239 
L 797.195004 353.219588 
L 803.053393 353.107288 
L 808.911783 353.2239 
L 949.513125 353.2239 
L 949.513125 353.2239 
" style="fill:none;stroke:#2b908f;stroke-linecap:square;"/>
   </g>
   <g id="line2d_15">
    <path clip-path="url(#p1d9f6410a2)" d="M 76.613125 353.2239 
L 129.338628 353.2239 
L 135.197018 353.091269 
L 141.055407 353.2239 
L 152.772185 353.2239 
L 176.205742 353.205562 
L 182.064132 339.649401 
L 187.922521 353.2239 
L 498.417152 353.082975 
L 504.275541 353.2239 
L 674.16883 353.2239 
L 680.027219 349.037902 
L 685.885608 353.2239 
L 703.460776 353.2239 
L 709.319165 342.992644 
L 715.177555 353.2239 
L 797.195004 353.2239 
L 803.053393 353.074597 
L 808.911783 353.2239 
L 949.513125 353.2239 
L 949.513125 353.2239 
" style="fill:none;stroke:#f45b5b;stroke-linecap:square;"/>
   </g>
   <g id="line2d_16">
    <path clip-path="url(#p1d9f6410a2)" d="M 76.613125 353.2239 
L 129.338628 353.2239 
L 135.197018 353.081745 
L 141.055407 353.2239 
L 146.913796 353.166413 
L 158.630575 353.2239 
L 176.205742 353.209528 
L 182.064132 339.242084 
L 187.922521 353.2239 
L 445.691648 353.220695 
L 492.558763 353.2239 
L 498.417152 353.084763 
L 504.275541 353.2239 
L 674.16883 353.2239 
L 680.027219 349.030983 
L 685.885608 353.2239 
L 703.460776 353.2239 
L 709.319165 342.889558 
L 715.177555 353.2239 
L 797.195004 353.220779 
L 803.053393 353.09701 
L 808.911783 353.2239 
L 949.513125 353.2239 
L 949.513125 353.2239 
" style="fill:none;stroke:#91e8e1;stroke-linecap:square;"/>
   </g>
   <g id="line2d_17">
    <path clip-path="url(#p1d9f6410a2)" d="M 76.613125 353.2239 
L 176.205742 353.208967 
L 182.064132 339.638081 
L 187.922521 353.2239 
L 492.558763 353.2239 
L 498.417152 353.039784 
L 504.275541 353.2239 
L 674.16883 353.2239 
L 680.027219 349.185897 
L 685.885608 353.2239 
L 703.460776 353.2239 
L 709.319165 342.834741 
L 715.177555 353.2239 
L 885.070843 353.2239 
L 890.929232 353.105824 
L 908.5044 353.2239 
L 949.513125 353.2239 
L 949.513125 353.2239 
" style="fill:none;stroke:#7cb5ec;stroke-linecap:square;"/>
   </g>
   <g id="line2d_18">
    <path clip-path="url(#p1d9f6410a2)" d="M 76.613125 353.2239 
L 129.338628 353.2239 
L 135.197018 353.081493 
L 141.055407 353.2239 
L 146.913796 353.153946 
L 158.630575 353.2239 
L 176.205742 353.20891 
L 182.064132 339.85767 
L 187.922521 353.2239 
L 316.807085 353.2239 
L 416.399702 353.2239 
L 422.258091 353.111744 
L 433.97487 353.2239 
L 492.558763 353.2239 
L 498.417152 353.069869 
L 504.275541 353.2239 
L 674.16883 353.2239 
L 680.027219 349.227818 
L 685.885608 353.2239 
L 703.460776 353.2239 
L 709.319165 342.889558 
L 715.177555 353.2239 
L 797.195004 353.2239 
L 803.053393 353.086654 
L 808.911783 353.2239 
L 838.203729 353.2239 
L 844.062118 353.073941 
L 849.920508 353.2239 
L 949.513125 353.2239 
L 949.513125 353.2239 
" style="fill:none;stroke:#434348;stroke-linecap:square;"/>
   </g>
   <g id="line2d_19">
    <path clip-path="url(#p1d9f6410a2)" d="M 76.613125 353.2239 
L 129.338628 353.2239 
L 135.197018 353.086611 
L 141.055407 353.2239 
L 152.772185 353.2239 
L 176.205742 353.20975 
L 182.064132 338.678454 
L 187.922521 353.2239 
L 498.417152 353.047516 
L 504.275541 353.2239 
L 674.16883 353.2239 
L 680.027219 349.07003 
L 685.885608 353.2239 
L 703.460776 353.2239 
L 709.319165 342.826792 
L 715.177555 353.2239 
L 797.195004 353.219852 
L 803.053393 353.05885 
L 808.911783 353.2239 
L 949.513125 353.2239 
L 949.513125 353.2239 
" style="fill:none;stroke:#90ed7d;stroke-linecap:square;"/>
   </g>
   <g id="line2d_20">
    <path clip-path="url(#p1d9f6410a2)" d="M 76.613125 353.2239 
L 129.338628 353.2239 
L 135.197018 353.084211 
L 141.055407 353.2239 
L 146.913796 353.155824 
L 158.630575 353.2239 
L 176.205742 353.211522 
L 182.064132 338.983957 
L 187.922521 353.2239 
L 480.841984 353.2239 
L 492.558763 353.2239 
L 498.417152 353.039667 
L 504.275541 353.2239 
L 674.16883 353.2239 
L 680.027219 348.962264 
L 685.885608 353.2239 
L 703.460776 353.2239 
L 709.319165 343.009496 
L 715.177555 353.2239 
L 797.195004 353.209549 
L 803.053393 353.020575 
L 808.911783 353.2239 
L 890.929232 353.17677 
L 896.787622 353.108266 
L 902.646011 353.2239 
L 949.513125 353.2239 
L 949.513125 353.2239 
" style="fill:none;stroke:#f7a35c;stroke-linecap:square;"/>
   </g>
   <g id="line2d_21">
    <path clip-path="url(#p1d9f6410a2)" d="M 76.613125 353.2239 
L 129.338628 353.2239 
L 135.197018 353.100121 
L 141.055407 353.2239 
L 146.913796 353.16168 
L 158.630575 353.2239 
L 176.205742 353.211985 
L 182.064132 339.485202 
L 187.922521 353.2239 
L 492.558763 353.2239 
L 498.417152 353.049548 
L 504.275541 353.2239 
L 674.16883 353.2239 
L 680.027219 348.86791 
L 685.885608 353.2239 
L 703.460776 353.2239 
L 709.319165 342.934074 
L 715.177555 353.2239 
L 797.195004 353.214077 
L 803.053393 353.027946 
L 808.911783 353.2239 
L 949.513125 353.2239 
L 949.513125 353.2239 
" style="fill:none;stroke:#8085e9;stroke-linecap:square;"/>
   </g>
   <g id="line2d_22">
    <path clip-path="url(#p1d9f6410a2)" d="M 76.613125 353.2239 
L 129.338628 353.2239 
L 135.197018 353.067778 
L 141.055407 353.2239 
L 152.772185 353.2239 
L 176.205742 353.213442 
L 182.064132 338.657532 
L 187.922521 353.2239 
L 404.682924 353.2239 
L 416.399702 353.2239 
L 422.258091 353.111654 
L 433.97487 353.2239 
L 492.558763 353.2239 
L 498.417152 353.056164 
L 504.275541 353.2239 
L 674.16883 353.2239 
L 680.027219 348.732723 
L 685.885608 353.2239 
L 703.460776 353.2239 
L 709.319165 342.887841 
L 715.177555 353.2239 
L 797.195004 353.2239 
L 803.053393 353.050214 
L 808.911783 353.2239 
L 949.513125 353.2239 
L 949.513125 353.2239 
" style="fill:none;stroke:#f15c80;stroke-linecap:square;"/>
   </g>
   <g id="line2d_23">
    <path clip-path="url(#p1d9f6410a2)" d="M 76.613125 353.2239 
L 129.338628 353.2239 
L 135.197018 353.096423 
L 141.055407 353.2239 
L 146.913796 353.153877 
L 158.630575 353.2239 
L 176.205742 353.20415 
L 182.064132 339.009331 
L 187.922521 353.2239 
L 492.558763 353.2239 
L 498.417152 353.044585 
L 504.275541 353.2239 
L 674.16883 353.2239 
L 680.027219 349.048535 
L 685.885608 353.2239 
L 703.460776 353.2239 
L 709.319165 343.297766 
L 715.177555 353.2239 
L 797.195004 353.2239 
L 803.053393 353.039594 
L 808.911783 353.2239 
L 838.203729 353.2239 
L 844.062118 353.109032 
L 849.920508 353.2239 
L 902.646011 353.203392 
L 937.796346 353.2239 
L 949.513125 353.2239 
L 949.513125 353.2239 
" style="fill:none;stroke:#e4d354;stroke-linecap:square;"/>
   </g>
   <g id="line2d_24">
    <path clip-path="url(#p1d9f6410a2)" d="M 76.613125 353.2239 
L 129.338628 353.2239 
L 135.197018 353.090498 
L 141.055407 353.2239 
L 146.913796 353.164387 
L 158.630575 353.2239 
L 176.205742 353.210526 
L 182.064132 339.564758 
L 187.922521 353.2239 
L 492.558763 353.2239 
L 498.417152 353.069292 
L 504.275541 353.2239 
L 674.16883 353.2239 
L 680.027219 349.331857 
L 685.885608 353.2239 
L 703.460776 353.2239 
L 709.319165 342.921546 
L 715.177555 353.2239 
L 797.195004 353.218854 
L 803.053393 353.017335 
L 808.911783 353.2239 
L 949.513125 353.2239 
L 949.513125 353.2239 
" style="fill:none;stroke:#2b908f;stroke-linecap:square;"/>
   </g>
   <g id="line2d_25">
    <path clip-path="url(#p1d9f6410a2)" d="M 76.613125 353.2239 
L 176.205742 353.211431 
L 182.064132 339.166726 
L 187.922521 353.2239 
L 492.558763 353.2239 
L 498.417152 353.050995 
L 504.275541 353.2239 
L 674.16883 353.2239 
L 680.027219 348.884425 
L 685.885608 353.2239 
L 703.460776 353.2239 
L 709.319165 342.966697 
L 715.177555 353.2239 
L 838.203729 353.2239 
L 844.062118 353.101239 
L 849.920508 353.2239 
L 885.070843 353.2239 
L 890.929232 353.107794 
L 908.5044 353.2239 
L 949.513125 353.2239 
L 949.513125 353.2239 
" style="fill:none;stroke:#f45b5b;stroke-linecap:square;"/>
   </g>
   <g id="line2d_26">
    <path clip-path="url(#p1d9f6410a2)" d="M 76.613125 353.2239 
L 129.338628 353.2239 
L 135.197018 353.077406 
L 141.055407 353.2239 
L 146.913796 353.157787 
L 158.630575 353.2239 
L 176.205742 353.210107 
L 182.064132 337.413514 
L 187.922521 353.2239 
L 527.709098 353.220111 
L 650.735273 353.192046 
L 674.16883 353.2239 
L 680.027219 348.877398 
L 685.885608 353.2239 
L 703.460776 353.2239 
L 709.319165 343.160149 
L 715.177555 353.2239 
L 797.195004 353.2239 
L 803.053393 353.100983 
L 808.911783 353.2239 
L 838.203729 353.2239 
L 844.062118 353.100492 
L 849.920508 353.2239 
L 908.5044 353.2239 
L 949.513125 353.2239 
L 949.513125 353.2239 
" style="fill:none;stroke:#91e8e1;stroke-linecap:square;"/>
   </g>
   <g id="line2d_27">
    <path clip-path="url(#p1d9f6410a2)" d="M 76.613125 353.2239 
L 129.338628 353.2239 
L 135.197018 353.100665 
L 141.055407 353.2239 
L 146.913796 353.163909 
L 158.630575 353.2239 
L 176.205742 353.207637 
L 182.064132 338.715402 
L 187.922521 353.2239 
L 492.558763 353.2239 
L 498.417152 353.058057 
L 504.275541 353.2239 
L 674.16883 353.2239 
L 680.027219 348.937812 
L 685.885608 353.2239 
L 703.460776 353.2239 
L 709.319165 342.975092 
L 715.177555 353.2239 
L 797.195004 353.2239 
L 803.053393 353.068752 
L 808.911783 353.2239 
L 949.513125 353.2239 
L 949.513125 353.2239 
" style="fill:none;stroke:#7cb5ec;stroke-linecap:square;"/>
   </g>
   <g id="line2d_28">
    <path clip-path="url(#p1d9f6410a2)" d="M 76.613125 353.2239 
L 129.338628 353.2239 
L 135.197018 353.097845 
L 141.055407 353.2239 
L 152.772185 353.2239 
L 176.205742 353.209275 
L 182.064132 339.093211 
L 187.922521 353.2239 
L 498.417152 353.055967 
L 504.275541 353.2239 
L 674.16883 353.2239 
L 680.027219 349.009921 
L 685.885608 353.2239 
L 703.460776 353.2239 
L 709.319165 343.162502 
L 715.177555 353.2239 
L 797.195004 353.2239 
L 803.053393 353.063658 
L 808.911783 353.2239 
L 838.203729 353.2239 
L 844.062118 353.110808 
L 849.920508 353.2239 
L 949.513125 353.2239 
L 949.513125 353.2239 
" style="fill:none;stroke:#434348;stroke-linecap:square;"/>
   </g>
   <g id="line2d_29">
    <path clip-path="url(#p1d9f6410a2)" d="M 76.613125 353.2239 
L 129.338628 353.2239 
L 135.197018 353.100429 
L 141.055407 353.2239 
L 152.772185 353.2239 
L 176.205742 353.206396 
L 182.064132 338.680743 
L 187.922521 353.2239 
L 527.709098 353.220743 
L 674.16883 353.2239 
L 680.027219 348.593688 
L 685.885608 353.2239 
L 703.460776 353.2239 
L 709.319165 342.998749 
L 715.177555 353.2239 
L 797.195004 353.2239 
L 803.053393 353.065788 
L 808.911783 353.2239 
L 949.513125 353.2239 
L 949.513125 353.2239 
" style="fill:none;stroke:#90ed7d;stroke-linecap:square;"/>
   </g>
   <g id="line2d_30">
    <path clip-path="url(#p1d9f6410a2)" d="M 76.613125 353.2239 
L 129.338628 353.2239 
L 135.197018 353.107004 
L 141.055407 353.221919 
L 152.772185 353.2239 
L 176.205742 353.212012 
L 182.064132 339.537158 
L 187.922521 353.2239 
L 492.558763 353.2239 
L 498.417152 353.080102 
L 504.275541 353.2239 
L 674.16883 353.2239 
L 680.027219 349.010792 
L 685.885608 353.2239 
L 703.460776 353.2239 
L 709.319165 343.072008 
L 715.177555 353.2239 
L 949.513125 353.2239 
L 949.513125 353.2239 
" style="fill:none;stroke:#f7a35c;stroke-linecap:square;"/>
   </g>
   <g id="line2d_31">
    <path clip-path="url(#p1d9f6410a2)" d="M 76.613125 353.2239 
L 129.338628 353.2239 
L 135.197018 353.10874 
L 141.055407 353.2239 
L 152.772185 353.2239 
L 176.205742 353.208721 
L 182.064132 340.036304 
L 187.922521 353.2239 
L 515.99232 353.2239 
L 674.16883 353.2239 
L 680.027219 349.129197 
L 685.885608 353.2239 
L 703.460776 353.2239 
L 709.319165 343.469532 
L 715.177555 353.2239 
L 797.195004 353.21964 
L 803.053393 353.089853 
L 808.911783 353.2239 
L 949.513125 353.2239 
L 949.513125 353.2239 
" style="fill:none;stroke:#8085e9;stroke-linecap:square;"/>
   </g>
   <g id="line2d_32">
    <path clip-path="url(#p1d9f6410a2)" d="M 76.613125 353.2239 
L 703.460776 353.2239 
L 709.319165 323.226926 
L 715.177555 353.2239 
L 949.513125 353.2239 
L 949.513125 353.2239 
" style="fill:none;stroke:#f15c80;stroke-linecap:square;"/>
   </g>
   <g id="line2d_33">
    <path clip-path="url(#p1d9f6410a2)" d="M 76.613125 353.2239 
L 176.205742 353.2239 
L 182.064132 342.916967 
L 187.922521 353.2239 
L 674.16883 353.2239 
L 680.027219 335.895916 
L 685.885608 353.2239 
L 703.460776 353.2239 
L 709.319165 332.509366 
L 715.177555 353.2239 
L 949.513125 353.2239 
L 949.513125 353.2239 
" style="fill:none;stroke:#e4d354;stroke-linecap:square;"/>
   </g>
   <g id="line2d_34">
    <path clip-path="url(#p1d9f6410a2)" d="M 76.613125 353.2239 
L 176.205742 353.2239 
L 182.064132 345.635149 
L 187.922521 353.2239 
L 703.460776 353.2239 
L 709.319165 295.147554 
L 715.177555 353.2239 
L 949.513125 353.2239 
L 949.513125 353.2239 
" style="fill:none;stroke:#2b908f;stroke-linecap:square;"/>
   </g>
   <g id="line2d_35">
    <path clip-path="url(#p1d9f6410a2)" d="M 76.613125 353.2239 
L 176.205742 353.2239 
L 182.064132 344.033734 
L 187.922521 353.2239 
L 674.16883 353.2239 
L 680.027219 347.639638 
L 685.885608 353.2239 
L 703.460776 353.2239 
L 709.319165 345.35114 
L 715.177555 353.2239 
L 949.513125 353.2239 
L 949.513125 353.2239 
" style="fill:none;stroke:#f45b5b;stroke-linecap:square;"/>
   </g>
   <g id="line2d_36">
    <path clip-path="url(#p1d9f6410a2)" d="M 76.613125 353.2239 
L 949.513125 353.2239 
L 949.513125 353.2239 
" style="fill:none;stroke:#91e8e1;stroke-linecap:square;"/>
   </g>
   <g id="line2d_37">
    <path clip-path="url(#p1d9f6410a2)" d="M 76.613125 353.2239 
L 176.205742 353.2239 
L 182.064132 339.620466 
L 187.922521 353.2239 
L 674.16883 353.2239 
L 680.027219 349.519776 
L 685.885608 353.2239 
L 703.460776 353.2239 
L 709.319165 342.384498 
L 715.177555 353.2239 
L 949.513125 353.2239 
L 949.513125 353.2239 
" style="fill:none;stroke:#7cb5ec;stroke-linecap:square;"/>
   </g>
   <g id="line2d_38">
    <path clip-path="url(#p1d9f6410a2)" d="M 76.613125 353.2239 
L 949.513125 353.2239 
L 949.513125 353.2239 
" style="fill:none;stroke:#434348;stroke-linecap:square;"/>
   </g>
   <g id="line2d_39">
    <path clip-path="url(#p1d9f6410a2)" d="M 76.613125 353.2239 
L 176.205742 353.2239 
L 182.064132 342.390221 
L 187.922521 353.2239 
L 674.16883 353.2239 
L 680.027219 336.310737 
L 685.885608 353.2239 
L 703.460776 353.2239 
L 709.319165 334.126742 
L 715.177555 353.2239 
L 949.513125 353.2239 
L 949.513125 353.2239 
" style="fill:none;stroke:#90ed7d;stroke-linecap:square;"/>
   </g>
   <g id="line2d_40">
    <path clip-path="url(#p1d9f6410a2)" d="M 76.613125 353.2239 
L 170.347353 353.2239 
L 176.205742 352.915627 
L 182.064132 341.509514 
L 187.922521 353.2239 
L 193.78091 353.2239 
L 199.639299 352.915627 
L 205.497689 353.2239 
L 492.558763 353.2239 
L 498.417152 352.755577 
L 504.275541 353.2239 
L 644.876883 353.2239 
L 650.735273 352.432637 
L 656.593662 353.2239 
L 674.16883 353.2239 
L 680.027219 345.292315 
L 685.885608 353.2239 
L 703.460776 353.2239 
L 709.319165 346.293279 
L 715.177555 353.2239 
L 949.513125 353.2239 
L 949.513125 353.2239 
" style="fill:none;stroke:#f7a35c;stroke-linecap:square;"/>
   </g>
   <g id="line2d_41">
    <path clip-path="url(#p1d9f6410a2)" d="M 76.613125 353.2239 
L 129.338628 353.2239 
L 135.197018 353.035569 
L 141.055407 353.2239 
L 170.347353 353.2239 
L 176.205742 353.035569 
L 182.064132 343.242376 
L 187.922521 353.2239 
L 217.214467 353.2239 
L 223.072857 353.035569 
L 228.931246 353.2239 
L 281.656749 353.2239 
L 287.515138 353.03387 
L 293.373528 353.2239 
L 674.16883 353.2239 
L 680.027219 350.015666 
L 685.885608 353.2239 
L 703.460776 353.2239 
L 709.319165 337.456884 
L 715.177555 353.2239 
L 949.513125 353.2239 
L 949.513125 353.2239 
" style="fill:none;stroke:#8085e9;stroke-linecap:square;"/>
   </g>
   <g id="line2d_42">
    <path clip-path="url(#p1d9f6410a2)" d="M 76.613125 353.2239 
L 129.338628 353.2239 
L 135.197018 352.249137 
L 141.055407 353.2239 
L 176.205742 353.2239 
L 182.064132 344.451036 
L 187.922521 353.2239 
L 674.16883 353.2239 
L 680.027219 349.308035 
L 685.885608 353.2239 
L 703.460776 353.2239 
L 709.319165 334.183913 
L 715.177555 353.2239 
L 949.513125 353.2239 
L 949.513125 353.2239 
" style="fill:none;stroke:#f15c80;stroke-linecap:square;"/>
   </g>
   <g id="line2d_43">
    <path clip-path="url(#p1d9f6410a2)" d="M 76.613125 353.2239 
L 176.205742 353.210369 
L 182.064132 342.164782 
L 187.922521 353.2239 
L 674.16883 353.2239 
L 680.027219 349.519929 
L 685.885608 353.2239 
L 703.460776 353.2239 
L 709.319165 343.656434 
L 715.177555 353.2239 
L 949.513125 353.2239 
L 949.513125 353.2239 
" style="fill:none;stroke:#e4d354;stroke-linecap:square;"/>
   </g>
   <g id="line2d_44">
    <path clip-path="url(#p1d9f6410a2)" d="M 76.613125 353.2239 
L 129.338628 353.2239 
L 135.197018 352.972671 
L 141.055407 353.2239 
L 176.205742 353.2239 
L 182.064132 339.908736 
L 187.922521 353.2239 
L 217.214467 353.2239 
L 223.072857 352.972671 
L 228.931246 353.2239 
L 281.656749 353.2239 
L 287.515138 352.970983 
L 293.373528 353.2239 
L 492.558763 353.2239 
L 498.417152 352.89032 
L 504.275541 353.2239 
L 674.16883 353.2239 
L 680.027219 351.246336 
L 685.885608 353.2239 
L 703.460776 353.2239 
L 709.319165 344.748272 
L 715.177555 353.2239 
L 949.513125 353.2239 
L 949.513125 353.2239 
" style="fill:none;stroke:#2b908f;stroke-linecap:square;"/>
   </g>
   <g id="line2d_45">
    <path clip-path="url(#p1d9f6410a2)" d="M 76.613125 353.2239 
L 176.205742 353.2239 
L 182.064132 342.67989 
L 187.922521 353.2239 
L 674.16883 353.2239 
L 680.027219 346.567176 
L 685.885608 353.2239 
L 703.460776 353.2239 
L 709.319165 335.92288 
L 715.177555 353.2239 
L 949.513125 353.2239 
L 949.513125 353.2239 
" style="fill:none;stroke:#f45b5b;stroke-linecap:square;"/>
   </g>
   <g id="line2d_46">
    <path clip-path="url(#p1d9f6410a2)" d="M 76.613125 353.2239 
L 129.338628 353.2239 
L 135.197018 352.934384 
L 141.055407 353.2239 
L 176.205742 353.2239 
L 182.064132 342.584182 
L 187.922521 353.2239 
L 416.399702 353.2239 
L 422.258091 353.034405 
L 428.116481 353.2239 
L 492.558763 353.2239 
L 498.417152 353.103124 
L 504.275541 353.2239 
L 674.16883 353.2239 
L 680.027219 348.640576 
L 685.885608 353.2239 
L 703.460776 353.2239 
L 709.319165 342.125545 
L 715.177555 353.2239 
L 797.195004 353.2239 
L 803.053393 352.767508 
L 808.911783 353.2239 
L 949.513125 353.2239 
L 949.513125 353.2239 
" style="fill:none;stroke:#91e8e1;stroke-linecap:square;"/>
   </g>
   <g id="line2d_47">
    <path clip-path="url(#p1d9f6410a2)" d="M 76.613125 353.2239 
L 176.205742 353.2239 
L 182.064132 345.228913 
L 187.922521 353.2239 
L 674.16883 353.2239 
L 680.027219 350.575271 
L 685.885608 353.2239 
L 703.460776 353.2239 
L 709.319165 347.294426 
L 715.177555 353.2239 
L 949.513125 353.2239 
L 949.513125 353.2239 
" style="fill:none;stroke:#7cb5ec;stroke-linecap:square;"/>
   </g>
   <g id="line2d_48">
    <path clip-path="url(#p1d9f6410a2)" d="M 76.613125 353.2239 
L 176.205742 353.2239 
L 182.064132 332.441702 
L 187.922521 353.2239 
L 674.16883 353.2239 
L 680.027219 327.477522 
L 685.885608 353.2239 
L 703.460776 353.2239 
L 709.319165 326.503904 
L 715.177555 353.2239 
L 949.513125 353.2239 
L 949.513125 353.2239 
" style="fill:none;stroke:#434348;stroke-linecap:square;"/>
   </g>
   <g id="line2d_49">
    <path clip-path="url(#p1d9f6410a2)" d="M 76.613125 353.2239 
L 949.513125 353.2239 
L 949.513125 353.2239 
" style="fill:none;stroke:#90ed7d;stroke-linecap:square;"/>
   </g>
   <g id="line2d_50">
    <path clip-path="url(#p1d9f6410a2)" d="M 76.613125 353.2239 
L 176.205742 353.2239 
L 182.064132 343.632077 
L 187.922521 353.2239 
L 703.460776 353.2239 
L 709.319165 341.017808 
L 715.177555 353.2239 
L 949.513125 353.2239 
L 949.513125 353.2239 
" style="fill:none;stroke:#f7a35c;stroke-linecap:square;"/>
   </g>
   <g id="line2d_51">
    <path clip-path="url(#p1d9f6410a2)" d="M 76.613125 353.2239 
L 129.338628 353.2239 
L 135.197018 353.026233 
L 141.055407 353.2239 
L 176.205742 353.2239 
L 182.064132 341.956831 
L 187.922521 353.2239 
L 674.16883 353.2239 
L 680.027219 349.87536 
L 685.885608 353.2239 
L 703.460776 353.2239 
L 709.319165 339.68336 
L 715.177555 353.2239 
L 949.513125 353.2239 
L 949.513125 353.2239 
" style="fill:none;stroke:#8085e9;stroke-linecap:square;"/>
   </g>
   <g id="line2d_52">
    <path clip-path="url(#p1d9f6410a2)" d="M 76.613125 353.2239 
L 176.205742 353.2239 
L 182.064132 339.332069 
L 187.922521 353.2239 
L 703.460776 353.2239 
L 709.319165 330.457709 
L 715.177555 353.2239 
L 949.513125 353.2239 
L 949.513125 353.2239 
" style="fill:none;stroke:#f15c80;stroke-linecap:square;"/>
   </g>
   <g id="line2d_53">
    <path clip-path="url(#p1d9f6410a2)" d="M 76.613125 353.2239 
L 141.055407 353.2239 
L 146.913796 353.006404 
L 152.772185 353.2239 
L 176.205742 353.2239 
L 182.064132 342.131586 
L 187.922521 353.2239 
L 293.373528 353.2239 
L 299.231917 352.998702 
L 305.090306 353.2239 
L 674.16883 353.2239 
L 680.027219 349.58929 
L 685.885608 353.2239 
L 703.460776 353.2239 
L 709.319165 340.706772 
L 715.177555 353.2239 
L 890.929232 353.2239 
L 896.787622 352.085861 
L 902.646011 353.2239 
L 949.513125 353.2239 
L 949.513125 353.2239 
" style="fill:none;stroke:#e4d354;stroke-linecap:square;"/>
   </g>
   <g id="line2d_54">
    <path clip-path="url(#p1d9f6410a2)" d="M 76.613125 353.2239 
L 176.205742 353.2239 
L 182.064132 345.555847 
L 187.922521 353.2239 
L 392.966145 353.2239 
L 398.824534 352.213678 
L 404.682924 353.2239 
L 457.408427 353.2239 
L 463.266816 352.067024 
L 469.125206 353.2239 
L 492.558763 353.2239 
L 498.417152 351.968849 
L 504.275541 353.2239 
L 674.16883 353.2239 
L 680.027219 347.328328 
L 685.885608 353.2239 
L 703.460776 353.2239 
L 709.319165 338.570981 
L 715.177555 353.2239 
L 949.513125 353.2239 
L 949.513125 353.2239 
" style="fill:none;stroke:#2b908f;stroke-linecap:square;"/>
   </g>
   <g id="line2d_55">
    <path clip-path="url(#p1d9f6410a2)" d="M 76.613125 353.2239 
L 129.338628 353.2239 
L 135.197018 353.11225 
L 141.055407 353.2239 
L 164.488964 353.2239 
L 176.205742 353.2239 
L 182.064132 341.537876 
L 187.922521 353.2239 
L 674.16883 353.2239 
L 680.027219 349.165293 
L 685.885608 353.2239 
L 703.460776 353.2239 
L 709.319165 343.551377 
L 715.177555 353.2239 
L 949.513125 353.2239 
L 949.513125 353.2239 
" style="fill:none;stroke:#f45b5b;stroke-linecap:square;"/>
   </g>
   <g id="line2d_56">
    <path clip-path="url(#p1d9f6410a2)" d="M 76.613125 353.2239 
L 129.338628 353.2239 
L 135.197018 352.691067 
L 141.055407 353.2239 
L 176.205742 353.2239 
L 182.064132 342.034415 
L 187.922521 353.2239 
L 193.78091 353.2239 
L 199.639299 352.691067 
L 205.497689 353.2239 
L 674.16883 353.2239 
L 680.027219 347.613526 
L 685.885608 353.2239 
L 703.460776 353.2239 
L 709.319165 339.250669 
L 715.177555 353.2239 
L 949.513125 353.2239 
L 949.513125 353.2239 
" style="fill:none;stroke:#91e8e1;stroke-linecap:square;"/>
   </g>
   <g id="line2d_57">
    <path clip-path="url(#p1d9f6410a2)" d="M 76.613125 353.2239 
L 176.205742 353.2239 
L 182.064132 343.4902 
L 187.922521 353.2239 
L 674.16883 353.2239 
L 680.027219 350.444459 
L 685.885608 353.2239 
L 703.460776 353.2239 
L 709.319165 340.95307 
L 715.177555 353.2239 
L 949.513125 353.2239 
L 949.513125 353.2239 
" style="fill:none;stroke:#7cb5ec;stroke-linecap:square;"/>
   </g>
   <g id="line2d_58">
    <path clip-path="url(#p1d9f6410a2)" d="M 76.613125 353.2239 
L 949.513125 353.2239 
L 949.513125 353.2239 
" style="fill:none;stroke:#434348;stroke-linecap:square;"/>
   </g>
   <g id="line2d_59">
    <path clip-path="url(#p1d9f6410a2)" d="M 76.613125 353.2239 
L 129.338628 353.2239 
L 135.197018 352.409641 
L 141.055407 353.2239 
L 176.205742 353.2239 
L 182.064132 338.567229 
L 187.922521 353.2239 
L 703.460776 353.2239 
L 709.319165 346.813284 
L 715.177555 353.2239 
L 949.513125 353.2239 
L 949.513125 353.2239 
" style="fill:none;stroke:#90ed7d;stroke-linecap:square;"/>
   </g>
   <g id="line2d_60">
    <path clip-path="url(#p1d9f6410a2)" d="M 76.613125 353.2239 
L 176.205742 353.2239 
L 182.064132 346.652646 
L 187.922521 353.2239 
L 217.214467 353.2239 
L 223.072857 351.58108 
L 228.931246 353.2239 
L 674.16883 353.2239 
L 680.027219 335.911687 
L 685.885608 353.2239 
L 703.460776 353.2239 
L 709.319165 340.192427 
L 715.177555 353.2239 
L 949.513125 353.2239 
L 949.513125 353.2239 
" style="fill:none;stroke:#f7a35c;stroke-linecap:square;"/>
   </g>
   <g id="line2d_61">
    <path clip-path="url(#p1d9f6410a2)" d="M 76.613125 353.2239 
L 176.205742 353.2239 
L 182.064132 321.925928 
L 187.922521 353.2239 
L 586.292991 353.2239 
L 592.15138 351.649411 
L 598.009769 353.2239 
L 674.16883 353.2239 
L 680.027219 349.324843 
L 685.885608 353.2239 
L 703.460776 353.2239 
L 709.319165 336.466668 
L 715.177555 353.2239 
L 949.513125 353.2239 
L 949.513125 353.2239 
" style="fill:none;stroke:#8085e9;stroke-linecap:square;"/>
   </g>
   <g id="line2d_62">
    <path clip-path="url(#p1d9f6410a2)" d="M 76.613125 353.2239 
L 176.205742 353.2239 
L 182.064132 343.571791 
L 187.922521 353.2239 
L 674.16883 353.2239 
L 680.027219 348.204673 
L 685.885608 353.2239 
L 703.460776 353.2239 
L 709.319165 344.59126 
L 715.177555 353.2239 
L 949.513125 353.2239 
L 949.513125 353.2239 
" style="fill:none;stroke:#f15c80;stroke-linecap:square;"/>
   </g>
   <g id="line2d_63">
    <path clip-path="url(#p1d9f6410a2)" d="M 76.613125 353.2239 
L 129.338628 353.2239 
L 135.197018 352.7157 
L 141.055407 353.2239 
L 176.205742 353.2239 
L 182.064132 343.186922 
L 187.922521 353.2239 
L 416.399702 353.2239 
L 422.258091 352.907002 
L 428.116481 353.2239 
L 644.876883 353.2239 
L 650.735273 352.916075 
L 656.593662 353.2239 
L 662.452051 353.2239 
L 668.31044 352.896182 
L 674.16883 353.2239 
L 680.027219 349.811493 
L 685.885608 353.2239 
L 703.460776 353.2239 
L 709.319165 343.756085 
L 715.177555 353.2239 
L 797.195004 353.2239 
L 803.053393 352.687653 
L 808.911783 353.2239 
L 949.513125 353.2239 
L 949.513125 353.2239 
" style="fill:none;stroke:#e4d354;stroke-linecap:square;"/>
   </g>
   <g id="line2d_64">
    <path clip-path="url(#p1d9f6410a2)" d="M 76.613125 353.2239 
L 176.205742 353.2239 
L 182.064132 343.470295 
L 187.922521 353.2239 
L 392.966145 353.2239 
L 398.824534 352.216399 
L 404.682924 353.2239 
L 416.399702 353.2239 
L 422.258091 352.169633 
L 428.116481 353.2239 
L 457.408427 353.2239 
L 463.266816 352.074547 
L 469.125206 353.2239 
L 674.16883 353.2239 
L 680.027219 341.110845 
L 685.885608 353.2239 
L 703.460776 353.2239 
L 709.319165 346.613345 
L 715.177555 353.2239 
L 797.195004 353.2239 
L 803.053393 350.333285 
L 808.911783 353.2239 
L 949.513125 353.2239 
L 949.513125 353.2239 
" style="fill:none;stroke:#2b908f;stroke-linecap:square;"/>
   </g>
   <g id="line2d_65">
    <path clip-path="url(#p1d9f6410a2)" d="M 76.613125 353.2239 
L 176.205742 353.203032 
L 182.064132 342.887523 
L 187.922521 353.2239 
L 674.16883 353.2239 
L 680.027219 349.334655 
L 685.885608 353.2239 
L 703.460776 353.2239 
L 709.319165 344.344389 
L 715.177555 353.2239 
L 949.513125 353.2239 
L 949.513125 353.2239 
" style="fill:none;stroke:#f45b5b;stroke-linecap:square;"/>
   </g>
   <g id="line2d_66">
    <path clip-path="url(#p1d9f6410a2)" d="M 76.613125 353.2239 
L 176.205742 353.2239 
L 182.064132 347.95662 
L 187.922521 353.2239 
L 674.16883 353.2239 
L 680.027219 346.165774 
L 685.885608 353.2239 
L 949.513125 353.2239 
L 949.513125 353.2239 
" style="fill:none;stroke:#91e8e1;stroke-linecap:square;"/>
   </g>
   <g id="line2d_67">
    <path clip-path="url(#p1d9f6410a2)" d="M 76.613125 353.2239 
L 129.338628 353.2239 
L 135.197018 352.494869 
L 141.055407 353.2239 
L 176.205742 353.2239 
L 182.064132 340.101297 
L 187.922521 353.2239 
L 416.399702 353.2239 
L 422.258091 352.316457 
L 428.116481 353.2239 
L 674.16883 353.2239 
L 680.027219 347.616 
L 685.885608 353.2239 
L 703.460776 353.2239 
L 709.319165 349.106475 
L 715.177555 353.2239 
L 949.513125 353.2239 
L 949.513125 353.2239 
" style="fill:none;stroke:#7cb5ec;stroke-linecap:square;"/>
   </g>
   <g id="line2d_68">
    <path clip-path="url(#p1d9f6410a2)" d="M 76.613125 353.2239 
L 176.205742 353.2239 
L 182.064132 341.449354 
L 187.922521 353.2239 
L 644.876883 353.2239 
L 650.735273 352.80969 
L 656.593662 353.2239 
L 662.452051 353.2239 
L 668.31044 352.768652 
L 674.16883 353.2239 
L 680.027219 349.81562 
L 685.885608 353.2239 
L 703.460776 353.2239 
L 709.319165 342.872261 
L 715.177555 353.2239 
L 949.513125 353.2239 
L 949.513125 353.2239 
" style="fill:none;stroke:#434348;stroke-linecap:square;"/>
   </g>
   <g id="line2d_69">
    <path clip-path="url(#p1d9f6410a2)" d="M 76.613125 353.2239 
L 176.205742 353.2239 
L 182.064132 335.870924 
L 187.922521 353.2239 
L 703.460776 353.2239 
L 709.319165 336.884351 
L 715.177555 353.2239 
L 949.513125 353.2239 
L 949.513125 353.2239 
" style="fill:none;stroke:#90ed7d;stroke-linecap:square;"/>
   </g>
   <g id="line2d_70">
    <path clip-path="url(#p1d9f6410a2)" d="M 76.613125 353.2239 
L 129.338628 353.2239 
L 135.197018 352.85593 
L 141.055407 353.2239 
L 176.205742 353.2239 
L 182.064132 341.724842 
L 187.922521 353.2239 
L 492.558763 353.2239 
L 498.417152 352.914758 
L 504.275541 353.2239 
L 674.16883 353.2239 
L 680.027219 348.771699 
L 685.885608 353.2239 
L 703.460776 353.2239 
L 709.319165 344.139109 
L 715.177555 353.2239 
L 949.513125 353.2239 
L 949.513125 353.2239 
" style="fill:none;stroke:#f7a35c;stroke-linecap:square;"/>
   </g>
   <g id="line2d_71">
    <path clip-path="url(#p1d9f6410a2)" d="M 76.613125 353.2239 
L 129.338628 353.2239 
L 135.197018 353.108786 
L 141.055407 353.2239 
L 158.630575 353.2239 
L 176.205742 353.216473 
L 182.064132 341.560198 
L 187.922521 353.2239 
L 492.558763 353.2239 
L 498.417152 353.102057 
L 504.275541 353.2239 
L 674.16883 353.2239 
L 680.027219 348.649523 
L 685.885608 353.2239 
L 703.460776 353.2239 
L 709.319165 342.229266 
L 715.177555 353.2239 
L 797.195004 353.206749 
L 803.053393 352.976871 
L 808.911783 353.2239 
L 838.203729 353.2239 
L 844.062118 353.093417 
L 849.920508 353.2239 
L 873.354065 353.2239 
L 885.070843 353.2239 
L 896.787622 353.108445 
L 902.646011 353.2239 
L 949.513125 353.2239 
L 949.513125 353.2239 
" style="fill:none;stroke:#8085e9;stroke-linecap:square;"/>
   </g>
   <g id="line2d_72">
    <path clip-path="url(#p1d9f6410a2)" d="M 76.613125 353.2239 
L 176.205742 353.2239 
L 182.064132 321.974005 
L 187.922521 353.2239 
L 949.513125 353.2239 
L 949.513125 353.2239 
" style="fill:none;stroke:#f15c80;stroke-linecap:square;"/>
   </g>
   <g id="line2d_73">
    <path clip-path="url(#p1d9f6410a2)" d="M 76.613125 353.2239 
L 100.046682 353.2239 
L 105.905071 353.033106 
L 111.763461 353.2239 
L 129.338628 353.2239 
L 135.197018 353.033106 
L 141.055407 353.2239 
L 170.347353 353.2239 
L 176.205742 353.033106 
L 182.064132 340.631477 
L 187.922521 353.2239 
L 217.214467 353.2239 
L 223.072857 353.033106 
L 228.931246 353.2239 
L 586.292991 353.2239 
L 592.15138 352.754955 
L 598.009769 353.2239 
L 674.16883 353.2239 
L 680.027219 345.989111 
L 685.885608 353.2239 
L 703.460776 353.2239 
L 709.319165 345.780269 
L 715.177555 353.2239 
L 949.513125 353.2239 
L 949.513125 353.2239 
" style="fill:none;stroke:#e4d354;stroke-linecap:square;"/>
   </g>
   <g id="line2d_74">
    <path clip-path="url(#p1d9f6410a2)" d="M 76.613125 353.2239 
L 176.205742 353.2239 
L 182.064132 341.551358 
L 187.922521 353.2239 
L 674.16883 353.2239 
L 680.027219 349.103944 
L 685.885608 353.2239 
L 703.460776 353.2239 
L 709.319165 344.006834 
L 715.177555 353.2239 
L 838.203729 353.2239 
L 844.062118 353.083986 
L 849.920508 353.2239 
L 885.070843 353.2239 
L 890.929232 353.069883 
L 896.787622 353.2239 
L 949.513125 353.2239 
L 949.513125 353.2239 
" style="fill:none;stroke:#2b908f;stroke-linecap:square;"/>
   </g>
   <g id="line2d_75">
    <path clip-path="url(#p1d9f6410a2)" d="M 76.613125 353.2239 
L 129.338628 353.2239 
L 135.197018 352.918563 
L 141.055407 353.2239 
L 146.913796 353.122121 
L 158.630575 353.2239 
L 176.205742 353.2239 
L 182.064132 339.076613 
L 187.922521 353.2239 
L 392.966145 353.2239 
L 398.824534 353.101492 
L 404.682924 353.2239 
L 492.558763 353.2239 
L 498.417152 353.057703 
L 504.275541 353.2239 
L 586.292991 353.2239 
L 592.15138 352.980805 
L 598.009769 353.2239 
L 674.16883 353.2239 
L 680.027219 350.697193 
L 685.885608 353.2239 
L 703.460776 353.2239 
L 709.319165 343.789853 
L 715.177555 353.2239 
L 949.513125 353.2239 
L 949.513125 353.2239 
" style="fill:none;stroke:#f45b5b;stroke-linecap:square;"/>
   </g>
   <g id="line2d_76">
    <path clip-path="url(#p1d9f6410a2)" d="M 76.613125 353.2239 
L 129.338628 353.2239 
L 135.197018 352.973718 
L 141.055407 353.2239 
L 176.205742 353.2239 
L 182.064132 341.715557 
L 187.922521 353.2239 
L 674.16883 353.2239 
L 680.027219 348.519735 
L 685.885608 353.2239 
L 703.460776 353.2239 
L 709.319165 340.549886 
L 715.177555 353.2239 
L 949.513125 353.2239 
L 949.513125 353.2239 
" style="fill:none;stroke:#91e8e1;stroke-linecap:square;"/>
   </g>
   <g id="line2d_77">
    <path clip-path="url(#p1d9f6410a2)" d="M 76.613125 353.2239 
L 129.338628 353.2239 
L 135.197018 353.096143 
L 141.055407 353.2239 
L 146.913796 353.160022 
L 158.630575 353.2239 
L 176.205742 353.2239 
L 182.064132 342.620049 
L 187.922521 353.2239 
L 644.876883 353.2239 
L 650.735273 353.071481 
L 656.593662 353.2239 
L 674.16883 353.2239 
L 680.027219 349.337174 
L 685.885608 353.2239 
L 703.460776 353.2239 
L 709.319165 342.396899 
L 715.177555 353.2239 
L 949.513125 353.2239 
L 949.513125 353.2239 
" style="fill:none;stroke:#7cb5ec;stroke-linecap:square;"/>
   </g>
   <g id="line2d_78">
    <path clip-path="url(#p1d9f6410a2)" d="M 76.613125 353.2239 
L 176.205742 353.2239 
L 182.064132 342.736807 
L 187.922521 353.2239 
L 703.460776 353.2239 
L 709.319165 343.089433 
L 715.177555 353.2239 
L 949.513125 353.2239 
L 949.513125 353.2239 
" style="fill:none;stroke:#434348;stroke-linecap:square;"/>
   </g>
   <g id="line2d_79">
    <path clip-path="url(#p1d9f6410a2)" d="M 76.613125 353.2239 
L 176.205742 353.2239 
L 182.064132 345.665228 
L 187.922521 353.2239 
L 674.16883 353.2239 
L 680.027219 324.097077 
L 685.885608 353.2239 
L 949.513125 353.2239 
L 949.513125 353.2239 
" style="fill:none;stroke:#90ed7d;stroke-linecap:square;"/>
   </g>
   <g id="line2d_80">
    <path clip-path="url(#p1d9f6410a2)" d="M 76.613125 353.2239 
L 176.205742 353.2239 
L 182.064132 344.293705 
L 187.922521 353.2239 
L 193.78091 353.2239 
L 199.639299 352.698593 
L 205.497689 353.2239 
L 674.16883 353.2239 
L 680.027219 349.507147 
L 685.885608 353.2239 
L 703.460776 353.2239 
L 709.319165 338.385415 
L 715.177555 353.2239 
L 949.513125 353.2239 
L 949.513125 353.2239 
" style="fill:none;stroke:#f7a35c;stroke-linecap:square;"/>
   </g>
   <g id="line2d_81">
    <path clip-path="url(#p1d9f6410a2)" d="M 76.613125 353.2239 
L 129.338628 353.2239 
L 135.197018 352.826017 
L 141.055407 353.2239 
L 176.205742 353.2239 
L 182.064132 340.491635 
L 187.922521 353.2239 
L 387.107756 353.2239 
L 392.966145 352.734455 
L 398.824534 353.2239 
L 633.160105 353.2239 
L 639.018494 352.025828 
L 644.876883 353.2239 
L 674.16883 353.2239 
L 680.027219 351.775301 
L 685.885608 353.2239 
L 703.460776 353.2239 
L 709.319165 344.825348 
L 715.177555 353.2239 
L 949.513125 353.2239 
L 949.513125 353.2239 
" style="fill:none;stroke:#8085e9;stroke-linecap:square;"/>
   </g>
   <g id="line2d_82">
    <path clip-path="url(#p1d9f6410a2)" d="M 76.613125 353.2239 
L 176.205742 353.2239 
L 182.064132 341.943222 
L 187.922521 353.2239 
L 492.558763 353.2239 
L 498.417152 353.070836 
L 504.275541 353.2239 
L 674.16883 353.2239 
L 680.027219 349.992518 
L 685.885608 353.2239 
L 703.460776 353.2239 
L 709.319165 343.242884 
L 715.177555 353.2239 
L 949.513125 353.2239 
L 949.513125 353.2239 
" style="fill:none;stroke:#f15c80;stroke-linecap:square;"/>
   </g>
   <g id="line2d_83">
    <path clip-path="url(#p1d9f6410a2)" d="M 76.613125 353.2239 
L 176.205742 353.2239 
L 182.064132 346.026758 
L 187.922521 353.2239 
L 674.16883 353.2239 
L 680.027219 347.543135 
L 685.885608 353.2239 
L 703.460776 353.2239 
L 709.319165 342.710733 
L 715.177555 353.2239 
L 949.513125 353.2239 
L 949.513125 353.2239 
" style="fill:none;stroke:#e4d354;stroke-linecap:square;"/>
   </g>
   <g id="line2d_84">
    <path clip-path="url(#p1d9f6410a2)" d="M 76.613125 353.2239 
L 176.205742 353.2239 
L 182.064132 336.879772 
L 187.922521 353.2239 
L 674.16883 353.2239 
L 680.027219 339.201066 
L 685.885608 353.2239 
L 703.460776 353.2239 
L 709.319165 311.108911 
L 715.177555 353.2239 
L 949.513125 353.2239 
L 949.513125 353.2239 
" style="fill:none;stroke:#2b908f;stroke-linecap:square;"/>
   </g>
   <g id="line2d_85">
    <path clip-path="url(#p1d9f6410a2)" d="M 76.613125 353.2239 
L 176.205742 353.2239 
L 182.064132 343.22883 
L 187.922521 353.2239 
L 674.16883 353.2239 
L 680.027219 349.231837 
L 685.885608 353.2239 
L 703.460776 353.2239 
L 709.319165 344.750371 
L 715.177555 353.2239 
L 949.513125 353.2239 
L 949.513125 353.2239 
" style="fill:none;stroke:#f45b5b;stroke-linecap:square;"/>
   </g>
   <g id="line2d_86">
    <path clip-path="url(#p1d9f6410a2)" d="M 76.613125 353.2239 
L 703.460776 353.2239 
L 709.319165 323.782416 
L 715.177555 353.2239 
L 949.513125 353.2239 
L 949.513125 353.2239 
" style="fill:none;stroke:#91e8e1;stroke-linecap:square;"/>
   </g>
   <g id="line2d_87">
    <path clip-path="url(#p1d9f6410a2)" d="M 76.613125 353.2239 
L 176.205742 353.2239 
L 182.064132 325.988923 
L 187.922521 353.2239 
L 703.460776 353.2239 
L 709.319165 314.209417 
L 715.177555 353.2239 
L 949.513125 353.2239 
L 949.513125 353.2239 
" style="fill:none;stroke:#7cb5ec;stroke-linecap:square;"/>
   </g>
   <g id="line2d_88">
    <path clip-path="url(#p1d9f6410a2)" d="M 76.613125 353.2239 
L 176.205742 353.208813 
L 182.064132 342.518426 
L 187.922521 353.2239 
L 510.13393 353.2239 
L 674.16883 353.2239 
L 680.027219 349.41851 
L 685.885608 353.2239 
L 703.460776 353.2239 
L 709.319165 343.914306 
L 715.177555 353.2239 
L 949.513125 353.2239 
L 949.513125 353.2239 
" style="fill:none;stroke:#434348;stroke-linecap:square;"/>
   </g>
   <g id="line2d_89">
    <path clip-path="url(#p1d9f6410a2)" d="M 76.613125 353.2239 
L 129.338628 353.2239 
L 135.197018 352.980749 
L 141.055407 353.2239 
L 176.205742 353.2239 
L 182.064132 341.795812 
L 187.922521 353.2239 
L 293.373528 353.2239 
L 299.231917 352.975604 
L 305.090306 353.2239 
L 387.107756 353.2239 
L 392.966145 352.640686 
L 398.824534 353.2239 
L 492.558763 353.2239 
L 498.417152 352.80692 
L 504.275541 353.2239 
L 586.292991 353.2239 
L 592.15138 352.584638 
L 598.009769 353.2239 
L 674.16883 353.2239 
L 680.027219 348.103642 
L 685.885608 353.2239 
L 703.460776 353.2239 
L 709.319165 342.433147 
L 715.177555 353.2239 
L 797.195004 353.2239 
L 803.053393 351.190208 
L 808.911783 353.2239 
L 949.513125 353.2239 
L 949.513125 353.2239 
" style="fill:none;stroke:#90ed7d;stroke-linecap:square;"/>
   </g>
   <g id="line2d_90">
    <path clip-path="url(#p1d9f6410a2)" d="M 76.613125 353.2239 
L 176.205742 353.2239 
L 182.064132 347.499904 
L 187.922521 353.2239 
L 703.460776 353.2239 
L 709.319165 348.897805 
L 715.177555 353.2239 
L 949.513125 353.2239 
L 949.513125 353.2239 
" style="fill:none;stroke:#f7a35c;stroke-linecap:square;"/>
   </g>
   <g id="line2d_91">
    <path clip-path="url(#p1d9f6410a2)" d="M 76.613125 353.2239 
L 176.205742 353.2239 
L 182.064132 337.225531 
L 187.922521 353.2239 
L 703.460776 353.2239 
L 709.319165 332.096453 
L 715.177555 353.2239 
L 949.513125 353.2239 
L 949.513125 353.2239 
" style="fill:none;stroke:#8085e9;stroke-linecap:square;"/>
   </g>
   <g id="line2d_92">
    <path clip-path="url(#p1d9f6410a2)" d="M 76.613125 353.2239 
L 176.205742 353.2239 
L 182.064132 341.601788 
L 187.922521 353.2239 
L 392.966145 353.2239 
L 398.824534 352.743985 
L 404.682924 353.2239 
L 457.408427 353.2239 
L 463.266816 352.675632 
L 469.125206 353.2239 
L 674.16883 353.2239 
L 680.027219 350.279752 
L 685.885608 353.2239 
L 703.460776 353.2239 
L 709.319165 347.879901 
L 715.177555 353.2239 
L 797.195004 353.2239 
L 803.053393 351.842634 
L 808.911783 353.2239 
L 949.513125 353.2239 
L 949.513125 353.2239 
" style="fill:none;stroke:#f15c80;stroke-linecap:square;"/>
   </g>
   <g id="line2d_93">
    <path clip-path="url(#p1d9f6410a2)" d="M 76.613125 353.2239 
L 176.205742 353.2239 
L 182.064132 338.122519 
L 187.922521 353.2239 
L 703.460776 353.2239 
L 709.319165 342.487774 
L 715.177555 353.2239 
L 949.513125 353.2239 
L 949.513125 353.2239 
" style="fill:none;stroke:#e4d354;stroke-linecap:square;"/>
   </g>
   <g id="line2d_94">
    <path clip-path="url(#p1d9f6410a2)" d="M 76.613125 353.2239 
L 176.205742 353.2239 
L 182.064132 339.783901 
L 187.922521 353.2239 
L 674.16883 353.2239 
L 680.027219 349.987584 
L 685.885608 353.2239 
L 703.460776 353.2239 
L 709.319165 346.426062 
L 715.177555 353.2239 
L 949.513125 353.2239 
L 949.513125 353.2239 
" style="fill:none;stroke:#2b908f;stroke-linecap:square;"/>
   </g>
   <g id="line2d_95">
    <path clip-path="url(#p1d9f6410a2)" d="M 76.613125 353.2239 
L 176.205742 353.2239 
L 182.064132 339.116359 
L 187.922521 353.2239 
L 674.16883 353.2239 
L 680.027219 348.625663 
L 685.885608 353.2239 
L 949.513125 353.2239 
L 949.513125 353.2239 
" style="fill:none;stroke:#f45b5b;stroke-linecap:square;"/>
   </g>
   <g id="line2d_96">
    <path clip-path="url(#p1d9f6410a2)" d="M 76.613125 353.2239 
L 129.338628 353.2239 
L 135.197018 352.967667 
L 141.055407 353.223747 
L 146.913796 353.093836 
L 152.772185 353.2239 
L 176.205742 353.200988 
L 182.064132 338.762143 
L 187.922521 353.2239 
L 363.674199 353.219285 
L 387.107756 353.22049 
L 392.966145 353.072152 
L 398.824534 353.090803 
L 404.682924 353.2239 
L 416.399702 353.2239 
L 422.258091 352.980741 
L 428.116481 353.218801 
L 492.558763 353.2239 
L 498.417152 353.022523 
L 504.275541 353.2239 
L 674.16883 353.2239 
L 680.027219 348.924483 
L 685.885608 353.2239 
L 703.460776 353.2239 
L 709.319165 343.222089 
L 715.177555 353.2239 
L 797.195004 353.213733 
L 803.053393 352.892055 
L 808.911783 353.2239 
L 890.929232 353.149749 
L 896.787622 352.631508 
L 902.646011 353.219777 
L 949.513125 353.2239 
L 949.513125 353.2239 
" style="fill:none;stroke:#91e8e1;stroke-linecap:square;"/>
   </g>
   <g id="line2d_97">
    <path clip-path="url(#p1d9f6410a2)" d="M 32.968125 353.2239 
L 993.158125 353.2239 
" style="fill:none;stroke:#dedede;stroke-linecap:square;stroke-width:2;"/>
   </g>
   <g id="text_17">
    <!-- Fastp: Read N Content -->
    <defs>
     <path d="M 9.8125 72.90625 
L 51.703125 72.90625 
L 51.703125 64.59375 
L 19.671875 64.59375 
L 19.671875 43.109375 
L 48.578125 43.109375 
L 48.578125 34.8125 
L 19.671875 34.8125 
L 19.671875 0 
L 9.8125 0 
z
" id="DejaVuSans-70"/>
     <path d="M 18.109375 8.203125 
L 18.109375 -20.796875 
L 9.078125 -20.796875 
L 9.078125 54.6875 
L 18.109375 54.6875 
L 18.109375 46.390625 
Q 20.953125 51.265625 25.265625 53.625 
Q 29.59375 56 35.59375 56 
Q 45.5625 56 51.78125 48.09375 
Q 58.015625 40.1875 58.015625 27.296875 
Q 58.015625 14.40625 51.78125 6.484375 
Q 45.5625 -1.421875 35.59375 -1.421875 
Q 29.59375 -1.421875 25.265625 0.953125 
Q 20.953125 3.328125 18.109375 8.203125 
z
M 48.6875 27.296875 
Q 48.6875 37.203125 44.609375 42.84375 
Q 40.53125 48.484375 33.40625 48.484375 
Q 26.265625 48.484375 22.1875 42.84375 
Q 18.109375 37.203125 18.109375 27.296875 
Q 18.109375 17.390625 22.1875 11.75 
Q 26.265625 6.109375 33.40625 6.109375 
Q 40.53125 6.109375 44.609375 11.75 
Q 48.6875 17.390625 48.6875 27.296875 
z
" id="DejaVuSans-112"/>
     <path d="M 9.8125 72.90625 
L 23.09375 72.90625 
L 55.421875 11.921875 
L 55.421875 72.90625 
L 64.984375 72.90625 
L 64.984375 0 
L 51.703125 0 
L 19.390625 60.984375 
L 19.390625 0 
L 9.8125 0 
z
" id="DejaVuSans-78"/>
    </defs>
    <g transform="translate(422.606875 19.3575)scale(0.16 -0.16)">
     <use xlink:href="#DejaVuSans-70"/>
     <use x="57.378906" xlink:href="#DejaVuSans-97"/>
     <use x="118.658203" xlink:href="#DejaVuSans-115"/>
     <use x="170.757812" xlink:href="#DejaVuSans-116"/>
     <use x="209.966797" xlink:href="#DejaVuSans-112"/>
     <use x="273.443359" xlink:href="#DejaVuSans-58"/>
     <use x="307.134766" xlink:href="#DejaVuSans-32"/>
     <use x="338.921875" xlink:href="#DejaVuSans-82"/>
     <use x="408.341797" xlink:href="#DejaVuSans-101"/>
     <use x="469.865234" xlink:href="#DejaVuSans-97"/>
     <use x="531.144531" xlink:href="#DejaVuSans-100"/>
     <use x="594.621094" xlink:href="#DejaVuSans-32"/>
     <use x="626.408203" xlink:href="#DejaVuSans-78"/>
     <use x="701.212891" xlink:href="#DejaVuSans-32"/>
     <use x="733" xlink:href="#DejaVuSans-67"/>
     <use x="802.824219" xlink:href="#DejaVuSans-111"/>
     <use x="864.005859" xlink:href="#DejaVuSans-110"/>
     <use x="927.384766" xlink:href="#DejaVuSans-116"/>
     <use x="966.59375" xlink:href="#DejaVuSans-101"/>
     <use x="1028.117188" xlink:href="#DejaVuSans-110"/>
     <use x="1091.496094" xlink:href="#DejaVuSans-116"/>
    </g>
   </g>
  </g>
 </g>
 <defs>
  <clipPath id="p1d9f6410a2">
   <rect height="317.968" width="960.19" x="32.968125" y="35.2559"/>
  </clipPath>
 </defs>
</svg>
